<svg width="250" height="250" viewBox="0 0 250 250" fill="none" xmlns="http://www.w3.org/2000/svg">
<circle opacity="0.03" cx="125" cy="125" r="125" fill="black"/>
<path d="M80.4573 50H98.4222C99.2493 50 99.921 50.6717 99.921 51.4988V68.838C99.921 69.6652 99.2493 70.3369 98.4222 70.3369H80.4573C79.6302 70.3369 78.9585 69.6652 78.9585 68.838V51.4988C78.9566 50.6717 79.6302 50 80.4573 50Z" fill="#C0D8FB"/>
<path d="M81.2345 50.8808H97.643C98.3991 50.8808 99.0132 51.4949 99.0132 52.2511V68.0876C99.0132 68.8438 98.3991 69.4579 97.643 69.4579H81.2345C80.4784 69.4579 79.8643 68.8438 79.8643 68.0876V52.2511C79.8643 51.4949 80.4784 50.8808 81.2345 50.8808Z" fill="#DFEBFD"/>
<path d="M89.4391 53.1704C89.6786 53.1704 89.8728 52.9762 89.8728 52.7367C89.8728 52.4972 89.6786 52.303 89.4391 52.303C89.1996 52.303 89.0054 52.4972 89.0054 52.7367C89.0054 52.9762 89.1996 53.1704 89.4391 53.1704Z" fill="#B7D3F3"/>
<path d="M92.5099 53.3509C92.627 53.1417 92.8899 53.0649 93.101 53.182C93.3121 53.2991 93.387 53.562 93.2699 53.7731C93.1528 53.9823 92.8899 54.059 92.6788 53.942C92.4696 53.8249 92.3929 53.562 92.5099 53.3509Z" fill="#B7D3F3"/>
<path d="M95.511 55.7361C95.7125 55.6056 95.9811 55.6632 96.1116 55.8647C96.2421 56.0662 96.1846 56.3349 95.9831 56.4654C95.7816 56.5959 95.5129 56.5383 95.3824 56.3368C95.2519 56.1353 95.3095 55.8666 95.511 55.7361Z" fill="#B7D3F3"/>
<path d="M96.9991 59.4268C97.239 59.4268 97.4329 59.6206 97.4329 59.8605C97.4329 60.1004 97.239 60.2942 96.9991 60.2942C96.7593 60.2942 96.5654 60.1004 96.5654 59.8605C96.5654 59.6206 96.7593 59.4268 96.9991 59.4268Z" fill="#B7D3F3"/>
<path d="M96.2379 63.7121C96.4067 63.881 96.4067 64.1573 96.2379 64.3262C96.069 64.4951 95.7926 64.4951 95.6237 64.3262C95.4548 64.1573 95.4548 63.881 95.6237 63.7121C95.7926 63.5432 96.069 63.5432 96.2379 63.7121Z" fill="#B7D3F3"/>
<path d="M93.5113 66.4449C93.6802 66.6138 93.6802 66.8901 93.5113 67.059C93.3424 67.2279 93.0661 67.2279 92.8972 67.059C92.7283 66.8901 92.7283 66.6138 92.8972 66.4449C93.0661 66.276 93.3424 66.276 93.5113 66.4449Z" fill="#B7D3F3"/>
<path d="M89.0054 67.8556C89.0054 67.6157 89.1992 67.4219 89.4391 67.4219C89.679 67.4219 89.8728 67.6157 89.8728 67.8556C89.8728 68.0955 89.679 68.2893 89.4391 68.2893C89.1992 68.2893 89.0054 68.0955 89.0054 67.8556Z" fill="#B7D3F3"/>
<path d="M86.3549 53.3507C86.2378 53.1416 85.9749 53.0648 85.7638 53.1819C85.5546 53.2989 85.4778 53.5619 85.5949 53.773C85.712 53.9821 85.9749 54.0589 86.186 53.9418C86.3952 53.8248 86.4719 53.5619 86.3549 53.3507Z" fill="#B7D3F3"/>
<path d="M83.3532 55.7361C83.1517 55.6056 82.883 55.6632 82.7525 55.8647C82.622 56.0662 82.6796 56.3349 82.8811 56.4654C83.0826 56.5959 83.3513 56.5383 83.4818 56.3368C83.6123 56.1353 83.5547 55.8666 83.3532 55.7361Z" fill="#B7D3F3"/>
<path d="M81.8658 60.2959C82.1054 60.2959 82.2996 60.1018 82.2996 59.8622C82.2996 59.6227 82.1054 59.4285 81.8658 59.4285C81.6263 59.4285 81.4321 59.6227 81.4321 59.8622C81.4321 60.1018 81.6263 60.2959 81.8658 60.2959Z" fill="#B7D3F3"/>
<path d="M82.6257 63.712C82.4568 63.8808 82.4568 64.1572 82.6257 64.3261C82.7946 64.495 83.0709 64.495 83.2398 64.3261C83.4087 64.1572 83.4087 63.8808 83.2398 63.712C83.0709 63.5431 82.7946 63.5431 82.6257 63.712Z" fill="#B7D3F3"/>
<path d="M85.3532 66.4447C85.1843 66.6136 85.1843 66.89 85.3532 67.0589C85.5221 67.2277 85.7985 67.2277 85.9673 67.0589C86.1362 66.89 86.1362 66.6136 85.9673 66.4447C85.7985 66.2759 85.5221 66.2759 85.3532 66.4447Z" fill="#B7D3F3"/>
<path d="M89.7555 60.2961C89.995 60.2961 90.1892 60.1019 90.1892 59.8623C90.1892 59.6228 89.995 59.4286 89.7555 59.4286C89.516 59.4286 89.3218 59.6228 89.3218 59.8623C89.3218 60.1019 89.516 60.2961 89.7555 60.2961Z" fill="#B7D3F3"/>
<path d="M89.8167 54.4371H89.6978V59.8624H89.8167V54.4371Z" fill="#B7D3F3"/>
<path d="M92.4705 57.46L89.5947 59.7174L89.8139 59.9967L92.6897 57.7393L92.4705 57.46Z" fill="#B7D3F3"/>
<path d="M118.911 137.705H33.2661V200H118.911V137.705Z" fill="#AEC3FF"/>
<path d="M129.757 67.136H118.079V198.413H137.882V133.666L129.757 100.4V67.136Z" fill="#AEC3FF"/>
<path d="M194.496 67.136H129.757V100.402H194.496V67.136Z" fill="#D2E0FF"/>
<path d="M202.621 133.666H137.882V198.415H202.621V133.666Z" fill="#D2E0FF"/>
<path d="M202.622 133.666H137.882L129.757 100.4H194.498L202.622 133.666Z" fill="#C1D4F7"/>
<path d="M138.95 107.007H137.258L136.611 104.597H138.304L138.95 107.007Z" fill="#AEC3FF"/>
<path d="M142.802 107.007H141.109L140.462 104.597H142.155L142.802 107.007Z" fill="#AEC3FF"/>
<path d="M146.652 107.007H144.96L144.313 104.597H146.006L146.652 107.007Z" fill="#AEC3FF"/>
<path d="M150.504 107.007H148.811L148.165 104.597H149.857L150.504 107.007Z" fill="#AEC3FF"/>
<path d="M154.355 107.007H152.663L152.014 104.597H153.707L154.355 107.007Z" fill="#AEC3FF"/>
<path d="M158.205 107.007H156.512L155.866 104.597H157.558L158.205 107.007Z" fill="#AEC3FF"/>
<path d="M140.159 111.508H138.467L137.82 109.098H139.512L140.159 111.508Z" fill="#AEC3FF"/>
<path d="M144.011 111.508H142.318L141.669 109.097H143.362L144.011 111.508Z" fill="#AEC3FF"/>
<path d="M147.861 111.508H146.169L145.522 109.098H147.215L147.861 111.508Z" fill="#AEC3FF"/>
<path d="M151.713 111.508H150.02L149.372 109.098H151.064L151.713 111.508Z" fill="#AEC3FF"/>
<path d="M155.562 111.508H153.869L153.222 109.098H154.915L155.562 111.508Z" fill="#AEC3FF"/>
<path d="M159.413 111.508H157.72L157.072 109.098H158.764L159.413 111.508Z" fill="#AEC3FF"/>
<path d="M141.409 116.167H139.717L139.07 113.757H140.762L141.409 116.167Z" fill="#AEC3FF"/>
<path d="M145.261 116.167H143.568L142.921 113.757H144.614L145.261 116.167Z" fill="#AEC3FF"/>
<path d="M149.111 116.167H147.419L146.772 113.757H148.465L149.111 116.167Z" fill="#AEC3FF"/>
<path d="M152.963 116.167H151.27L150.624 113.757H152.316L152.963 116.167Z" fill="#AEC3FF"/>
<path d="M156.813 116.167H155.12L154.473 113.757H156.166L156.813 116.167Z" fill="#AEC3FF"/>
<path d="M160.664 116.167H158.971L158.325 113.757H160.017L160.664 116.167Z" fill="#AEC3FF"/>
<path d="M142.619 120.668H140.927L140.28 118.257H141.972L142.619 120.668Z" fill="#AEC3FF"/>
<path d="M146.471 120.668H144.778L144.129 118.257H145.822L146.471 120.668Z" fill="#AEC3FF"/>
<path d="M150.321 120.668H148.629L147.982 118.257H149.675L150.321 120.668Z" fill="#AEC3FF"/>
<path d="M154.173 120.668H152.48L151.832 118.257H153.524L154.173 120.668Z" fill="#AEC3FF"/>
<path d="M158.023 120.668H156.33L155.683 118.257H157.376L158.023 120.668Z" fill="#AEC3FF"/>
<path d="M161.874 120.668H160.181L159.533 118.257H161.225L161.874 120.668Z" fill="#AEC3FF"/>
<path d="M165.751 107.007H164.058L163.409 104.597H165.102L165.751 107.007Z" fill="#AEC3FF"/>
<path d="M169.6 107.007H167.907L167.261 104.597H168.953L169.6 107.007Z" fill="#AEC3FF"/>
<path d="M173.452 107.007H171.759L171.11 104.597H172.803L173.452 107.007Z" fill="#AEC3FF"/>
<path d="M177.301 107.007H175.609L174.962 104.597H176.655L177.301 107.007Z" fill="#AEC3FF"/>
<path d="M181.154 107.007H179.461L178.812 104.597H180.505L181.154 107.007Z" fill="#AEC3FF"/>
<path d="M185.003 107.007H183.311L182.664 104.597H184.357L185.003 107.007Z" fill="#AEC3FF"/>
<path d="M166.957 111.508H165.264L164.617 109.098H166.31L166.957 111.508Z" fill="#AEC3FF"/>
<path d="M170.808 111.508H169.115L168.469 109.098H170.161L170.808 111.508Z" fill="#AEC3FF"/>
<path d="M174.658 111.508H172.965L172.318 109.098H174.011L174.658 111.508Z" fill="#AEC3FF"/>
<path d="M178.51 111.508H176.818L176.171 109.098H177.864L178.51 111.508Z" fill="#AEC3FF"/>
<path d="M182.36 111.508H180.667L180.021 109.098H181.713L182.36 111.508Z" fill="#AEC3FF"/>
<path d="M186.21 111.508H184.518L183.871 109.098H185.564L186.21 111.508Z" fill="#AEC3FF"/>
<path d="M168.209 116.167H166.517L165.868 113.757H167.561L168.209 116.167Z" fill="#AEC3FF"/>
<path d="M172.059 116.167H170.366L169.72 113.757H171.412L172.059 116.167Z" fill="#AEC3FF"/>
<path d="M175.911 116.167H174.218L173.569 113.757H175.262L175.911 116.167Z" fill="#AEC3FF"/>
<path d="M179.76 116.167H178.068L177.421 113.757H179.114L179.76 116.167Z" fill="#AEC3FF"/>
<path d="M183.613 116.167H181.92L181.271 113.757H182.964L183.613 116.167Z" fill="#AEC3FF"/>
<path d="M187.462 116.167H185.77L185.123 113.757H186.816L187.462 116.167Z" fill="#AEC3FF"/>
<path d="M169.417 120.668H167.724L167.077 118.257H168.77L169.417 120.668Z" fill="#AEC3FF"/>
<path d="M173.268 120.668H171.575L170.929 118.257H172.621L173.268 120.668Z" fill="#AEC3FF"/>
<path d="M177.118 120.668H175.425L174.778 118.257H176.471L177.118 120.668Z" fill="#AEC3FF"/>
<path d="M180.969 120.668H179.277L178.63 118.257H180.323L180.969 120.668Z" fill="#AEC3FF"/>
<path d="M184.82 120.668H183.127L182.48 118.257H184.173L184.82 120.668Z" fill="#AEC3FF"/>
<path d="M188.671 120.668H186.979L186.332 118.257H188.025L188.671 120.668Z" fill="#AEC3FF"/>
<path d="M158.763 77.7585H134.728V97.1243H158.763V77.7585Z" fill="#2B478B"/>
<path d="M158.789 77.7585H157.071V97.1243H158.789V77.7585Z" fill="#699DEE"/>
<path d="M200.33 191.802H142.429V167.991H200.33V191.802ZM142.809 191.424H199.952V168.369H142.809V191.424Z" fill="#AEC3FF"/>
<path d="M173.526 72.6957C173.526 73.4173 173.115 74.0026 172.609 74.0026C172.102 74.0026 171.691 73.4173 171.691 72.6957C171.691 71.9741 172.102 71.3888 172.609 71.3888C173.115 71.3888 173.526 71.9741 173.526 72.6957Z" fill="white"/>
<path d="M177.817 72.6957C177.817 73.4173 177.406 74.0026 176.9 74.0026C176.393 74.0026 175.982 73.4173 175.982 72.6957C175.982 71.9741 176.393 71.3888 176.9 71.3888C177.406 71.3888 177.817 71.9741 177.817 72.6957Z" fill="#FF9E55"/>
<path d="M182.108 72.6956C182.108 73.4172 181.697 74.0025 181.191 74.0025C180.684 74.0025 180.273 73.4172 180.273 72.6956C180.273 71.974 180.684 71.3887 181.191 71.3887C181.697 71.3887 182.108 71.974 182.108 72.6956Z" fill="#699DEE"/>
<path d="M186.399 72.6956C186.399 73.4172 185.988 74.0025 185.482 74.0025C184.975 74.0025 184.564 73.4172 184.564 72.6956C184.564 71.974 184.975 71.3887 185.482 71.3887C185.988 71.3887 186.399 71.974 186.399 72.6956Z" fill="white"/>
<path d="M190.69 72.6956C190.69 73.4172 190.279 74.0025 189.773 74.0025C189.266 74.0025 188.855 73.4172 188.855 72.6956C188.855 71.974 189.266 71.3887 189.773 71.3887C190.279 71.3887 190.69 71.974 190.69 72.6956Z" fill="#FF9E55"/>
<path d="M190.881 93.5778H171.872V77.5704H190.881V93.5778ZM172.25 93.1997H190.503V77.9485H172.25V93.1997Z" fill="#AEC3FF"/>
<path d="M144.248 79.8271H141.313V80.3703H144.248V79.8271Z" fill="#E9F3FE"/>
<path d="M140.24 79.8269H135.615V80.37H140.24V79.8269Z" fill="#E9F3FE"/>
<path d="M142.612 81.274H135.615V81.8171H142.612V81.274Z" fill="#E9F3FE"/>
<path d="M148.196 81.2739H143.556V81.817H148.196V81.2739Z" fill="#E9F3FE"/>
<path d="M149.949 79.8269H144.883V80.37H149.949V79.8269Z" fill="#E9F3FE"/>
<path d="M140.24 83.7668H135.615V84.3099H140.24V83.7668Z" fill="#E9F3FE"/>
<path d="M142.612 85.2139H135.615V85.757H142.612V85.2139Z" fill="#E9F3FE"/>
<path d="M148.196 85.2138H143.556V85.7569H148.196V85.2138Z" fill="#E9F3FE"/>
<path d="M144.248 83.7668H141.313V84.3099H144.248V83.7668Z" fill="#E9F3FE"/>
<path d="M149.949 83.7668H144.883V84.3099H149.949V83.7668Z" fill="#E9F3FE"/>
<path d="M140.24 88.106H135.615V88.6491H140.24V88.106Z" fill="#E9F3FE"/>
<path d="M142.612 89.553H135.615V90.0961H142.612V89.553Z" fill="#E9F3FE"/>
<path d="M148.196 89.553H143.556V90.0961H148.196V89.553Z" fill="#E9F3FE"/>
<path d="M144.248 88.106H141.313V88.6491H144.248V88.106Z" fill="#E9F3FE"/>
<path d="M149.949 88.106H144.883V88.6491H149.949V88.106Z" fill="#E9F3FE"/>
<path d="M140.24 92.2861H135.615V92.8292H140.24V92.2861Z" fill="#E9F3FE"/>
<path d="M142.612 93.7313H135.615V94.2744H142.612V93.7313Z" fill="#E9F3FE"/>
<path d="M148.196 93.7314H143.556V94.2745H148.196V93.7314Z" fill="#E9F3FE"/>
<path d="M144.248 92.2861H141.313V92.8292H144.248V92.2861Z" fill="#E9F3FE"/>
<path d="M149.949 92.2861H144.883V92.8292H149.949V92.2861Z" fill="#E9F3FE"/>
<path d="M137.883 137.705H31V141.509H137.883V137.705Z" fill="#D2E0FF"/>
<path d="M55.548 111.575L53.4965 135.973C53.4965 135.973 53.2815 137.452 54.3812 137.454C56.1909 137.458 63.3838 137.454 63.3838 137.454C63.3838 137.454 62.0231 137.147 62.0385 136.454C62.0576 135.639 64.4374 111.345 64.4374 111.345L55.548 111.575Z" fill="#D86713"/>
<path d="M63.969 137.011C63.614 137.011 56.7416 137.034 54.9799 137.011C54.2122 137.001 54.0779 136.328 54.0722 135.892C54.0683 135.683 54.0952 135.529 54.0952 135.529L54.1489 134.896L54.2852 133.28L54.4061 131.852L54.5596 130.018L54.6901 128.469L56.1486 111.131L65.038 110.901C65.038 110.901 64.0362 121.069 63.328 128.469C63.2494 129.294 63.1745 130.085 63.1035 130.822C63.0805 131.058 63.0594 131.288 63.0383 131.512C62.973 132.213 62.9116 132.856 62.8598 133.424C62.8329 133.723 62.8061 134.002 62.783 134.257C62.6928 135.255 62.6391 135.892 62.6391 136.013C62.6391 136.084 62.6448 136.149 62.6564 136.21C62.8022 136.988 63.8366 137.013 63.969 137.013V137.011Z" fill="#EE9849"/>
<path d="M33.9595 98.2964L38.9569 118.374L39.642 121.124L41.9699 130.474H85.2191L76.6387 98.2964H33.9595Z" fill="#F1A34F"/>
<path d="M33.9594 98.2964L33.2666 98.5286L41.0486 131.173L41.9698 130.474L33.9594 98.2964Z" fill="#EE9849"/>
<path d="M41.0488 131.173H84.0332L85.2192 130.474H41.97L41.0488 131.173Z" fill="#D86713"/>
<path d="M56.1449 137.464H65.4507V137.022H56.1449V137.464Z" fill="#F1A34F"/>
<path d="M83.1241 124.546L76.1078 98.7225H33.8911V98.2964H76.6394L83.6346 124.489L83.1241 124.546Z" fill="#F1A34F"/>
<path d="M63.0838 131.173L63.0358 131.513L54.2827 133.28L54.4036 131.852L54.4612 131.173H63.0838Z" fill="#D86713"/>
<path opacity="0.4" d="M63.9691 137.011C63.6141 137.011 56.7418 137.034 54.98 137.011C54.2124 137.001 54.078 136.328 54.0723 135.892L62.7831 134.253C62.6929 135.251 62.6392 135.888 62.6392 136.009C62.6392 136.08 62.645 136.145 62.6565 136.207C62.8023 136.984 63.8367 137.009 63.9691 137.009V137.011Z" fill="#D86713"/>
<path opacity="0.4" d="M60.9692 123.961L41.97 130.474L39.6421 121.124L60.9692 123.961Z" fill="#D86713"/>
<path d="M33.9595 98.2964H76.6387L83.5648 124.158H40.1774L33.9595 98.2964Z" fill="#AEC3FF"/>
<path d="M81.5517 123.038H41.59L37.0647 105.01L36.7173 103.626L36.4218 102.448L35.7271 99.6822H75.1131L75.875 102.448L76.1993 103.626L76.5812 105.01L81.5517 123.038Z" fill="#8AA8ED"/>
<path d="M71.2692 100.943L69.471 100.968L69.4307 100.812L71.2289 100.788L71.2692 100.943Z" fill="#F9DDBF"/>
<path d="M70.8724 101.373L69.5808 101.392L69.5405 101.235L70.8321 101.217L70.8724 101.373Z" fill="#F9DDBF"/>
<path d="M72.3553 101.352L71.0637 101.371L71.0234 101.216L72.315 101.196L72.3553 101.352Z" fill="#F9DDBF"/>
<path d="M73.4304 101.338L72.6301 101.348L72.5898 101.192L73.3901 101.181L73.4304 101.338Z" fill="#F9DDBF"/>
<path d="M72.7106 100.922L71.6013 100.939L71.561 100.782L72.6703 100.767L72.7106 100.922Z" fill="#F9DDBF"/>
<path d="M74.2247 100.901L73.1155 100.916L73.0752 100.761L74.1844 100.745L74.2247 100.901Z" fill="#F9DDBF"/>
<path d="M76.0612 121.433L74.2649 121.458L74.2246 121.303L76.0209 121.278L76.0612 121.433Z" fill="#F9DDBF"/>
<path d="M75.6639 121.865L74.3723 121.882L74.332 121.727L75.6255 121.708L75.6639 121.865Z" fill="#F9DDBF"/>
<path d="M77.1492 121.844L75.8577 121.861L75.8174 121.706L77.1089 121.687L77.1492 121.844Z" fill="#F9DDBF"/>
<path d="M78.2219 121.829L77.4217 121.84L77.3813 121.683L78.1835 121.671L78.2219 121.829Z" fill="#F9DDBF"/>
<path d="M77.5026 121.414L76.3953 121.429L76.355 121.272L77.4623 121.257L77.5026 121.414Z" fill="#F9DDBF"/>
<path d="M79.0168 121.393L77.9094 121.408L77.8691 121.251L78.9784 121.236L79.0168 121.393Z" fill="#F9DDBF"/>
<path d="M43.1949 102.135L38.9824 102.123L38.8999 101.77L43.1124 101.78L43.1949 102.135Z" fill="#F9DDBF"/>
<path d="M42.2368 103.09L39.2085 103.083L39.124 102.728L42.1524 102.735L42.2368 103.09Z" fill="#F9DDBF"/>
<path d="M45.7158 103.098L42.6875 103.091L42.603 102.737L45.6314 102.745L45.7158 103.098Z" fill="#F9DDBF"/>
<path d="M48.2319 103.104L46.355 103.1L46.2725 102.747L48.1494 102.751L48.2319 103.104Z" fill="#F9DDBF"/>
<path d="M46.5746 102.143L43.9761 102.137L43.8936 101.782L46.492 101.789L46.5746 102.143Z" fill="#F9DDBF"/>
<path d="M50.1243 102.15L47.5258 102.144L47.4414 101.791L50.0399 101.797L50.1243 102.15Z" fill="#F9DDBF"/>
<path d="M43.2734 105.248L39.7153 105.24L39.6328 104.887L43.1909 104.894L43.2734 105.248Z" fill="#F9DDBF"/>
<path d="M45.9062 105.255L43.9199 105.249L43.8374 104.896L45.8237 104.9L45.9062 105.255Z" fill="#F9DDBF"/>
<path d="M49.8557 105.265L46.8081 105.257L46.7256 104.902L49.7712 104.91L49.8557 105.265Z" fill="#F9DDBF"/>
<path d="M44.1465 106.18L39.9341 106.169L39.8516 105.816L44.064 105.825L44.1465 106.18Z" fill="#F9DDBF"/>
<path d="M43.1885 107.136L40.1602 107.128L40.0776 106.775L43.106 106.781L43.1885 107.136Z" fill="#F9DDBF"/>
<path d="M46.6685 107.144L43.6401 107.136L43.5557 106.783L46.5859 106.79L46.6685 107.144Z" fill="#F9DDBF"/>
<path d="M49.1864 107.149L47.3095 107.146L47.2251 106.792L49.102 106.796L49.1864 107.149Z" fill="#F9DDBF"/>
<path d="M47.5262 106.188L44.9277 106.182L44.8452 105.827L47.4437 105.835L47.5262 106.188Z" fill="#F9DDBF"/>
<path d="M51.0765 106.197L48.478 106.19L48.3955 105.837L50.994 105.842L51.0765 106.197Z" fill="#F9DDBF"/>
<path d="M44.3154 109.677L40.7573 109.667L40.6748 109.314L44.2328 109.324L44.3154 109.677Z" fill="#163560"/>
<path d="M46.9506 109.683L44.9624 109.679L44.8799 109.326L46.8662 109.33L46.9506 109.683Z" fill="#163560"/>
<path d="M50.8981 109.692L47.8506 109.687L47.7681 109.332L50.8156 109.339L50.8981 109.692Z" fill="#163560"/>
<path d="M45.1885 110.608L40.978 110.598L40.8936 110.245L45.106 110.254L45.1885 110.608Z" fill="#163560"/>
<path d="M44.231 111.563L41.2026 111.558L41.1201 111.203L44.1485 111.21L44.231 111.563Z" fill="#163560"/>
<path d="M47.7105 111.573L44.6821 111.565L44.5996 111.212L47.628 111.22L47.7105 111.573Z" fill="#163560"/>
<path d="M50.2284 111.579L48.3515 111.575L48.2671 111.22L50.144 111.226L50.2284 111.579Z" fill="#163560"/>
<path d="M48.5701 110.617L45.9697 110.609L45.8872 110.256L48.4857 110.262L48.5701 110.617Z" fill="#163560"/>
<path d="M52.1185 110.625L49.52 110.619L49.4375 110.266L52.036 110.272L52.1185 110.625Z" fill="#163560"/>
<path d="M45.3134 113.914L41.7554 113.905L41.6729 113.552L45.2309 113.561L45.3134 113.914Z" fill="#F9DDBF"/>
<path d="M47.9467 113.92L45.9604 113.916L45.876 113.561L47.8642 113.567L47.9467 113.92Z" fill="#F9DDBF"/>
<path d="M51.8957 113.93L48.8481 113.922L48.7656 113.569L51.8113 113.576L51.8957 113.93Z" fill="#F9DDBF"/>
<path d="M46.1866 114.845L41.9741 114.835L41.8916 114.482L46.1041 114.492L46.1866 114.845Z" fill="#F9DDBF"/>
<path d="M45.229 115.801L42.2007 115.793L42.1162 115.44L45.1446 115.448L45.229 115.801Z" fill="#F9DDBF"/>
<path d="M48.7085 115.81L45.6801 115.803L45.5957 115.45L48.6241 115.455L48.7085 115.81Z" fill="#F9DDBF"/>
<path d="M51.2265 115.816L49.3477 115.81L49.2651 115.457L51.142 115.463L51.2265 115.816Z" fill="#F9DDBF"/>
<path d="M49.5663 114.853L46.9678 114.847L46.8853 114.494L49.4837 114.5L49.5663 114.853Z" fill="#F9DDBF"/>
<path d="M53.1166 114.862L50.5181 114.857L50.4355 114.501L53.034 114.509L53.1166 114.862Z" fill="#F9DDBF"/>
<path d="M46.3378 118.265L42.7798 118.257L42.6953 117.902L46.2534 117.912L46.3378 118.265Z" fill="#163560"/>
<path d="M48.9711 118.273L46.9829 118.267L46.9004 117.914L48.8886 117.918L48.9711 118.273Z" fill="#163560"/>
<path d="M52.9187 118.282L49.873 118.274L49.7886 117.919L52.8361 117.927L52.9187 118.282Z" fill="#163560"/>
<path d="M47.2115 119.198L42.999 119.186L42.9146 118.833L47.127 118.843L47.2115 119.198Z" fill="#163560"/>
<path d="M46.2534 120.153L43.2231 120.146L43.1406 119.791L46.169 119.798L46.2534 120.153Z" fill="#163560"/>
<path d="M49.731 120.161L46.7026 120.153L46.6201 119.8L49.6485 119.808L49.731 120.161Z" fill="#163560"/>
<path d="M52.249 120.167L50.3721 120.163L50.2896 119.81L52.1664 119.814L52.249 120.167Z" fill="#163560"/>
<path d="M50.5911 119.205L47.9926 119.199L47.9082 118.844L50.5086 118.852L50.5911 119.205Z" fill="#163560"/>
<path d="M54.1414 119.213L51.5429 119.207L51.4585 118.854L54.057 118.86L54.1414 119.213Z" fill="#163560"/>
<path d="M61.6714 102.43L57.459 102.419L57.3765 102.066L61.5889 102.075L61.6714 102.43Z" fill="#F1A34F"/>
<path d="M60.7144 103.386L57.686 103.379L57.6035 103.024L60.6319 103.031L60.7144 103.386Z" fill="#F1A34F"/>
<path d="M64.1934 103.394L61.165 103.386L61.0825 103.033L64.1109 103.041L64.1934 103.394Z" fill="#F1A34F"/>
<path d="M66.7113 103.4L64.8344 103.396L64.75 103.043L66.6269 103.047L66.7113 103.4Z" fill="#F1A34F"/>
<path d="M65.0511 102.438L62.4526 102.432L62.3701 102.077L64.9686 102.085L65.0511 102.438Z" fill="#F1A34F"/>
<path d="M68.6019 102.446L66.0034 102.44L65.9209 102.087L68.5194 102.093L68.6019 102.446Z" fill="#F1A34F"/>
<path d="M61.7504 105.543L58.1924 105.536L58.1099 105.182L61.6679 105.19L61.7504 105.543Z" fill="#F1A34F"/>
<path d="M64.3857 105.551L62.3975 105.545L62.3149 105.192L64.3012 105.196L64.3857 105.551Z" fill="#F1A34F"/>
<path d="M68.3332 105.56L65.2856 105.553L65.2031 105.2L68.2507 105.205L68.3332 105.56Z" fill="#F1A34F"/>
<path d="M62.6241 106.476L58.4116 106.464L58.3291 106.111L62.5416 106.121L62.6241 106.476Z" fill="#F1A34F"/>
<path d="M61.6661 107.431L58.6377 107.424L58.5552 107.071L61.5835 107.076L61.6661 107.431Z" fill="#F1A34F"/>
<path d="M65.1456 107.439L62.1172 107.431L62.0347 107.078L65.063 107.086L65.1456 107.439Z" fill="#F1A34F"/>
<path d="M67.663 107.445L65.7861 107.441L65.7017 107.088L67.5786 107.092L67.663 107.445Z" fill="#F1A34F"/>
<path d="M66.0057 106.483L63.4053 106.478L63.3228 106.123L65.9212 106.13L66.0057 106.483Z" fill="#F1A34F"/>
<path d="M69.5536 106.493L66.9551 106.485L66.8726 106.132L69.471 106.138L69.5536 106.493Z" fill="#F1A34F"/>
<path d="M62.7948 109.972L59.2368 109.965L59.1523 109.61L62.7104 109.619L62.7948 109.972Z" fill="#F9DDBF"/>
<path d="M65.4272 109.978L63.439 109.974L63.3564 109.621L65.3427 109.625L65.4272 109.978Z" fill="#F9DDBF"/>
<path d="M69.3752 109.988L66.3296 109.982L66.2451 109.627L69.2927 109.635L69.3752 109.988Z" fill="#F9DDBF"/>
<path d="M63.6675 110.903L59.455 110.894L59.3706 110.541L63.5831 110.55L63.6675 110.903Z" fill="#F9DDBF"/>
<path d="M62.7081 111.859L59.6797 111.853L59.5972 111.498L62.6255 111.506L62.7081 111.859Z" fill="#F9DDBF"/>
<path d="M66.1875 111.869L63.1592 111.861L63.0767 111.508L66.105 111.515L66.1875 111.869Z" fill="#F9DDBF"/>
<path d="M68.7055 111.874L66.8286 111.87L66.7461 111.515L68.623 111.521L68.7055 111.874Z" fill="#F9DDBF"/>
<path d="M67.0472 110.913L64.4487 110.905L64.3643 110.552L66.9627 110.558L67.0472 110.913Z" fill="#F9DDBF"/>
<path d="M70.5975 110.921L67.9971 110.915L67.9146 110.562L70.513 110.568L70.5975 110.921Z" fill="#F9DDBF"/>
<path d="M63.7905 114.21L60.2324 114.2L60.1499 113.847L63.7079 113.857L63.7905 114.21Z" fill="#F9DDBF"/>
<path d="M66.4238 114.216L64.4375 114.212L64.355 113.857L66.3413 113.862L66.4238 114.216Z" fill="#F9DDBF"/>
<path d="M70.3732 114.225L67.3257 114.218L67.2432 113.864L70.2907 113.872L70.3732 114.225Z" fill="#F9DDBF"/>
<path d="M64.6641 115.14L60.4517 115.131L60.3691 114.778L64.5816 114.787L64.6641 115.14Z" fill="#F9DDBF"/>
<path d="M63.7061 116.096L60.6777 116.089L60.5952 115.735L63.6236 115.743L63.7061 116.096Z" fill="#F9DDBF"/>
<path d="M67.1856 116.106L64.1572 116.098L64.0747 115.745L67.1031 115.751L67.1856 116.106Z" fill="#F9DDBF"/>
<path d="M69.703 116.112L67.8261 116.106L67.7417 115.753L69.6186 115.759L69.703 116.112Z" fill="#F9DDBF"/>
<path d="M68.0433 115.148L65.4448 115.142L65.3623 114.789L67.9608 114.795L68.0433 115.148Z" fill="#F9DDBF"/>
<path d="M71.5936 115.158L68.9951 115.152L68.9126 114.797L71.5111 114.805L71.5936 115.158Z" fill="#F9DDBF"/>
<path d="M64.8154 118.561L61.2573 118.553L61.1748 118.198L64.7328 118.207L64.8154 118.561Z" fill="#F9DDBF"/>
<path d="M67.4487 118.568L65.4624 118.562L65.3779 118.209L67.3661 118.213L67.4487 118.568Z" fill="#F9DDBF"/>
<path d="M71.3977 118.578L68.3501 118.57L68.2676 118.215L71.3132 118.223L71.3977 118.578Z" fill="#F9DDBF"/>
<path d="M65.6885 119.493L61.4761 119.482L61.3936 119.129L65.606 119.138L65.6885 119.493Z" fill="#F9DDBF"/>
<path d="M64.731 120.449L61.7026 120.441L61.6182 120.086L64.6465 120.094L64.731 120.449Z" fill="#F9DDBF"/>
<path d="M68.2105 120.457L65.1821 120.449L65.0977 120.096L68.126 120.104L68.2105 120.457Z" fill="#F9DDBF"/>
<path d="M70.7265 120.462L68.8496 120.458L68.7671 120.105L70.644 120.109L70.7265 120.462Z" fill="#F9DDBF"/>
<path d="M69.0682 119.501L66.4697 119.495L66.3872 119.14L68.9857 119.148L69.0682 119.501Z" fill="#F9DDBF"/>
<path d="M72.6185 119.508L70.02 119.503L69.9355 119.15L72.534 119.155L72.6185 119.508Z" fill="#F9DDBF"/>
<path d="M84.2687 192.635C84.2687 192.635 83.883 198.636 82.7219 198.72C82.5665 198.732 76.8322 198.72 76.8322 198.72L69.5107 198.662C69.5107 198.662 69.5626 196.899 71.7024 196.53C73.8441 196.162 77.429 194.667 78.7302 191.84C80.1004 188.867 84.2668 192.636 84.2668 192.636L84.2687 192.635Z" fill="#0E2C4F"/>
<path d="M105.224 143.273C105.504 143.509 112.959 151.588 112.351 157.793C112.173 159.616 110.603 160.986 108.772 160.986H99.6888C99.6888 160.986 90.4214 162.643 90.2007 164.646C89.98 166.65 88.0839 177.445 84.3243 192.786C84.3243 192.786 81.5551 193.74 79.8758 193.059C77.6554 192.159 77.333 191.203 77.333 191.203C77.333 191.203 79.5726 156.851 81.342 154.433C83.1115 152.014 101.33 144.827 107.229 144.112C113.128 143.396 105.227 143.275 105.227 143.275L105.224 143.273Z" fill="#163560"/>
<path d="M52.55 134.704C52.55 134.704 47.2801 133.478 45.9329 134.704C44.5856 135.93 44.1558 137.708 44.1558 137.708H52.55V134.704Z" fill="#FFB27D"/>
<path d="M71.4377 192.635C71.4377 192.635 71.0519 198.636 69.8909 198.72C69.7374 198.732 64.0011 198.72 64.0011 198.72L56.6797 198.662C56.6797 198.662 56.7315 196.899 58.8713 196.53C61.0111 196.162 64.598 194.667 65.8991 191.84C67.2694 188.867 71.4358 192.636 71.4358 192.636L71.4377 192.635Z" fill="#163560"/>
<path d="M112.113 143.273C112.324 143.451 113.938 147.794 115.017 152.724C115.944 156.968 112.716 160.984 108.373 160.984H87.2436C87.2436 160.984 77.9761 162.641 77.7554 164.644C77.5348 166.648 75.6387 177.443 71.8791 192.784C71.8791 192.784 69.1002 193.513 66.9297 192.586C65.7763 192.093 64.8647 190.911 64.8647 190.911C64.8647 190.911 67.1255 156.849 68.893 154.431C70.6624 152.012 88.8806 144.825 94.7799 144.11C100.679 143.394 112.111 143.273 112.111 143.273H112.113Z" fill="#2B478B"/>
<path d="M100.401 112.561L97.1329 115.697H91.5656C91.5598 115.252 91.5771 113.385 91.5982 111.692C91.5982 111.592 91.602 111.492 91.602 111.394C91.6059 111.018 91.6116 110.656 91.6155 110.326C91.627 109.393 91.6366 108.717 91.6366 108.717L93.0682 107.739L96.2482 105.562L97.9677 104.388C97.9677 104.417 98.1098 105.954 98.1309 106.178C98.5109 110.16 100.401 112.559 100.401 112.559V112.561Z" fill="#FFB27D"/>
<path d="M92.3064 111.995C92.412 111.951 98.4361 109.249 99.1404 109.481C99.8447 109.713 100.724 111.865 100.724 111.865L90.1167 114.264C90.1167 114.264 90.9515 112.567 92.3064 111.995Z" fill="#163560"/>
<path d="M118.362 130.047C117.214 122.969 112.369 117.672 110.296 115.688C108.905 113.594 100.725 111.865 100.725 111.865C100.725 111.865 93.9509 113.396 90.1185 114.264C90.1185 114.264 84.1404 114.912 80.7685 120.489C78.6844 123.938 72.7121 131.826 68.7894 132.071C64.8667 132.317 52.5518 134.706 52.5518 134.706V137.736L71.3284 138.251C71.5587 138.257 71.7851 138.239 72.0116 138.197C73.6275 137.892 80.5536 136.516 83.9984 134.723C84.5492 143.594 85.1978 157.137 88.2953 159.288C91.5712 161.562 114.614 161.867 117.055 158.4C118.305 156.624 116.773 146.117 114.86 135.986C117.237 134.856 118.844 133.015 118.362 130.048V130.047Z" fill="#2A4E96"/>
<path d="M97.0751 107.418L96.7911 107.595C96.7911 107.595 94.1715 109.481 91.6152 110.327C91.6267 109.395 91.6363 108.719 91.6363 108.719L93.068 107.741L97.077 107.418H97.0751Z" fill="#EAA16E"/>
<path d="M89.6849 108.769C89.6849 108.769 98.2519 109.782 98.8007 104.438C99.3496 99.0929 100.825 95.6251 95.3789 94.7519C89.9325 93.8787 88.6582 95.8093 88.0422 97.548C87.4242 99.2868 87.4722 108.368 89.6849 108.769Z" fill="#FFB27D"/>
<path d="M88.2689 97.0012C88.2689 97.0012 89.8867 102.799 91.0574 102.315C92.2281 101.832 93.2989 101.436 93.4525 103.246C93.606 105.056 92.2991 107.424 96.1143 107.036C99.9295 106.649 103.52 95.9534 102.146 94.3106C98.1792 89.5742 82.7611 91.3475 88.2708 97.0012H88.2689Z" fill="#163560"/>
<path d="M124.575 162.134H82.2024V157.325H127.49V159.219C127.49 160.827 126.185 162.132 124.577 162.132L124.575 162.134Z" fill="#77A4E5"/>
<path d="M77.1272 162.134H109.182C110.373 162.134 111.337 161.169 111.337 159.979V159.48C111.337 158.29 110.373 157.325 109.182 157.325H77.1272C75.937 157.325 74.9721 158.29 74.9721 159.48V159.979C74.9721 161.169 75.937 162.134 77.1272 162.134Z" fill="#F99746"/>
<path d="M103.812 196.914H106.545L107.312 162.134H103.136L103.812 196.914Z" fill="#2B478B"/>
<path d="M91.9351 196.915H118.517V194.514L104.968 193.291L91.9351 194.514V196.915Z" fill="#2B478B"/>
<path d="M120.34 198.183C121.255 197.396 121.36 196.016 120.573 195.1C119.786 194.185 118.406 194.081 117.49 194.867C116.575 195.654 116.47 197.034 117.257 197.95C118.044 198.865 119.424 198.97 120.34 198.183Z" fill="#2B478B"/>
<path d="M94.5158 196.538C94.5158 195.331 93.537 194.352 92.3299 194.352C91.1228 194.352 90.144 195.331 90.144 196.538C90.144 197.745 91.1228 198.724 92.3299 198.724C93.537 198.724 94.5158 197.745 94.5158 196.538Z" fill="#2B478B"/>
<path d="M92.8863 164.416H117.562C118.823 164.416 119.844 163.395 119.844 162.134H90.6045C90.6045 163.395 91.6255 164.416 92.8863 164.416Z" fill="#2B478B"/>
<path d="M123.302 162.134C124.452 162.134 125.383 161.203 125.383 160.054V128.027C125.383 122.026 121.458 117.161 116.618 117.161H96.7993C91.9593 117.161 88.0347 122.026 88.0347 128.027V162.134H123.3H123.302Z" fill="#F99746"/>
<path d="M123.694 162.134C125.79 162.134 127.488 160.436 127.488 158.34V128.027C127.488 122.026 123.563 117.161 118.723 117.161H98.9047C94.0647 117.161 90.1401 122.026 90.1401 128.027V162.134H123.692H123.694Z" fill="#CC6A27"/>
<path d="M161.832 83.8378H160.665V85.0065H161.832V83.8378Z" fill="#AEC3FF"/>
<path d="M164.864 83.8379H163.697V85.0066H164.864V83.8379Z" fill="#AEC3FF"/>
<path d="M167.896 83.8378H166.729V85.0065H167.896V83.8378Z" fill="#AEC3FF"/>
<path d="M161.832 86.4384H160.665V87.6052H161.832V86.4384Z" fill="#AEC3FF"/>
<path d="M164.864 86.4384H163.697V87.6053H164.864V86.4384Z" fill="#AEC3FF"/>
<path d="M167.896 86.4384H166.729V87.6052H167.896V86.4384Z" fill="#AEC3FF"/>
<path d="M161.832 89.321H160.665V90.4878H161.832V89.321Z" fill="#AEC3FF"/>
<path d="M164.864 89.321H163.697V90.4879H164.864V89.321Z" fill="#AEC3FF"/>
<path d="M167.896 89.321H166.729V90.4878H167.896V89.321Z" fill="#AEC3FF"/>
<path d="M172.83 115.831L174.72 115.551C174.93 115.52 175.02 115.306 174.932 115.043L173.091 109.437C172.98 109.101 172.636 108.83 172.37 108.869L170.479 109.149C170.27 109.18 170.18 109.395 170.268 109.658L172.11 115.263C172.222 115.599 172.565 115.87 172.832 115.831H172.83Z" fill="#233862"/>
<path d="M173.5 115.733L175.392 115.453C175.601 115.423 175.692 115.208 175.603 114.945L173.763 109.339C173.652 109.003 173.308 108.732 173.041 108.771L171.151 109.051C170.942 109.082 170.852 109.297 170.94 109.56L172.782 115.165C172.892 115.501 173.237 115.772 173.504 115.733H173.5Z" fill="#192E4F"/>
<path d="M171.675 110.074C171.73 110.066 171.757 110.001 171.736 109.93L170.241 104.973C170.22 104.902 170.157 104.852 170.103 104.86C170.047 104.867 170.02 104.933 170.041 105.004L171.536 109.961C171.557 110.032 171.621 110.082 171.675 110.074Z" fill="#192E4F"/>
<path d="M171.176 91.257C171.176 91.257 169.81 88.9329 168.728 88.0732C167.643 87.2115 164.782 86.9716 164.671 87.1923C164.327 87.8736 165.805 88.8581 166.112 89.4837C166.419 90.1094 166.286 91.0094 167.743 91.7483C169.248 92.5102 170.119 93.0091 170.119 93.0091L171.174 91.2589L171.176 91.257Z" fill="#FFB27D"/>
<path d="M170.023 90.9406C170.726 89.8486 170.935 89.791 170.935 89.791C170.935 89.791 182.547 94.4218 183.655 94.8095C184.762 95.1952 201.33 96.1702 201.33 96.1702L206.329 107.159C206.329 107.159 184.252 102.123 181.463 101.089C176.855 99.3789 169.463 92.6793 169.463 92.6793C169.463 92.6793 169.471 91.7965 170.021 90.9386L170.023 90.9406Z" fill="#233862"/>
<path d="M198.868 193.692C198.868 193.692 198.615 197.768 197.859 198.726H186.212C186.285 198.319 186.615 197.315 188.072 197.062C189.912 196.742 192.992 195.448 194.107 193.017C195.28 190.458 198.87 193.692 198.87 193.692H198.868Z" fill="#163560"/>
<path d="M219.538 193.124C219.538 193.124 220.263 198.419 219.267 198.511C219.135 198.522 214.838 198.52 213.155 198.511C211.061 198.499 207.716 198.524 207.716 198.524C207.284 198.541 207 198.073 207.221 197.701C207.463 197.292 207.924 196.854 208.804 196.686C210.639 196.332 213.696 194.985 214.767 192.535C215.896 189.955 219.54 193.126 219.54 193.126L219.538 193.124Z" fill="#163560"/>
<path d="M193.392 139.446C193.392 139.446 196.32 149.694 204.714 167.49C213.109 185.286 213.755 193.396 213.755 193.396L219.538 193.124C219.538 193.124 218.995 171.942 215.03 162.961C211.065 153.979 210.257 129.405 210.257 129.405L193.392 139.446Z" fill="#ED823A"/>
<path d="M188.69 130.628C188.69 130.628 188.458 146.497 191.203 165.98C193.949 185.463 193.018 193.734 193.018 193.734L199.593 193.953C199.593 193.953 203.523 174.462 202.397 164.709C201.27 154.956 207.778 131.246 207.778 131.246L188.69 130.628Z" fill="#FF9E55"/>
<path d="M201.665 93.4928L198.564 95.79L194.081 94.8458C194.142 94.437 194.44 92.7424 194.709 91.209C194.724 91.1188 194.741 91.0286 194.757 90.9404C194.987 89.6354 195.186 88.5127 195.186 88.5127L199.372 86.4266L200.932 85.6494C200.928 85.6762 200.811 87.0983 200.794 87.3056C200.5 90.9903 201.663 93.4947 201.663 93.4947L201.665 93.4928Z" fill="#FFB27D"/>
<path d="M194.396 92.3358C194.494 92.2935 200.493 90.5241 201.145 90.739C201.798 90.954 202.184 92.2148 202.184 92.2148L192.922 94.8536C192.922 94.8536 193.144 92.8635 194.398 92.3358H194.396Z" fill="#163560"/>
<path d="M210.551 132.587C209.535 137.226 188.335 122.671 188.617 119.84C188.648 119.529 188.678 119.217 188.711 118.906C189.103 114.964 189.477 111.108 189.504 108.59C189.525 106.407 189.824 104.175 190.227 102.146C190.596 100.273 191.049 98.5746 191.442 97.2504C191.718 96.3177 192.237 95.4964 192.924 94.8515C193.411 94.3929 193.983 94.0263 194.614 93.7749C194.785 93.702 194.962 93.6425 195.14 93.5907C197.694 92.8499 201.226 91.9326 202.185 92.2128C204.78 92.9766 206.707 97.5421 208.071 103.365C210.625 114.263 211.215 129.565 210.553 132.587H210.551Z" fill="#2A4E96"/>
<path d="M200.484 87.3709C199.564 89.1307 196.139 90.6507 194.709 91.2111C194.724 91.1209 194.742 91.0307 194.757 90.9424C194.987 89.6374 195.187 88.5147 195.187 88.5147L199.372 86.4286C200.297 86.4152 200.862 86.6474 200.482 87.3728L200.484 87.3709Z" fill="#FCA56B"/>
<path d="M193.154 88.2691C193.154 88.2691 200.708 90.6258 202.101 85.899C203.497 81.1722 205.41 78.2936 200.647 76.5894C195.883 74.8852 194.41 76.4109 193.561 77.8752C192.711 79.3395 191.226 87.5341 193.154 88.2691Z" fill="#FFB27D"/>
<path d="M193.857 77.4202C193.857 77.4202 194.339 82.9204 195.477 82.6805C196.615 82.4425 197.645 82.264 197.478 83.9221C197.311 85.5803 195.734 87.4936 199.24 87.7872C202.744 88.0809 207.784 79.0399 206.821 77.33C204.042 72.3921 189.84 71.3942 193.857 77.4202Z" fill="#163560"/>
<path d="M189.256 130.628C191.356 131.386 189.22 128.542 189.256 127.949C189.419 125.34 188.396 122.043 188.709 118.906L201.533 111.241C201.533 111.241 204.575 130.507 189.256 130.63V130.628Z" fill="#233862"/>
<path d="M210.551 132.587C205.078 142.734 204.205 146.606 204.205 146.606C199.439 146.063 191.275 136.696 188.687 134.195C188.687 134.195 188.335 122.669 188.617 119.839L192.575 119.725C192.575 119.725 199.727 121.539 201.583 119.079C203.437 116.618 202.635 104.541 202.635 104.541L208.072 103.365C210.626 114.263 212.021 129.864 210.553 132.587H210.551Z" fill="#FF9E55"/>
<path d="M179.318 113.179C179.318 113.179 177.754 112.874 177.347 112.54C176.744 112.045 176.272 111.218 175.979 111.125C175.484 110.972 174.271 109.446 174.169 109.339C174.129 109.297 173.802 109.456 173.881 109.707C173.962 109.961 174.142 110.506 174.207 110.703C174.495 111.571 174.48 111.837 173.443 111.502C173.309 111.457 170.914 110.697 170.668 111.241C170.423 111.784 171.415 114.399 172.664 114.964C173.914 115.528 177 115.017 177.222 115.083C179.109 115.632 179.316 113.179 179.316 113.179H179.318Z" fill="#FFB27D"/>
<path d="M178.045 112.669C178.045 112.669 190.763 114.831 191.889 114.283C193.688 113.408 191.191 100.503 191.191 100.503C191.191 100.503 191.083 97.5786 194.499 96.8897C197.468 96.2909 200.332 98.5132 200.332 98.5132C200.332 98.5132 202.936 100.843 202.604 103.428C201.867 109.159 200.719 120.813 196.887 122.6C191.943 124.905 177.64 116.211 177.64 116.211C177.64 116.211 177.164 115.628 177.231 114.546C177.291 113.59 178.045 112.671 178.045 112.671V112.669Z" fill="#2A4E96"/>
<path d="M203.686 104.313L202.633 104.541C202.633 104.541 200.404 94.8995 192.92 94.8515C193.407 94.3929 193.979 94.0263 194.611 93.7749C197.353 94.5099 202.116 96.8551 203.686 104.313Z" fill="#FF9E55"/>
<path d="M166.999 90.0038C166.999 90.0038 164.938 88.7391 164.84 89.2822C164.792 89.5528 165.709 90.2917 166.078 90.6084C166.446 90.925 167.386 91.5449 167.386 91.5449L166.999 90.0058V90.0038Z" fill="#FFB27D"/>
</svg>
