<svg xmlns="http://www.w3.org/2000/svg" width="94" height="90" fill="none" viewBox="0 0 94 90"><path fill="#fff" d="M48.508.409c-24.588 0-44.59 20.004-44.59 44.59A44.589 44.589 0 0 0 9.45 66.509L1.053 86.826a1.998 1.998 0 0 0 1.85 2.764c.175 0 .353-.023.527-.071l22.393-6.132A44.483 44.483 0 0 0 48.51 89.59c24.587 0 44.591-20.003 44.591-44.591S73.095.409 48.508.409Zm0 85.182a40.482 40.482 0 0 1-21.332-6.06 1.996 1.996 0 0 0-1.58-.228l-19.288 5.28 7.212-17.448a2.001 2.001 0 0 0-.119-1.77A40.565 40.565 0 0 1 7.917 45c0-22.382 18.21-40.591 40.591-40.591 22.382 0 40.591 18.209 40.591 40.59 0 22.383-18.209 40.592-40.59 40.592Z"/><path fill="#fff" d="m67.439 54.487-9.671-5.053a2 2 0 0 0-2.099.153l-8.154 5.905c-4.574-3.396-7.319-6.428-7.369-6.483-.03-.034-.067-.059-.099-.09-.029-.029-.052-.062-.084-.089-.039-.034-1.913-1.688-4.285-4.852l6.041-8.342a2 2 0 0 0 .152-2.099l-5.052-9.67a1.998 1.998 0 0 0-2.689-.851l-8.95 4.618a2 2 0 0 0-.996 2.361c4.132 13.536 12.106 20.92 13.062 21.77 1.028 1.129 10.487 11.212 24.065 15.357a2.002 2.002 0 0 0 2.361-.996l4.619-8.949a2 2 0 0 0-.852-2.69ZM28.521 30.409l5.673-2.927 3.558 6.81-4.47 6.173a49.708 49.708 0 0 1-4.761-10.056Zm32.377 32.368c-3.673-1.29-7.012-3.048-9.888-4.878l6.002-4.347 6.811 3.558-2.925 5.667Z"/></svg>