<svg width="203" height="120" viewBox="0 0 203 120" fill="none" xmlns="http://www.w3.org/2000/svg">
<path d="M176.808 0.000976562H185.983L202.548 33.5564H183.647V106.166H179.994V33.5564H171.328V44.5038C173.332 44.7546 174.883 46.4639 174.883 48.5356C174.883 50.7798 173.064 52.5988 170.818 52.5988C168.573 52.5988 166.755 50.7798 166.755 48.5356C166.755 46.4639 168.305 44.7546 170.308 44.5038V33.5564H161.091L176.808 0.000976562Z" fill="#F8AB18"/>
<path d="M5.82598 95.3601C6.60679 95.4945 7.3771 95.5613 8.13598 95.5613C9.92162 95.5613 11.2802 95.1008 12.2125 94.1798C13.144 93.2589 13.6102 91.8498 13.6102 89.9526C13.6102 88.0555 13.1669 86.777 12.2793 85.8846C11.3917 84.9923 9.99408 84.5461 8.08545 84.5461C7.33801 84.5461 6.58486 84.5909 5.82598 84.6796V95.3591V95.3601ZM5.82598 101.537C5.82598 102.206 5.82884 102.81 5.83456 103.345C5.84028 103.881 5.84887 104.361 5.85935 104.785C5.87079 105.041 6.0157 105.215 6.29504 105.304L8.60503 106.006L8.6384 106.726C7.01959 106.693 5.54665 106.676 4.21862 106.676C2.89059 106.676 1.48438 106.694 0.0667352 106.726L0 106.006L2.05926 105.388C2.34908 105.298 2.49971 105.125 2.51115 104.868C2.52259 104.422 2.53022 103.922 2.53594 103.369C2.54166 102.817 2.54452 102.206 2.54452 101.536V87.9601C2.54452 87.391 2.54166 86.878 2.53594 86.4204C2.53022 85.9628 2.52164 85.5491 2.51115 85.1811C2.49971 84.8912 2.36624 84.7006 2.10979 84.6119L0.034321 83.9589L0.00095336 83.2391C1.44053 83.2839 2.84578 83.3058 4.21576 83.3058C5.13861 83.3058 6.03 83.2839 6.89089 83.2391C7.75177 83.1943 8.53639 83.1714 9.24473 83.1714C11.8884 83.1714 13.8876 83.6881 15.2433 84.7196C16.599 85.7521 17.2768 87.2889 17.2768 89.331C17.2768 91.7307 16.4931 93.5945 14.9258 94.9225C13.3585 96.2505 11.16 96.9141 8.32951 96.9141C7.55157 96.9141 6.71738 96.8645 5.82598 96.7634V101.535V101.537Z" fill="black"/>
<path d="M23.0695 96.4984H29.9661L26.7018 87.2746L23.0695 96.4984ZM28.4092 82.8882L35.8416 103.362C36.121 104.131 36.3746 104.653 36.6034 104.927C36.8322 105.201 37.1582 105.405 37.5825 105.538L39.1565 106.006L39.1898 106.726C37.7274 106.693 36.3717 106.676 35.1218 106.676C33.872 106.676 32.3485 106.694 30.6182 106.726L30.5514 106.006L32.1416 105.538C32.3647 105.46 32.5239 105.374 32.6183 105.279C32.7127 105.184 32.7604 105.037 32.7604 104.835C32.7604 104.612 32.7022 104.32 32.584 103.956C32.4667 103.594 32.3018 103.111 32.0902 102.508L30.5162 98.0218H22.4469L20.6889 102.491C20.4544 103.117 20.2704 103.613 20.1369 103.981C20.0025 104.349 19.9358 104.64 19.9358 104.852C19.9358 105.041 19.9892 105.183 20.095 105.279C20.2008 105.374 20.36 105.454 20.5717 105.522L22.1285 105.974L22.1619 106.727C20.5774 106.694 19.2827 106.677 18.2779 106.677C17.273 106.677 16.1519 106.695 14.9125 106.727L14.8286 106.007L16.5189 105.489C16.9432 105.355 17.2559 105.148 17.4561 104.869C17.6572 104.59 17.8803 104.155 18.1253 103.563L26.6798 83.1399L28.4045 82.8882H28.4092Z" fill="black"/>
<path d="M46.3714 94.4738C47.0521 94.5072 47.6823 94.5234 48.2629 94.5234C50.1934 94.5234 51.6082 94.1134 52.5063 93.2926C53.4044 92.4727 53.8534 91.1866 53.8534 89.4334C53.8534 87.6802 53.4234 86.499 52.5644 85.7172C51.7055 84.9354 50.3603 84.5455 48.5298 84.5455C48.2171 84.5455 47.8825 84.557 47.525 84.5779C47.1675 84.6008 46.7823 84.6342 46.3695 84.679V94.4719L46.3714 94.4738ZM46.3714 101.538C46.3714 102.207 46.3743 102.811 46.38 103.347C46.3857 103.883 46.3933 104.368 46.4048 104.803C46.4162 105.149 46.5611 105.366 46.8405 105.456L48.6986 106.008L48.7491 106.727C47.4211 106.694 46.093 106.678 44.765 106.678C43.437 106.678 42.0308 106.695 40.6131 106.727L40.5464 106.008L42.6056 105.389C42.884 105.311 43.0356 105.138 43.0575 104.869C43.069 104.423 43.0776 103.924 43.0823 103.371C43.088 102.819 43.0909 102.207 43.0909 101.537V87.9614C43.0909 87.3923 43.088 86.8793 43.0823 86.4217C43.0766 85.9641 43.068 85.5504 43.0575 85.1824C43.047 84.8925 42.9126 84.7019 42.6562 84.6132L40.5807 83.9602L40.5473 83.2404C41.9869 83.2852 43.3931 83.3071 44.7669 83.3071C45.0377 83.3071 45.3809 83.2985 45.7984 83.2823C46.216 83.2661 46.7232 83.2461 47.321 83.2232C47.9302 83.2003 48.4373 83.1851 48.8435 83.1727C49.2496 83.1612 49.5709 83.1555 49.8083 83.1555C52.3795 83.1555 54.3081 83.636 55.5942 84.5951C56.8794 85.5551 57.5229 86.9556 57.5229 88.7975C57.5229 90.4602 57.0815 91.8082 56.1986 92.8398C55.3158 93.8722 53.9697 94.6673 52.1602 95.2251C52.8724 96.2966 53.5292 97.332 54.1289 98.3302C54.7286 99.3293 55.2853 100.244 55.8011 101.076C56.3159 101.907 56.7869 102.641 57.2159 103.277C57.6449 103.913 58.0424 104.415 58.4114 104.784C58.6011 104.974 58.7908 105.139 58.9806 105.278C59.1703 105.418 59.3686 105.533 59.5755 105.621C59.7814 105.711 59.9987 105.789 60.2285 105.856C60.4573 105.923 60.7109 105.99 60.9902 106.057L61.0408 106.794C60.2371 106.894 59.5621 106.945 59.0149 106.945C58.5573 106.945 58.1549 106.933 57.8079 106.911C57.4609 106.888 57.152 106.845 56.8803 106.778C56.6086 106.71 56.3626 106.624 56.1414 106.518C55.9212 106.412 55.7029 106.275 55.4884 106.108C55.0241 105.763 54.5694 105.262 54.1222 104.61C53.6751 103.957 53.2118 103.218 52.7303 102.391C52.2498 101.565 51.7484 100.686 51.2278 99.7545C50.7073 98.8221 50.1591 97.9107 49.5823 97.0174C49.4126 96.7495 49.2687 96.5378 49.1495 96.3815C49.0303 96.2251 48.8997 96.1022 48.7596 96.0135C48.6185 95.9239 48.4545 95.8629 48.2676 95.8295C48.0808 95.7952 47.8405 95.7732 47.5469 95.7618L46.3762 95.7284V101.537L46.3714 101.538Z" fill="black"/>
<path d="M70.0931 106.676C68.7203 106.676 67.2025 106.694 65.5399 106.726L65.4731 106.006L67.9509 105.27C68.2302 105.192 68.3752 105.019 68.3856 104.751C68.4085 103.903 68.419 102.82 68.419 101.503V84.7949H62.5101L61.02 89.248L60.3498 89.3653L59.915 83.3725L60.0323 83.239C62.778 83.2838 65.4064 83.3058 67.9175 83.3058H72.3869C74.8866 83.3058 77.5265 83.2838 80.3055 83.239L80.4056 83.3725L79.3512 89.248L78.6819 89.3653L77.6104 84.7949H71.7014V101.503C71.7014 102.82 71.7119 103.902 71.7348 104.751C71.7453 105.019 71.8911 105.192 72.1695 105.27L74.6473 106.006L74.6807 106.726C72.9503 106.693 71.4221 106.676 70.0941 106.676" fill="black"/>
<path d="M88.0379 95.0915V101.536C88.0379 102.854 88.0494 103.959 88.0713 104.851C88.0827 105.152 88.2276 105.343 88.507 105.42L90.3651 106.006L90.4156 106.726C89.0876 106.693 87.7595 106.677 86.4315 106.677C85.1035 106.677 83.7192 106.694 82.2796 106.726L82.2129 106.006L84.2721 105.388C84.562 105.298 84.7126 105.126 84.724 104.868C84.7469 103.964 84.7574 102.855 84.7574 101.537V87.9613C84.7574 86.8449 84.746 85.9182 84.724 85.1822C84.7126 84.8924 84.5791 84.7017 84.3227 84.6131L82.2472 83.96L82.2138 83.2402C83.6534 83.285 85.0367 83.307 86.3657 83.307C87.6947 83.307 89.0275 83.285 90.3336 83.2402L90.4175 83.96L88.5089 84.5463C88.2295 84.6131 88.0846 84.7866 88.0732 85.065C88.0513 85.8686 88.0398 86.8115 88.0398 87.8945V93.5689H100.227V87.8945C100.227 86.8115 100.216 85.8686 100.193 85.065C100.182 84.7866 100.037 84.6131 99.7576 84.5463L97.8995 83.96L97.8661 83.2402C99.2275 83.285 100.572 83.307 101.901 83.307C103.23 83.307 104.59 83.285 105.985 83.2402L106.053 83.96L103.943 84.6131C103.685 84.7027 103.552 84.8924 103.541 85.1822C103.519 85.9182 103.507 86.8449 103.507 87.9613V101.537C103.507 102.855 103.519 103.964 103.541 104.868C103.552 105.125 103.703 105.298 103.993 105.388L106.019 106.006L106.053 106.726C104.58 106.693 103.173 106.677 101.834 106.677C100.495 106.677 99.2056 106.694 97.9328 106.726L97.8661 106.006L99.7576 105.42C100.037 105.343 100.182 105.152 100.193 104.851C100.216 103.959 100.227 102.854 100.227 101.536V95.0915H88.0398H88.0379Z" fill="black"/>
<path d="M1.14215 111.017V114.716H5.41797V111.017H6.57249V119.857H5.41797V115.713H1.14215V119.857H0.000976562V111.017H1.14215Z" fill="black"/>
<path d="M21.1871 115.49C21.1871 117.378 22.211 119.071 24.0072 119.071C25.8033 119.071 26.8405 117.405 26.8405 115.398C26.8405 113.64 25.9225 111.804 24.0205 111.804C22.1186 111.804 21.1871 113.549 21.1871 115.489M28.0475 115.345C28.0475 118.388 26.198 120.001 23.9414 120.001C21.6848 120.001 19.9678 118.192 19.9678 115.515C19.9678 112.839 21.7124 110.873 24.0729 110.873C26.4335 110.873 28.0475 112.722 28.0475 115.346V115.345Z" fill="black"/>
<path d="M41.3123 118.467C41.8243 118.782 42.5717 119.044 43.3582 119.044C44.5261 119.044 45.2077 118.427 45.2077 117.536C45.2077 116.709 44.7358 116.237 43.5422 115.779C42.0998 115.267 41.2074 114.519 41.2074 113.273C41.2074 111.896 42.3486 110.873 44.0666 110.873C44.9713 110.873 45.6282 111.082 46.0209 111.305L45.7063 112.237C45.4175 112.08 44.8273 111.817 44.0275 111.817C42.8205 111.817 42.361 112.539 42.361 113.142C42.361 113.968 42.8987 114.374 44.119 114.847C45.6148 115.425 46.3746 116.147 46.3746 117.444C46.3746 118.808 45.365 119.989 43.2791 119.989C42.4268 119.989 41.4954 119.739 41.0234 119.425L41.3123 118.468V118.467Z" fill="black"/>
<path d="M61.0161 115.385C61.265 115.45 61.5805 115.477 61.9609 115.477C63.3376 115.477 64.1775 114.808 64.1775 113.588C64.1775 112.369 63.3509 111.857 62.0915 111.857C61.5929 111.857 61.2125 111.896 61.0161 111.948V115.385ZM59.875 111.122C60.426 111.03 61.1468 110.951 62.0648 110.951C63.1927 110.951 64.0192 111.213 64.5436 111.685C65.0288 112.105 65.3177 112.748 65.3177 113.535C65.3177 114.321 65.0813 114.965 64.6351 115.423C64.0316 116.066 63.0478 116.394 61.9333 116.394C61.592 116.394 61.2774 116.381 61.0152 116.315V119.857H59.874V111.121L59.875 111.122Z" fill="black"/>
<path d="M79.9332 111.017H78.792V119.857H79.9332V111.017Z" fill="black"/>
<path d="M95.5435 111.988H92.855V111.017H99.3998V111.988H96.698V119.857H95.5435V111.988Z" fill="black"/>
<path d="M115.667 116.185L114.802 113.64C114.604 113.063 114.474 112.538 114.342 112.026H114.316C114.184 112.552 114.04 113.088 113.869 113.627L113.004 116.185H115.666H115.667ZM112.768 117.077L111.85 119.857H110.67L113.673 111.017H115.05L118.067 119.857H116.847L115.903 117.077H112.768Z" fill="black"/>
<path d="M131.306 111.017H132.446V118.9H136.225V119.857H131.306V111.017Z" fill="black"/>
<path d="M150.577 111.017H149.436V119.857H150.577V111.017Z" fill="black"/>
<path d="M166.188 111.988H163.5V111.017H170.044V111.988H167.343V119.857H166.188V111.988Z" fill="black"/>
<path d="M185.301 119.857V116.106L182.508 111.017H183.806L185.052 113.457C185.394 114.126 185.656 114.663 185.931 115.28H185.958C186.207 114.703 186.509 114.126 186.85 113.457L188.122 111.017H189.421L186.456 116.093V119.857H185.301Z" fill="black"/>
<path fill-rule="evenodd" clip-rule="evenodd" d="M153.381 86.6035C155.418 86.6035 157.085 88.27 157.085 90.3073V103.316C157.085 105.353 155.418 107.02 153.381 107.02C151.344 107.02 149.677 105.353 149.677 103.316V90.3073C149.677 88.27 151.344 86.6035 153.381 86.6035Z" fill="#F8AB18"/>
<path fill-rule="evenodd" clip-rule="evenodd" d="M164.264 84.6826C166.896 84.6826 169.05 86.8363 169.05 89.4685V103.316C169.05 105.353 170.716 107.02 172.753 107.02C174.791 107.02 176.457 105.353 176.457 103.316V86.8106C176.457 81.5661 172.167 77.276 166.923 77.276H157.085V58.0124C157.085 55.9751 155.418 54.3086 153.381 54.3086C151.344 54.3086 149.677 55.9751 149.677 58.0124V80.9788C149.677 83.0152 151.344 84.6817 153.381 84.6817H164.264" fill="#F8AB18"/>
<path fill-rule="evenodd" clip-rule="evenodd" d="M124.688 44.2975C120.069 38.2856 109.998 43.0944 112.096 51.6241C113.544 56.5243 117.919 59.9259 122.34 60.1233H127.754C134.049 60.1233 139.199 64.8405 139.199 70.6064C139.199 76.3723 134.049 81.0896 127.754 81.0896H119.636C117.599 81.0896 115.932 82.756 115.932 84.7924V103.315C115.932 105.353 117.599 107.019 119.636 107.019C121.673 107.019 123.34 105.353 123.34 103.315V87.8737H127.754C138.123 87.8737 146.606 80.1038 146.606 70.6055C146.606 61.1071 138.122 53.3382 127.754 53.3382H119.595C118.597 53.2343 118.047 53.118 117.435 52.8024C117.259 52.7118 116.385 52.2437 115.637 51.237C115.333 50.828 114.126 49.2063 114.563 47.1528C114.92 45.4768 116.136 44.532 116.539 44.2498C118.342 42.9857 121.491 42.631 123.215 44.5644C124.4 45.8944 124.614 47.9736 123.838 49.5019C123.672 49.8317 123.065 51.0263 121.753 51.3638C120.378 51.7175 119.001 50.9291 118.307 49.9585C118.14 49.725 117.436 48.7402 117.741 47.5284C117.793 47.3196 118.016 46.5474 118.725 46.066C119.895 45.2699 121.46 45.9068 121.482 45.7943C121.504 45.6827 119.997 44.8314 118.616 45.4511C117.679 45.8715 117.293 46.7219 117.186 46.9669C116.551 48.4265 117.305 49.8279 117.447 50.092C118.021 51.1588 118.936 51.666 119.382 51.8681C121.26 52.7147 123.022 51.8233 123.188 51.7366C124.829 50.8728 125.303 49.2597 125.431 48.825C126.099 46.5484 124.924 44.6598 124.685 44.2965" fill="#F8AB18"/>
</svg>
