<svg width="40" height="40" viewBox="0 0 40 40" fill="none" xmlns="http://www.w3.org/2000/svg">
<g clip-path="url(#clip0_22_3)">
<path d="M25.2008 22.2403H27.1481C27.3266 22.2403 27.4888 22.4188 27.4888 22.5811V34.8488C27.4888 35.4817 28.0081 36.001 28.641 36.001H33.1197C33.7525 36.001 34.2718 35.4817 34.2718 34.8488V22.5811C34.2718 22.4026 34.4503 22.2403 34.6126 22.2403H37.8256C38.3935 22.2403 38.9128 21.8346 38.9777 21.2667L39.7241 16.788C39.8377 16.1065 39.2698 15.4087 38.572 15.4087H34.7911C34.499 15.4087 34.2718 15.1815 34.2718 14.8894V12.0172C34.2718 11.2708 34.6775 10.8651 35.4239 10.8651H38.7992C39.432 10.8651 39.9513 10.3458 39.9513 9.71294V5.15311C39.9513 4.52025 39.432 4.00098 38.7992 4.00098H34.7262C27.2617 4.00098 27.4402 10.0213 27.4402 10.8813V15.0679C27.4402 15.2464 27.2617 15.4087 27.0994 15.4087H25.1521C24.5193 15.4087 24 15.928 24 16.5608V21.0395C24.0649 21.7211 24.568 22.2403 25.2008 22.2403Z" fill="black"/>
</g>
<defs>
<clipPath id="clip0_22_3">
<rect width="16" height="32" fill="white" transform="translate(24 4)"/>
</clipPath>
</defs>
</svg>
