<svg width="40" height="40" viewBox="0 0 40 40" fill="none" xmlns="http://www.w3.org/2000/svg">
<g clip-path="url(#clip0_22_4)">
<path d="M12.4263 36.6846H27.5584C32.2187 36.6846 36.0301 32.8166 36.0301 28.0808V13.2883C35.9546 8.55249 32.1621 4.68457 27.5018 4.68457H12.4263C7.76592 4.68457 3.95459 8.55249 3.95459 13.2883V28.0808C3.95459 32.8166 7.74705 36.6846 12.4263 36.6846ZM29.2942 10.0242C30.3697 10.0242 31.2187 10.8921 31.2187 12.0242C31.2187 13.1563 30.3508 14.0242 29.2942 14.0242C28.2376 14.0242 27.3697 13.1563 27.3697 12.0242C27.3697 10.8921 28.2376 10.0242 29.2942 10.0242ZM19.9546 12.6846C24.2942 12.6846 27.747 16.2883 27.747 20.6846C27.747 25.0808 24.2753 28.6846 19.9546 28.6846C15.6338 28.6846 12.1621 25.0808 12.1621 20.6846C12.1621 16.2883 15.6338 12.6846 19.9546 12.6846Z" fill="black"/>
</g>
<defs>
<clipPath id="clip0_22_4">
<rect width="34" height="33" fill="white" transform="translate(3 4)"/>
</clipPath>
</defs>
</svg>
