<svg width="40" height="40" viewBox="0 0 40 40" fill="none" xmlns="http://www.w3.org/2000/svg">
<g clip-path="url(#clip0_22_6)">
<path d="M7.62062 34.92C11.6301 35.4496 15.8476 35.7144 20.3109 35.7144C24.7743 35.7144 28.9918 35.4496 33.0012 34.92C36.4811 34.4472 39.0154 31.5158 39.0154 28.0359V11.3928C39.0154 7.91294 36.4055 4.98149 33.0012 4.50868C28.9918 3.97913 24.7176 3.71436 20.3109 3.71436C15.9043 3.71436 11.6301 3.97913 7.62062 4.58433C4.21636 5.05714 1.60645 7.93185 1.60645 11.3928V28.0359C1.60645 31.5725 4.21636 34.4472 7.62062 34.92ZM16.0367 16.6694C16.0367 14.8727 18.0414 13.7947 19.5733 14.7404L24.7932 18.0879C26.0036 18.8255 26.0036 20.5654 24.7932 21.3597L19.5733 24.7073C18.0414 25.7096 16.0367 24.5749 16.0367 22.7782V16.6884V16.6694Z" fill="black"/>
</g>
<defs>
<clipPath id="clip0_22_6">
<rect width="39" height="33" fill="white" transform="translate(1 3)"/>
</clipPath>
</defs>
</svg>
