<svg width="112" height="50" viewBox="0 0 112 50" fill="none" xmlns="http://www.w3.org/2000/svg">
<path d="M3.95994 36.6904C4.49066 36.7842 5.01424 36.8308 5.53005 36.8308C6.74376 36.8308 7.66716 36.5094 8.30091 35.8666C8.93401 35.2238 9.25088 34.2404 9.25088 32.9162C9.25088 31.592 8.94956 30.6997 8.34627 30.0769C7.74298 29.454 6.79301 29.1426 5.49571 29.1426C4.98767 29.1426 4.47575 29.1739 3.95994 29.2358V36.6897V36.6904ZM3.95994 41.0016C3.95994 41.4687 3.96189 41.8899 3.96577 42.2639C3.96966 42.6379 3.97549 42.9726 3.98262 43.2687C3.9904 43.4477 4.08889 43.5688 4.27876 43.6307L5.84887 44.1211L5.87155 44.6234C4.77124 44.6002 3.77008 44.5888 2.86741 44.5888C1.96474 44.5888 1.00894 44.6008 0.0453602 44.6234L0 44.1211L1.39969 43.6892C1.59668 43.6267 1.69906 43.5062 1.70684 43.3266C1.71461 43.0151 1.7198 42.6665 1.72369 42.2805C1.72757 41.8953 1.72952 41.4687 1.72952 41.0009V31.5255C1.72952 31.1282 1.72757 30.7702 1.72369 30.4508C1.7198 30.1314 1.71397 29.8426 1.70684 29.5858C1.69906 29.3835 1.60834 29.2504 1.43403 29.1885L0.0233281 28.7327L0.000648002 28.2303C0.979132 28.2616 1.93429 28.2769 2.86547 28.2769C3.49273 28.2769 4.09861 28.2616 4.68376 28.2303C5.26891 28.1991 5.80221 28.1831 6.28368 28.1831C8.08059 28.1831 9.43945 28.5438 10.3609 29.2637C11.2824 29.9844 11.7431 31.057 11.7431 32.4823C11.7431 34.1572 11.2104 35.4581 10.1451 36.385C9.07981 37.3119 7.58552 37.775 5.6616 37.775C5.13283 37.775 4.56582 37.7404 3.95994 37.6699V41.0003V41.0016Z" fill="black"/>
<path d="M15.7391 37.5693H20.3933L18.1904 31.2082L15.7391 37.5693ZM19.3427 28.1831L24.3585 42.3025C24.547 42.8331 24.7182 43.1934 24.8726 43.3821C25.027 43.5708 25.247 43.7115 25.5333 43.8036L26.5955 44.1264L26.6181 44.6228C25.6311 44.5998 24.7162 44.5886 23.8728 44.5886C23.0293 44.5886 22.0012 44.6004 20.8334 44.6228L20.7884 44.1264L21.8615 43.8036C22.0121 43.7497 22.1195 43.6905 22.1832 43.6247C22.2469 43.5596 22.2791 43.4577 22.2791 43.319C22.2791 43.1651 22.2399 42.9633 22.1601 42.7128C22.0809 42.463 21.9696 42.1296 21.8268 41.7141L20.7646 38.62H15.319L14.1326 41.7023C13.9743 42.1336 13.8502 42.4761 13.7601 42.7299C13.6694 42.9837 13.6243 43.1842 13.6243 43.3302C13.6243 43.461 13.6604 43.559 13.7318 43.6247C13.8032 43.6905 13.9106 43.7457 14.0535 43.7924L15.1041 44.104L15.1266 44.6234C14.0573 44.6004 13.1836 44.5893 12.5055 44.5893C11.8274 44.5893 11.0707 44.6011 10.2344 44.6234L10.1777 44.127L11.3184 43.7694C11.6048 43.6773 11.8158 43.5347 11.9509 43.342C12.0866 43.15 12.2372 42.8496 12.4025 42.4413L18.1756 28.3567L19.3395 28.1831H19.3427Z" fill="black"/>
<path d="M31.4066 36.005C31.8746 36.0281 32.3079 36.0393 32.7071 36.0393C34.0346 36.0393 35.0074 35.756 35.6249 35.1887C36.2424 34.6221 36.5511 33.7333 36.5511 32.5216C36.5511 31.31 36.2555 30.4937 35.6649 29.9534C35.0742 29.4132 34.1493 29.1437 32.8907 29.1437C32.6757 29.1437 32.4456 29.1516 32.1998 29.1661C31.954 29.1819 31.6891 29.205 31.4053 29.236V36.0037L31.4066 36.005ZM31.4066 40.8871C31.4066 41.3496 31.4086 41.7667 31.4125 42.1369C31.4164 42.5072 31.4217 42.8426 31.4295 43.143C31.4374 43.3822 31.537 43.5324 31.7291 43.5943L33.0067 43.9758L33.0415 44.4732C32.1283 44.4502 31.2152 44.439 30.302 44.439C29.3889 44.439 28.422 44.4508 27.4473 44.4732L27.4014 43.9758L28.8173 43.5482C29.0087 43.4942 29.1129 43.3749 29.128 43.1891C29.1359 42.8808 29.1418 42.5355 29.1451 42.1534C29.149 41.7719 29.151 41.3496 29.151 40.8864V31.5044C29.151 31.111 29.149 30.7566 29.1451 30.4403C29.1411 30.1241 29.1352 29.8381 29.128 29.5838C29.1208 29.3835 29.0284 29.2518 28.852 29.1905L27.425 28.7392L27.402 28.2417C28.3919 28.2727 29.3587 28.2879 30.3034 28.2879C30.4895 28.2879 30.7255 28.2819 31.0126 28.2707C31.2997 28.2595 31.6485 28.2457 32.0595 28.2299C32.4784 28.2141 32.8271 28.2035 33.1064 28.195C33.3856 28.1871 33.6065 28.1831 33.7697 28.1831C35.5377 28.1831 36.8638 28.5152 37.7481 29.178C38.6317 29.8414 39.0742 30.8093 39.0742 32.0822C39.0742 33.2312 38.7707 34.1628 38.1637 34.8757C37.5567 35.5893 36.6311 36.1387 35.3869 36.5242C35.8766 37.2647 36.3282 37.9802 36.7406 38.6701C37.1529 39.3605 37.5357 39.9924 37.8903 40.5675C38.2443 41.1421 38.5682 41.6494 38.8631 42.0888C39.1581 42.5283 39.4315 42.8755 39.6852 43.1305C39.8156 43.2616 39.9461 43.3756 40.0765 43.4718C40.207 43.5686 40.3433 43.6477 40.4855 43.709C40.6271 43.7709 40.7766 43.8249 40.9346 43.871C41.0919 43.9171 41.2663 43.9639 41.4583 44.01L41.4931 44.5193C40.9405 44.5885 40.4764 44.6234 40.1001 44.6234C39.7855 44.6234 39.5088 44.6155 39.2702 44.6004C39.0316 44.5846 38.8192 44.5543 38.6324 44.5081C38.4456 44.4614 38.2764 44.4021 38.1244 44.3283C37.9729 44.2551 37.8228 44.1603 37.6753 44.045C37.3561 43.8065 37.0434 43.4606 36.736 43.0099C36.4285 42.5586 36.11 42.048 35.7789 41.4768C35.4485 40.9055 35.1037 40.2981 34.7458 39.6544C34.3879 39.01 34.011 38.3802 33.6144 37.7628C33.4977 37.5777 33.3987 37.4314 33.3168 37.3234C33.2348 37.2153 33.145 37.1303 33.0487 37.069C32.9517 37.0071 32.8389 36.9649 32.7104 36.9419C32.5819 36.9182 32.4168 36.903 32.2149 36.8951L31.4099 36.872V40.8864L31.4066 40.8871Z" fill="black"/>
<path d="M47.7086 44.5887C46.7645 44.5887 45.7207 44.6008 44.5773 44.6234L44.5314 44.1196L46.2354 43.6044C46.4275 43.5497 46.5272 43.4283 46.5344 43.2407C46.5501 42.6475 46.5573 41.8894 46.5573 40.9671V29.2722H42.4936L41.4689 32.3893L41.008 32.4714L40.709 28.2765L40.7896 28.1831C42.6779 28.2145 44.4855 28.2298 46.2124 28.2298H49.2861C51.0052 28.2298 52.8207 28.2145 54.7319 28.1831L54.8007 28.2765L54.0756 32.3893L53.6153 32.4714L52.8784 29.2722H48.8147V40.9671C48.8147 41.8894 48.8219 42.6468 48.8376 43.2407C48.8448 43.4283 48.9452 43.5497 49.1366 43.6044L50.8406 44.1196L50.8636 44.6234C49.6736 44.6001 48.6226 44.5887 47.7093 44.5887" fill="black"/>
<path d="M59.6005 36.479V40.9904C59.6005 41.9126 59.6084 42.6861 59.6236 43.3108C59.6314 43.5216 59.7314 43.6551 59.924 43.7092L61.2054 44.1196L61.2402 44.6234C60.3244 44.6001 59.4086 44.5887 58.4927 44.5887C57.5769 44.5887 56.6223 44.6008 55.6295 44.6234L55.5835 44.1196L57.0036 43.6865C57.2035 43.6237 57.3073 43.5029 57.3152 43.3228C57.331 42.6901 57.3382 41.9133 57.3382 40.991V31.4879C57.3382 30.7064 57.3304 30.0577 57.3152 29.5425C57.3073 29.3396 57.2153 29.2062 57.0384 29.1441L55.6072 28.687L55.5842 28.1831C56.5769 28.2145 57.5309 28.2298 58.4474 28.2298C59.3639 28.2298 60.283 28.2145 61.1837 28.1831L61.2416 28.687L59.9253 29.0974C59.7327 29.1441 59.6328 29.2656 59.6249 29.4604C59.6098 30.023 59.6019 30.683 59.6019 31.4411V35.4133H68.0061V31.4411C68.0061 30.683 67.9989 30.023 67.9831 29.4604C67.9752 29.2656 67.8753 29.1441 67.6826 29.0974L66.4013 28.687L66.3783 28.1831C67.3171 28.2145 68.2441 28.2298 69.1606 28.2298C70.0771 28.2298 71.0153 28.2145 71.9771 28.1831L72.0238 28.687L70.5689 29.1441C70.3914 29.2068 70.2993 29.3396 70.2921 29.5425C70.2763 30.0577 70.2684 30.7064 70.2684 31.4879V40.991C70.2684 41.9133 70.2763 42.6901 70.2921 43.3228C70.2993 43.5023 70.4032 43.6237 70.6037 43.6865L72.0008 44.1196L72.0238 44.6234C71.0081 44.6001 70.0383 44.5887 69.1146 44.5887C68.1909 44.5887 67.302 44.6008 66.4243 44.6234L66.3783 44.1196L67.6826 43.7092C67.8753 43.6551 67.9752 43.5216 67.9831 43.3108C67.9989 42.6861 68.0061 41.9126 68.0061 40.9904V36.479H59.6019H59.6005Z" fill="black"/>
<path d="M0.477939 46.1885V47.7329H2.26323V46.1885H2.74527V49.8797H2.26323V48.1493H0.477939V49.8797H0.00146484V46.1885H0.477939Z" fill="black"/>
<path d="M11.2791 48.1163C11.2791 48.9048 11.7066 49.6114 12.4566 49.6114C13.2065 49.6114 13.6396 48.916 13.6396 48.0781C13.6396 47.344 13.2563 46.5774 12.4622 46.5774C11.668 46.5774 11.2791 47.3058 11.2791 48.1159M14.1436 48.0558C14.1436 49.3264 13.3713 49.9999 12.4291 49.9999C11.4869 49.9999 10.77 49.2444 10.77 48.127C10.77 47.0097 11.4985 46.1885 12.4841 46.1885C13.4696 46.1885 14.1436 46.9607 14.1436 48.0562V48.0558Z" fill="black"/>
<path d="M22.2876 49.3594C22.5014 49.4908 22.8134 49.6002 23.1418 49.6002C23.6295 49.6002 23.9141 49.3427 23.9141 48.9705C23.9141 48.6254 23.717 48.4283 23.2187 48.2369C22.6164 48.0231 22.2438 47.711 22.2438 47.1908C22.2438 46.6156 22.7203 46.1885 23.4376 46.1885C23.8153 46.1885 24.0896 46.2761 24.2536 46.3692L24.1222 46.7581C24.0016 46.6924 23.7552 46.583 23.4213 46.583C22.9173 46.583 22.7255 46.8843 22.7255 47.1359C22.7255 47.481 22.95 47.6505 23.4595 47.848C24.084 48.0892 24.4013 48.3905 24.4013 48.9323C24.4013 49.5019 23.9797 49.9947 23.1088 49.9947C22.7529 49.9947 22.364 49.8904 22.167 49.7595L22.2876 49.3598V49.3594Z" fill="black"/>
<path d="M32.9022 48.0398C33.0061 48.0669 33.1378 48.0781 33.2966 48.0781C33.8714 48.0781 34.2221 47.7986 34.2221 47.2895C34.2221 46.7804 33.877 46.5666 33.3512 46.5666C33.143 46.5666 32.9842 46.5829 32.9022 46.6048V48.0398ZM32.4257 46.2597C32.6558 46.2215 32.9567 46.1885 33.34 46.1885C33.8109 46.1885 34.156 46.2979 34.375 46.495C34.5776 46.6701 34.6982 46.9388 34.6982 47.2672C34.6982 47.5956 34.5995 47.8643 34.4132 48.0558C34.1612 48.3241 33.7504 48.461 33.2851 48.461C33.1426 48.461 33.0112 48.4554 32.9018 48.4279V49.9067H32.4253V46.2593L32.4257 46.2597Z" fill="black"/>
<path d="M43.1986 46.1885H42.7222V49.8797H43.1986V46.1885Z" fill="black"/>
<path d="M52.3471 46.5941H51.2246V46.1885H53.9573V46.5941H52.8292V49.8797H52.3471V46.5941Z" fill="black"/>
<path d="M64.0671 48.3463L63.7057 47.2839C63.6233 47.0427 63.5687 46.8238 63.5138 46.61H63.5026C63.4477 46.8294 63.3876 47.0535 63.3164 47.2784L62.9549 48.3463H64.0667H64.0671ZM62.8566 48.7189L62.4733 49.8797H61.9805L63.2343 46.1885H63.8091L65.069 49.8797H64.5595L64.1654 48.7189H62.8566Z" fill="black"/>
<path d="M73.0933 46.1885H73.5693V49.48H75.1468V49.8797H73.0933V46.1885Z" fill="black"/>
<path d="M83.6474 46.1885H83.1709V49.8797H83.6474V46.1885Z" fill="black"/>
<path d="M92.7949 46.5941H91.6724V46.1885H94.405V46.5941H93.2769V49.8797H92.7949V46.5941Z" fill="black"/>
<path d="M103.596 49.8797V48.3133L102.429 46.1885H102.971L103.492 47.2075C103.634 47.4865 103.744 47.711 103.859 47.9686H103.87C103.974 47.7278 104.1 47.4865 104.242 47.2075L104.773 46.1885H105.316L104.078 48.3081V49.8797H103.596Z" fill="black"/>
<path d="M101.224 0H105.055L111.972 14.0104H104.08V44.3273H102.554V14.0104H98.9364V18.5813C99.7732 18.686 100.42 19.3997 100.42 20.2647C100.42 21.2017 99.6609 21.9612 98.7235 21.9612C97.7861 21.9612 97.027 21.2017 97.027 20.2647C97.027 19.3997 97.6742 18.686 98.5105 18.5813V14.0104H94.6621L101.224 0Z" fill="#F8AB18"/>
<path fill-rule="evenodd" clip-rule="evenodd" d="M91.4429 36.1597C92.2936 36.1597 92.9894 36.8555 92.9894 37.7061V43.1376C92.9894 43.9883 92.2936 44.6841 91.4429 44.6841C90.5923 44.6841 89.8965 43.9883 89.8965 43.1376V37.7061C89.8965 36.8555 90.5923 36.1597 91.4429 36.1597Z" fill="#F8AB18"/>
<path fill-rule="evenodd" clip-rule="evenodd" d="M95.9868 35.3579C97.0858 35.3579 97.985 36.2571 97.985 37.3561V43.1379C97.985 43.9886 98.6808 44.6844 99.5315 44.6844C100.382 44.6844 101.078 43.9886 101.078 43.1379V36.2464C101.078 34.0566 99.2867 32.2654 97.0969 32.2654H92.9894V24.2222C92.9894 23.3716 92.2936 22.6758 91.4429 22.6758C90.5923 22.6758 89.8965 23.3716 89.8965 24.2222V33.8114C89.8965 34.6617 90.5923 35.3575 91.4429 35.3575H95.9868" fill="#F8AB18"/>
<path fill-rule="evenodd" clip-rule="evenodd" d="M79.462 18.4947C77.5334 15.9846 73.3283 17.9924 74.2045 21.5538C74.8091 23.5998 76.6358 25.0201 78.4816 25.1025H80.7422C83.3705 25.1025 85.5208 27.0721 85.5208 29.4795C85.5208 31.887 83.3705 33.8566 80.7422 33.8566H77.3527C76.502 33.8566 75.8062 34.5524 75.8062 35.4026V43.1365C75.8062 43.9871 76.502 44.6829 77.3527 44.6829C78.2033 44.6829 78.8991 43.9871 78.8991 43.1365V36.6891H80.7422C85.0714 36.6891 88.6133 33.445 88.6133 29.4791C88.6133 25.5133 85.071 22.2695 80.7422 22.2695H77.3356C76.9188 22.2261 76.6891 22.1776 76.4336 22.0458C76.3603 22.008 75.9953 21.8126 75.6828 21.3922C75.5559 21.2214 75.0519 20.5443 75.2346 19.6869C75.3835 18.9871 75.8914 18.5927 76.0594 18.4748C76.8125 17.947 78.1273 17.7989 78.847 18.6062C79.3418 19.1615 79.4313 20.0297 79.1073 20.6677C79.0377 20.8055 78.7845 21.3042 78.2368 21.4451C77.6624 21.5928 77.0876 21.2636 76.7978 20.8584C76.7281 20.7609 76.434 20.3497 76.5614 19.8438C76.5832 19.7566 76.6764 19.4342 76.9721 19.2331C77.461 18.9008 78.1142 19.1667 78.1233 19.1197C78.1325 19.0731 77.5036 18.7177 76.9268 18.9764C76.5355 19.1519 76.3743 19.507 76.3297 19.6093C76.0646 20.2187 76.3794 20.8039 76.4388 20.9141C76.6784 21.3596 77.0605 21.5713 77.2468 21.6557C78.0306 22.0092 78.7666 21.637 78.8359 21.6008C79.5209 21.2401 79.7187 20.5666 79.7721 20.3851C80.0511 19.4346 79.5607 18.646 79.4608 18.4943" fill="#F8AB18"/>
</svg>
