<svg width="97" height="115" viewBox="0 0 97 115" fill="none" xmlns="http://www.w3.org/2000/svg">
<path d="M69.4837 0.463989H79.2912L97.0004 36.3358H76.7943V113.958H72.8888V36.3358H63.6255V48.039C65.7678 48.307 67.425 50.1344 67.425 52.3491C67.425 54.7482 65.4804 56.6928 63.0803 56.6928C60.6801 56.6928 58.7366 54.7482 58.7366 52.3491C58.7366 50.1344 60.3937 48.307 62.535 48.039V36.3358H52.6816L69.4837 0.463989Z" fill="#F8AB18" fill-opacity="0.5"/>
<path fill-rule="evenodd" clip-rule="evenodd" d="M44.44 93.0447C46.6179 93.0447 48.3994 94.8262 48.3994 97.0042V110.911C48.3994 113.089 46.6179 114.87 44.44 114.87C42.262 114.87 40.4805 113.089 40.4805 110.911V97.0042C40.4805 94.8262 42.262 93.0447 44.44 93.0447Z" fill="#F8AB18" fill-opacity="0.5"/>
<path fill-rule="evenodd" clip-rule="evenodd" d="M56.0738 90.9923C58.8878 90.9923 61.1901 93.2947 61.1901 96.1086V110.912C61.1901 113.09 62.9716 114.872 65.1496 114.872C67.3275 114.872 69.1091 113.09 69.1091 110.912V93.2671C69.1091 87.6607 64.5228 83.0744 58.9163 83.0744H48.3994V62.481C48.3994 60.303 46.6179 58.5215 44.44 58.5215C42.262 58.5215 40.4805 60.303 40.4805 62.481V87.0329C40.4805 89.2098 42.262 90.9913 44.44 90.9913H56.0738" fill="#F8AB18" fill-opacity="0.5"/>
<path fill-rule="evenodd" clip-rule="evenodd" d="M13.7647 47.819C8.8268 41.3921 -1.93975 46.5328 0.303454 55.6514C1.85158 60.8899 6.52856 64.5263 11.2545 64.7373H17.0424C23.772 64.7373 29.2775 69.7802 29.2775 75.9441C29.2775 82.1081 23.772 87.1509 17.0424 87.1509H8.36409C6.18612 87.1509 4.40461 88.9325 4.40461 91.1094V110.911C4.40461 113.089 6.18612 114.87 8.36409 114.87C10.5421 114.87 12.3236 113.089 12.3236 110.911V94.4034H17.0424C28.1269 94.4034 37.1955 86.0971 37.1955 75.9431C37.1955 65.7891 28.1259 57.4838 17.0424 57.4838H8.32026C7.25319 57.3727 6.66513 57.2484 6.01083 56.9111C5.8233 56.8142 4.88872 56.3138 4.08867 55.2376C3.76355 54.8003 2.47328 53.0667 2.94108 50.8714C3.32225 49.0797 4.62271 48.0697 5.0528 47.7681C6.98108 46.4166 10.3474 46.0375 12.1901 48.1044C13.4569 49.5261 13.6862 51.7489 12.8566 53.3827C12.6783 53.7353 12.0301 55.0123 10.6277 55.3731C9.15701 55.7512 7.68532 54.9084 6.94336 53.8709C6.765 53.6212 6.01184 52.5684 6.33798 51.273C6.39403 51.0498 6.63251 50.2243 7.38976 49.7096C8.6413 48.8586 10.3138 49.5394 10.3372 49.4191C10.3607 49.2999 8.75037 48.3897 7.27358 49.0522C6.27174 49.5017 5.85897 50.4108 5.74482 50.6727C5.06605 52.2331 5.87222 53.7312 6.02408 54.0135C6.63762 55.154 7.61602 55.6962 8.09299 55.9123C10.0997 56.8173 11.9842 55.8644 12.1615 55.7716C13.9155 54.8482 14.4221 53.1238 14.5586 52.6591C15.2731 50.2253 14.0174 48.2063 13.7616 47.818" fill="#F8AB18" fill-opacity="0.5"/>
</svg>
