<svg width="31" height="30" viewBox="0 0 31 30" fill="none" xmlns="http://www.w3.org/2000/svg">
<path d="M18.067 0.000586591C21.0193 0.000586591 23.9722 0.000586591 26.9245 0.000586591C26.9867 0.022877 27.0477 0.0498602 27.111 0.0674579C28.5505 0.459887 29.4838 1.3691 29.8856 2.80684C29.966 3.09427 29.9853 3.39929 30.0334 3.69611V11.2631C30.0182 11.3476 29.9941 11.4321 29.9883 11.5171C29.922 12.4439 29.5454 13.2311 28.8937 13.8828C23.9077 18.8736 18.9228 23.8649 13.9292 28.8479C12.3823 30.3913 10.0688 30.3801 8.52433 28.8403C6.0542 26.3772 3.587 23.9118 1.12919 21.437C0.857595 21.1636 0.610054 20.8439 0.434077 20.5031C0.239916 20.1277 0.140782 19.703 0 19.2994C0 18.9281 0 18.5562 0 18.1849C0.0187709 18.1298 0.0434077 18.0764 0.0545529 18.0201C0.202374 17.2587 0.560194 16.6105 1.10631 16.0644C6.07356 11.0959 11.0373 6.12401 16.0186 1.16908C16.3905 0.798936 16.8756 0.534384 17.3314 0.258686C17.549 0.126704 17.8206 0.0838825 18.0676 0L18.067 0.000586591ZM22.5104 5.61191C22.511 6.65311 23.3528 7.49311 24.3898 7.48783C25.4123 7.48255 26.2488 6.64783 26.2581 5.62306C26.2681 4.58655 25.4293 3.74303 24.3863 3.7401C23.3393 3.73717 22.5092 4.56485 22.5104 5.61133V5.61191Z" fill="#F8AB18"/>
</svg>
