<svg width="27" height="30" viewBox="0 0 27 30" fill="none" xmlns="http://www.w3.org/2000/svg">
<path d="M13.5 0C6.075 0 0 6.04478 0 13.4328V16.791C0 19.9254 2.475 22.3881 5.625 22.3881C6.3 22.3881 6.75 21.9403 6.75 21.2687V12.3134C6.75 11.6418 6.3 11.194 5.625 11.194C4.3875 11.194 3.2625 11.6418 2.3625 12.3134C2.925 6.71642 7.7625 2.23881 13.5 2.23881C19.2375 2.23881 24.075 6.60448 24.6375 12.3134C23.7375 11.6418 22.6125 11.194 21.375 11.194C20.7 11.194 20.25 11.6418 20.25 12.3134V21.2687C20.25 21.9403 20.7 22.3881 21.375 22.3881C22.05 22.3881 22.8375 22.2761 23.4 21.9403C22.1625 24.1791 20.25 25.9701 17.8875 26.9776C17.6625 25.6343 16.5375 24.5149 15.075 24.5149C13.6125 24.5149 12.375 25.7463 12.375 27.2015C12.375 27.9851 12.7125 28.7687 13.3875 29.3284C13.95 29.7761 14.5125 30 15.1875 30C15.3 30 15.525 30 15.6375 30C22.05 29.1045 27 23.3955 27 16.791V13.4328C27 6.04478 20.925 0 13.5 0Z" fill="#F8AB18"/>
<rect x="8" y="14" width="10" height="10" rx="5" fill="black"/>
</svg>
