<svg width="32" height="30" viewBox="0 0 32 30" fill="none" xmlns="http://www.w3.org/2000/svg">
<path d="M17.6809 0.00444163C18.7274 -0.0474711 19.7308 0.355674 20.6912 1.21388L27.6564 7.5193L28.4032 6.71334L31.0619 9.12038L27.0107 13.5951L24.351 11.1703L25.0121 10.4402L18.0098 4.10062C17.1992 3.37811 16.1935 3.04659 14.992 3.10606C14.1955 3.14549 13.4296 3.33277 12.6953 3.66724C14.2593 1.31277 15.9211 0.091839 17.6809 0.00444163Z" fill="black"/>
<path d="M22.6949 2.67089L25.8965 5.56934L26.4559 4.95142L23.2543 2.05298L22.6949 2.67089Z" fill="black"/>
<path d="M9.68583 16.5688L1.17773 25.5537L5.25912 29.2487L13.371 19.8926L9.68583 16.5688Z" fill="black"/>
<path d="M17.9223 14.6394L22.8971 8.90007L19.6769 5.98474L14.4609 11.5177L17.9223 14.6394Z" fill="black"/>
<path d="M27.3134 24.7199C27.4117 24.2976 27.4504 23.8787 27.4297 23.4624C27.369 22.2379 26.8893 21.2184 25.9903 20.4049C25.0917 19.5913 24.0242 19.2151 22.7872 19.2766C22.3712 19.2973 21.9576 19.3715 21.5465 19.499L17.1474 15.5336L17.1668 15.5113L13.6696 12.3571L13.664 12.363L9.05823 8.19321C9.1453 7.78382 9.17816 7.37082 9.15779 6.95453C9.09569 5.706 8.61533 4.67497 7.71672 3.86113C6.8181 3.04761 5.75619 2.67108 4.53164 2.73186C4.10353 2.75322 3.68461 2.83372 3.27424 2.97303L6.83157 6.19358L3.67968 9.69375L0.12169 6.47352C0.0237784 6.89572 -0.0153204 7.31497 0.005379 7.73092C0.0661629 8.9558 0.545863 9.975 1.44481 10.7885C2.34342 11.602 3.40533 11.9786 4.62988 11.9175C5.08198 11.8951 5.52455 11.8077 5.95793 11.6546L7.50184 13.0523L7.50512 13.0487L17.5578 22.115L17.5391 22.1357L18.4088 22.9266C18.3 23.3731 18.2563 23.8163 18.278 24.2562C18.3394 25.493 18.8168 26.5184 19.7092 27.3322C20.6022 28.1461 21.6668 28.5223 22.9035 28.4609C23.3198 28.4402 23.7331 28.3597 24.1431 28.2203L20.5858 24.9998L23.7554 21.4986L27.3134 24.7199Z" fill="#F8AB18"/>
</svg>
