<svg width="30" height="27" viewBox="0 0 30 27" fill="none" xmlns="http://www.w3.org/2000/svg">
<path d="M22.5 11.2579C18.375 11.2579 15 14.6329 15 18.7579C15 22.8829 18.375 26.2579 22.5 26.2579C26.625 26.2579 30 22.8829 30 18.7579C30 14.6329 26.625 11.2579 22.5 11.2579ZM25.9688 17.5391L22.2188 21.2891C22.0313 21.4766 21.8438 21.5704 21.5625 21.5704C21.2812 21.5704 21.0937 21.4766 20.9062 21.2891L19.0312 19.4141C18.6562 19.0391 18.6562 18.4766 19.0312 18.1016C19.4062 17.7266 19.9688 17.7266 20.3438 18.1016L21.5625 19.3204L24.6562 16.2266C25.0312 15.8516 25.5938 15.8516 25.9688 16.2266C26.3438 16.6016 26.3438 17.1641 25.9688 17.5391Z" fill="black"/>
<path d="M0.9375 13.1329V22.5079C0.9375 23.0704 1.3125 23.4454 1.875 23.4454H14.4375C13.5938 22.0391 13.125 20.4454 13.125 18.7579C13.125 16.6016 13.875 14.7266 15 13.1329H0.9375Z" fill="#F8AB18"/>
<path d="M21.5625 4.69536H19.5C19.7812 3.75786 19.7812 2.72661 19.3125 1.88286C18.75 0.757861 17.7188 0.101611 16.5 0.00786141C15.0938 -0.0858886 13.7812 0.664111 12.9375 1.97661L11.25 4.69536L9.5625 1.97661C8.8125 0.664111 7.40625 -0.0858886 6 0.00786141C4.78125 0.101611 3.75 0.757861 3.1875 1.88286C2.71875 2.72661 2.71875 3.75786 3 4.69536H0.9375C0.375 4.69536 0 5.07036 0 5.63286V10.3204C0 10.8829 0.375 11.2579 0.9375 11.2579H16.875C18.4688 10.1329 20.3438 9.38286 22.5 9.38286V5.63286C22.5 5.07036 22.125 4.69536 21.5625 4.69536ZM5.15625 4.69536L5.0625 4.60161C4.6875 3.94536 4.59375 3.28911 4.875 2.72661C5.15625 2.07036 5.8125 1.88286 6.09375 1.88286H6.1875C6.75 1.88286 7.5 2.16411 7.96875 2.91411L9 4.69536H5.15625ZM17.4375 4.60161C17.4375 4.69536 17.3438 4.69536 17.3438 4.69536H13.5L14.5312 2.91411C15 2.16411 15.75 1.88286 16.3125 1.88286H16.4062C16.6875 1.88286 17.3438 2.07036 17.625 2.72661C17.9062 3.28911 17.8125 3.94536 17.4375 4.60161Z" fill="#F8AB18"/>
</svg>
