<svg width="32" height="23" viewBox="0 0 32 23" fill="none" xmlns="http://www.w3.org/2000/svg">
<path d="M9.57227 5.35718V8.57146L11.7151 9.64289" stroke="black" stroke-width="2" stroke-miterlimit="10" stroke-linecap="round" stroke-linejoin="round"/>
<path d="M24.572 11.7856V7.49993C24.572 6.9085 25.052 6.4285 25.6434 6.4285H28.7045L28.3423 5.58422C28.0048 4.79672 27.2302 4.28564 26.3731 4.28564H19.2148V19.2856H22.4827C22.3927 18.8421 22.4098 18.361 22.5759 17.8649C22.8566 17.0249 23.5777 16.3606 24.4381 16.1528C26.2081 15.7242 27.7863 17.0528 27.7863 18.7499C27.7863 18.9331 27.767 19.1121 27.7327 19.2856H31.0006V11.7856H24.572Z" fill="#F8AB18"/>
<path d="M25.1063 21.4287C26.5856 21.4287 27.7849 20.2294 27.7849 18.7501C27.7849 17.2708 26.5856 16.0715 25.1063 16.0715C23.627 16.0715 22.4277 17.2708 22.4277 18.7501C22.4277 20.2294 23.627 21.4287 25.1063 21.4287Z" stroke="black" stroke-width="2" stroke-miterlimit="10"/>
<path d="M7.96373 21.4287C9.44306 21.4287 10.6423 20.2294 10.6423 18.7501C10.6423 17.2708 9.44306 16.0715 7.96373 16.0715C6.48439 16.0715 5.28516 17.2708 5.28516 18.7501C5.28516 20.2294 6.48439 21.4287 7.96373 21.4287Z" stroke="black" stroke-width="2" stroke-miterlimit="10"/>
<path d="M29.9277 18.2144H30.9992" stroke="#F8AB18" stroke-width="2" stroke-miterlimit="10" stroke-linecap="round"/>
<path d="M1 18.2143H3.14286" stroke="#F8AB18" stroke-width="2" stroke-miterlimit="10" stroke-linecap="round"/>
<path d="M17.0714 0H3.14286C1.95893 0 1 0.958929 1 2.14286V19.2857H5.33929C5.24929 18.8421 5.26643 18.3611 5.4325 17.865C5.71321 17.025 6.43429 16.3607 7.29571 16.1529C9.06464 15.7243 10.6429 17.0529 10.6429 18.75C10.6429 18.9332 10.6236 19.1121 10.5893 19.2857H19.2143V2.14286C19.2143 0.958929 18.2554 0 17.0714 0ZM9.57143 13.9286C6.61321 13.9286 4.21429 11.5296 4.21429 8.57143C4.21429 5.61321 6.61321 3.21429 9.57143 3.21429C12.5296 3.21429 14.9286 5.61321 14.9286 8.57143C14.9286 11.5296 12.5296 13.9286 9.57143 13.9286Z" fill="#F8AB18"/>
</svg>
