<svg width="24" height="30" viewBox="0 0 24 30" fill="none" xmlns="http://www.w3.org/2000/svg">
<path d="M23.125 30H14.375C14.0294 30 13.75 29.72 13.75 29.375V0.625C13.75 0.28 14.0294 0 14.375 0H23.125C23.4706 0 23.75 0.28 23.75 0.625V29.375C23.75 29.72 23.4706 30 23.125 30ZM15 28.75H22.5V1.25H15V28.75Z" fill="#F8AB18"/>
<rect x="14" y="1" width="9" height="28" fill="#F8AB18"/>
<path d="M17.5 5H14.375V6.25H17.5V5Z" fill="black"/>
<path d="M17.5 8.75H14.375V10H17.5V8.75Z" fill="black"/>
<path d="M17.5 12.5H14.375V13.75H17.5V12.5Z" fill="black"/>
<path d="M17.5 16.25H14.375V17.5H17.5V16.25Z" fill="black"/>
<path d="M17.5 20H14.375V21.25H17.5V20Z" fill="black"/>
<path d="M17.5 23.75H14.375V25H17.5V23.75Z" fill="black"/>
<path d="M5.625 28.7501H3.125C1.40188 28.7501 0 27.3482 0 25.6251V7.50006C0 7.37693 0.0368751 7.25568 0.105 7.15318L3.855 1.52818C4.08687 1.18006 4.66313 1.18006 4.895 1.52818L8.645 7.15318C8.71313 7.25568 8.75 7.37693 8.75 7.50006V25.6251C8.75 27.3482 7.34812 28.7501 5.625 28.7501ZM1.25 7.68943V25.6251C1.25 26.6588 2.09125 27.5001 3.125 27.5001H5.625C6.65875 27.5001 7.5 26.6588 7.5 25.6251V7.68943L4.375 3.00193L1.25 7.68943Z" fill="#F8AB18"/>
<path d="M8.125 25H0.625C0.279375 25 0 24.72 0 24.375C0 24.03 0.279375 23.75 0.625 23.75H8.125C8.47062 23.75 8.75 24.03 8.75 24.375C8.75 24.72 8.47062 25 8.125 25Z" fill="#F8AB18"/>
<path d="M8.125 22.5H0.625C0.279375 22.5 0 22.22 0 21.875C0 21.53 0.279375 21.25 0.625 21.25H8.125C8.47062 21.25 8.75 21.53 8.75 21.875C8.75 22.22 8.47062 22.5 8.125 22.5Z" fill="#F8AB18"/>
<path d="M3.125 22.5C2.77938 22.5 2.5 22.22 2.5 21.875V10C2.5 9.655 2.77938 9.375 3.125 9.375C3.47062 9.375 3.75 9.655 3.75 10V21.875C3.75 22.22 3.47062 22.5 3.125 22.5Z" fill="#F8AB18"/>
<path d="M5.625 22.5C5.27938 22.5 5 22.22 5 21.875V10C5 9.655 5.27938 9.375 5.625 9.375C5.97062 9.375 6.25 9.655 6.25 10V21.875C6.25 22.22 5.97062 22.5 5.625 22.5Z" fill="#F8AB18"/>
<path d="M6.25 4.375H2.5V5.625H6.25V4.375Z" fill="#F8AB18"/>
<path d="M2.5 10.625C1.12125 10.625 0 9.50375 0 8.125C0 7.78 0.279375 7.5 0.625 7.5C0.970625 7.5 1.25 7.78 1.25 8.125C1.25 8.81438 1.81062 9.375 2.5 9.375C3.18937 9.375 3.75 8.81438 3.75 8.125C3.75 7.78 4.02938 7.5 4.375 7.5C4.72062 7.5 5 7.78 5 8.125C5 9.50375 3.87875 10.625 2.5 10.625Z" fill="#F8AB18"/>
<path d="M6.25 10.625C4.87125 10.625 3.75 9.50375 3.75 8.125C3.75 7.78 4.02938 7.5 4.375 7.5C4.72062 7.5 5 7.78 5 8.125C5 8.81438 5.56062 9.375 6.25 9.375C6.93937 9.375 7.5 8.81438 7.5 8.125C7.5 7.78 7.77938 7.5 8.125 7.5C8.47062 7.5 8.75 7.78 8.75 8.125C8.75 9.50375 7.62875 10.625 6.25 10.625Z" fill="#F8AB18"/>
</svg>
