<svg width="32" height="32" viewBox="0 0 32 32" fill="none" xmlns="http://www.w3.org/2000/svg">
<path d="M15.9999 31C7.71577 31 1 24.2842 1 16.0001C1 7.7157 7.71577 1 15.9999 1C24.2843 1 31 7.7157 31 16.0001C31 24.2842 24.2843 31 15.9999 31Z" stroke="#F8AB18" stroke-width="2"/>
<path d="M14.0061 4.38153V6.87827C12.9958 6.87827 8.45081 8.16534 8.45081 12.2919C8.45081 15.9629 11.7305 16.9622 14.0037 17.2902L14.0061 21.4386C12.3463 20.9648 12.0447 19.6878 11.8142 18.6322H8.16992C8.39547 22.7607 12.0216 24.6808 14.0061 24.9724V27.5124H17.4703V25.0109C20.2125 24.865 23.4601 22.4971 23.4601 19.2515C23.4601 15.5344 20.2252 14.4793 17.4703 14.1956V10.3929C18.5543 10.4697 19.4001 11.5453 19.4917 12.64H23.1C23.1 8.95249 19.745 7.01271 17.4343 6.87827V4.38153H14.0061ZM14.0253 10.4289V13.5811C11.5832 13.5427 11.5357 10.8663 14.0253 10.4289ZM17.5111 17.8831C20.5331 17.96 20.8678 20.9756 17.5063 21.4578L17.5111 17.8831Z" fill="black"/>
<path d="M17.5078 21.4567L17.5112 17.8823L17.5078 21.4567Z" fill="white"/>
</svg>
