<svg width="29" height="38" viewBox="0 0 29 38" fill="none" xmlns="http://www.w3.org/2000/svg">
<path d="M14.498 20.3377C17.7857 20.3377 20.451 17.6725 20.451 14.3847C20.451 11.0969 17.7857 8.43164 14.498 8.43164C11.2102 8.43164 8.54492 11.0969 8.54492 14.3847C8.54492 17.6725 11.2102 20.3377 14.498 20.3377Z" fill="black"/>
<path d="M28.502 13.8575C28.6975 13.604 28.8401 13.3139 28.9215 13.0043C29.0028 12.6946 29.0212 12.3719 28.9755 12.055C28.9299 11.7382 28.8211 11.4337 28.6557 11.1596C28.4903 10.8856 28.2715 10.6475 28.0124 10.4595L26.9985 9.72369C26.6642 9.48125 26.3983 9.1564 26.2267 8.78076C26.0551 8.40511 25.9837 7.99145 26.0194 7.58002L26.1265 6.33147C26.1558 6.01155 26.1204 5.68901 26.0224 5.38308C25.9243 5.07714 25.7657 4.79409 25.5559 4.55078C25.3461 4.30748 25.0895 4.10891 24.8013 3.96691C24.5131 3.82492 24.1993 3.74241 23.8786 3.7243L22.6271 3.65477C22.215 3.6313 21.8159 3.50158 21.4687 3.27823C21.1215 3.05488 20.8379 2.7455 20.6457 2.38016L20.0663 1.27066C19.9161 0.987695 19.7105 0.737786 19.4619 0.535752C19.2132 0.333718 18.9266 0.183674 18.6188 0.0945183C18.3111 0.00536243 17.9886 -0.0210892 17.6705 0.0167321C17.3523 0.0545534 17.045 0.155877 16.7668 0.314695L15.6776 0.931726C15.318 1.13534 14.9118 1.24236 14.4986 1.24236C14.0853 1.24236 13.6791 1.13534 13.3195 0.931726L12.2303 0.314695C11.9515 0.156779 11.6438 0.056473 11.3255 0.0197286C11.0072 -0.0170158 10.6847 0.0105498 10.3772 0.10079C10.0698 0.19103 9.78356 0.342106 9.53559 0.545055C9.28762 0.748005 9.08294 0.998692 8.93369 1.28225L8.35431 2.39174C8.16206 2.75709 7.87854 3.06647 7.53133 3.28982C7.18413 3.51317 6.78504 3.64289 6.37286 3.66636L5.12142 3.73589C4.80067 3.75399 4.48686 3.83651 4.19868 3.9785C3.91051 4.12049 3.65388 4.31906 3.4441 4.56237C3.23432 4.80567 3.07567 5.08873 2.97764 5.39466C2.8796 5.7006 2.84417 6.02314 2.87346 6.34306L2.98064 7.5916C3.0163 8.00304 2.94486 8.4167 2.77329 8.79234C2.60171 9.16799 2.33582 9.49284 2.0015 9.73528L0.987603 10.4711C0.728496 10.6591 0.509747 10.8972 0.344308 11.1712C0.17887 11.4453 0.0701048 11.7497 0.0244545 12.0666C-0.0211957 12.3834 -0.00280339 12.7062 0.0785427 13.0158C0.159889 13.3255 0.302535 13.6156 0.498033 13.8691L1.2628 14.8598C1.51523 15.1865 1.67884 15.573 1.73773 15.9816C1.79661 16.3902 1.74876 16.8071 1.59884 17.1918L1.14403 18.3505C1.02777 18.6487 0.972516 18.9673 0.981544 19.2872C0.990572 19.6071 1.0637 19.922 1.19659 20.2132C1.32949 20.5044 1.51945 20.7659 1.75523 20.9824C1.99102 21.1988 2.26783 21.3658 2.56929 21.4734L3.74831 21.8934C4.13758 22.0318 4.48438 22.2686 4.75496 22.5808C5.02554 22.893 5.21067 23.27 5.29234 23.675L5.51829 24.7758L2.50845 34.5585L7.28248 33.0637L10.2547 37.0845L12.969 28.2114C13.3753 28.5487 13.8817 28.742 14.4093 28.7614C14.937 28.7808 15.4562 28.6251 15.8861 28.3186L18.7425 37.0845L21.7146 33.0637L26.4886 34.5585L23.4064 25.1031C23.4267 25.0365 23.4441 24.9728 23.4585 24.9032L23.7048 23.675C23.7864 23.27 23.9716 22.893 24.2421 22.5808C24.5127 22.2686 24.8595 22.0318 25.2488 21.8934L26.4278 21.4734C26.7293 21.3658 27.0061 21.1988 27.2419 20.9824C27.4777 20.7659 27.6676 20.5044 27.8005 20.2132C27.9334 19.922 28.0065 19.6071 28.0156 19.2872C28.0246 18.9673 27.9693 18.6487 27.8531 18.3505L27.3983 17.1918C27.2483 16.8071 27.2005 16.3902 27.2594 15.9816C27.3183 15.573 27.4819 15.1865 27.7343 14.8598L28.502 13.8575ZM6.22802 14.3847C6.22802 12.749 6.71308 11.15 7.62186 9.78988C8.53063 8.42979 9.82231 7.36974 11.3336 6.74376C12.8448 6.11779 14.5077 5.954 16.1121 6.27312C17.7164 6.59224 19.19 7.37993 20.3467 8.53659C21.5034 9.69324 22.291 11.1669 22.6102 12.7712C22.9293 14.3756 22.7655 16.0385 22.1395 17.5497C21.5135 19.061 20.4535 20.3527 19.0934 21.2614C17.7333 22.1702 16.1343 22.6553 14.4986 22.6553C12.3058 22.653 10.2035 21.7809 8.65294 20.2303C7.10242 18.6798 6.23032 16.5775 6.22802 14.3847Z" fill="#F8AB18"/>
</svg>
