<svg width="30" height="27" viewBox="0 0 30 27" fill="none" xmlns="http://www.w3.org/2000/svg">
<path d="M0 0V20.625H16.1006V18.125H2.5V2.5H27.5V7.34375H30V0H0Z" fill="#F8AB18"/>
<path d="M26.2246 7.34375V5.66375V3.75H24.3102H19.9746V5.66375H24.3102V7.34375H26.2246Z" fill="black"/>
<path d="M5.66375 5.66375H10V3.75H5.66375H3.75V5.66375V7.34375H5.66375V5.66375Z" fill="black"/>
<path d="M10.0254 16.9014V14.987H5.68914V13.3076H3.77539V14.987V16.9014H5.68914H10.0254Z" fill="black"/>
<path d="M23.9403 9.21875C20.6466 9.21875 17.9766 11.8887 17.9766 15.1825C17.9766 17.4062 19.1959 19.3419 21.0009 20.3675V22.4094V22.5525V26.7L23.9441 23.6531L26.8797 26.7V22.5525V22.4094V20.3675C28.6841 19.3419 29.9034 17.4062 29.9034 15.1825C29.9034 11.8887 27.2334 9.21875 23.9403 9.21875ZM23.9397 18.1256C22.3147 18.1256 20.9972 16.8081 20.9972 15.1831C20.9972 13.5575 22.3147 12.2406 23.9397 12.2406C25.5653 12.2406 26.8822 13.5581 26.8822 15.1831C26.8822 16.8075 25.5647 18.1256 23.9397 18.1256Z" fill="black"/>
</svg>
