<?xml version="1.0" encoding="utf-8"?>
<!-- Generator: Adobe Illustrator 24.0.0, SVG Export Plug-In . SVG Version: 6.00 Build 0)  -->
<svg version="1.1" id="Livello_1" xmlns="http://www.w3.org/2000/svg" xmlns:xlink="http://www.w3.org/1999/xlink" x="0px" y="0px"
	 viewBox="0 0 1024 1024" style="enable-background:new 0 0 1024 1024;" xml:space="preserve">
<style type="text/css">
	.st0{stroke:#000000;stroke-width:4;stroke-miterlimit:10;}
</style>
<title></title>
<path class="st0" d="M851.1,171.7c-14.1-14.1-37-14.1-51.1,0l-288,289L224,171.3c-14.2-14.2-37.1-14.2-51.3,0
	c-14.2,14.2-14.2,37.1,0,51.3l288,289.5l-288,289.5c-14.1,14.2-14.1,37.1,0.1,51.2c14.2,14.1,37.1,14.1,51.2-0.1l287.9-289.4
	l288,289.5c14.2,14.2,37.1,14.2,51.3,0s14.2-37.1,0-51.3L563.1,512l288.2-289.5C865.1,208.4,865,185.8,851.1,171.7z"/>
</svg>
