<svg width="40" height="40" viewBox="0 0 40 40" fill="none" xmlns="http://www.w3.org/2000/svg">
<g clip-path="url(#clip0_22_5)">
<path d="M4.72801 17.309C4.10778 17.309 3.48756 17.1733 2.94485 17.0377C2.05327 16.7663 1.23922 17.5804 1.51057 18.4138C2.26647 21.3599 4.59234 23.6857 7.53843 24.306C6.86005 24.5192 6.16229 24.5773 5.48392 24.5773C4.80554 24.5773 4.32099 25.3332 4.66987 25.9535C5.96847 28.3569 8.50754 29.985 11.318 30.0625H11.9963C12.7522 30.0625 13.3725 30.6827 13.3725 31.4386C13.3725 32.1945 12.7522 32.8148 11.9963 32.8148C11.1048 32.8148 10.0194 32.7372 8.91456 32.4659C8.23619 32.3302 7.53843 32.3302 6.93758 32.5434C5.77465 32.9504 4.53419 33.2993 3.23558 33.435C2.75103 33.5125 2.42153 33.842 2.42153 34.3266C2.42153 34.6755 2.63474 35.005 2.96423 35.1406C5.63898 36.3036 8.64322 36.9819 11.8025 36.9819C26.2616 36.9819 34.1889 24.713 34.1889 14.0334C34.1889 13.4132 34.4603 12.793 34.9448 12.3859C35.7589 11.7075 36.5148 10.9516 37.2126 10.0601C37.4839 9.71119 37.135 9.24602 36.728 9.38169C35.914 9.65304 35.0805 9.86625 34.1889 10.0019C34.0533 10.0019 33.9757 9.86625 34.1114 9.73057C35.1387 8.97467 36.0303 7.94741 36.573 6.78448C36.7862 6.37745 36.3597 5.97043 35.9527 6.16425C35.1968 6.57127 34.3828 6.84262 33.5493 7.11397C32.7353 7.38533 31.7662 7.1915 31.0878 6.62942C29.7892 5.60216 28.0836 4.98193 26.3004 4.98193C22.6759 4.98193 19.5942 7.521 18.7026 11.0098C18.5669 11.63 19.0515 12.1727 19.6523 12.1727C20.7571 12.0952 21.8425 11.9595 22.6565 11.8238C23.3349 11.6882 24.0327 12.037 24.304 12.6379C24.6529 13.4519 24.1683 14.2854 23.4124 14.4792C20.2531 15.3708 16.7644 14.7506 16.7644 14.7506C11.4149 13.9946 6.705 11.3974 3.27435 7.63729C2.78979 7.09459 1.89821 7.28841 1.70439 7.90864C1.43304 8.7227 1.29736 9.61428 1.29736 10.5834C1.29736 13.3938 2.6735 15.8553 4.72801 17.2896V17.309Z" fill="black"/>
</g>
<defs>
<clipPath id="clip0_22_5">
<rect width="37" height="33" fill="white" transform="translate(1 4)"/>
</clipPath>
</defs>
</svg>
