<svg width="157" height="150" viewBox="0 0 157 150" fill="none" xmlns="http://www.w3.org/2000/svg">
<rect x="2.72754" y="3.409" width="150" height="142.841" fill="white"/>
<path fill-rule="evenodd" clip-rule="evenodd" d="M0 150V0H155.771V150H0ZM149.447 143.659V6.34089H6.33754V143.659H149.447Z" fill="#CC7E4F"/>
<path d="M85.313 9.37579H37.2397V73.7467H85.313V9.37579Z" fill="#FFDBC6"/>
<path d="M44.8232 17.4645H57.891C58.9337 17.4645 59.7733 18.3046 59.7733 19.3478V28.9269C59.7733 29.9702 58.9337 30.8102 57.891 30.8102H44.8232C43.7805 30.8102 42.9409 29.9702 42.9409 28.9269V19.3478C42.9409 18.3046 43.7805 17.4645 44.8232 17.4645Z" fill="#B65C26"/>
<path d="M64.7973 17.4645H77.8651C78.9078 17.4645 79.7474 18.3046 79.7474 19.3478V28.9269C79.7474 29.9702 78.9078 30.8102 77.8651 30.8102H64.7973C63.7546 30.8102 62.915 29.9702 62.915 28.9269V19.3478C62.915 18.3046 63.7682 17.4645 64.7973 17.4645Z" fill="#B65C26"/>
<path d="M32.3379 14.3483H13.4878V30.6612H32.3379V14.3483Z" fill="#FFDBC6"/>
<path fill-rule="evenodd" clip-rule="evenodd" d="M22.6551 17.478C25.1604 17.478 27.1916 19.5104 27.1916 22.0305C27.1916 24.5506 25.1604 26.5693 22.6551 26.5693C20.1499 26.5693 18.1187 24.537 18.1187 22.0305C18.1187 19.5239 20.1499 17.478 22.6551 17.478Z" fill="#B65C26"/>
<path d="M108.673 14.6464H89.8228V30.9593H108.673V14.6464Z" fill="#FFDBC6"/>
<path fill-rule="evenodd" clip-rule="evenodd" d="M98.9901 17.7626C101.495 17.7626 103.527 19.795 103.527 22.3151C103.527 24.8352 101.495 26.854 98.9901 26.854C96.4849 26.854 94.4536 24.8216 94.4536 22.3151C94.4536 19.8085 96.4849 17.7626 98.9901 17.7626Z" fill="#B65C26"/>
<path fill-rule="evenodd" clip-rule="evenodd" d="M36.8472 74.1261V8.98297H85.6923V74.1261H36.8472ZM84.9204 73.3403V9.75526H37.6326V73.3403H84.9204Z" fill="#CC7E4F"/>
<path fill-rule="evenodd" clip-rule="evenodd" d="M42.5347 28.9406V19.3615C42.5347 18.1014 43.5503 17.0853 44.8097 17.0853H57.8775C59.1369 17.0853 60.1525 18.1014 60.1525 19.3615V28.9406C60.1525 30.2006 59.1369 31.2168 57.8775 31.2168H44.8097C43.5503 31.2168 42.5347 30.2006 42.5347 28.9406ZM59.3806 28.9406V19.3615C59.3806 18.535 58.7035 17.8711 57.8775 17.8711H44.8097C43.9836 17.8711 43.3201 18.5485 43.3201 19.3615V28.9406C43.3201 29.767 43.9972 30.4309 44.8097 30.4309H57.8775C58.7035 30.4309 59.3806 29.767 59.3806 28.9406Z" fill="#CC7E4F"/>
<path fill-rule="evenodd" clip-rule="evenodd" d="M62.5088 28.9406V19.3615C62.5088 18.1014 63.5244 17.0853 64.7838 17.0853H77.8516C79.111 17.0853 80.1266 18.1014 80.1266 19.3615V28.9406C80.1266 30.2006 79.111 31.2168 77.8516 31.2168H64.7838C63.5244 31.2168 62.5088 30.2006 62.5088 28.9406ZM79.3547 28.9406V19.3615C79.3547 18.535 78.6776 17.8711 77.8516 17.8711H64.7838C63.9578 17.8711 63.2807 18.5485 63.2807 19.3615V28.9406C63.2807 29.767 63.9442 30.4309 64.7838 30.4309H77.8516C78.6776 30.4309 79.3547 29.767 79.3547 28.9406Z" fill="#CC7E4F"/>
<path fill-rule="evenodd" clip-rule="evenodd" d="M13.0952 31.0542V13.969H32.7308V31.0677H13.0952V31.0542ZM31.9453 30.2683V14.7413H13.8806V30.2819H31.9453V30.2683ZM17.7265 22.017C17.7265 19.2937 19.9338 17.0852 22.6557 17.0852C25.3776 17.0852 27.5849 19.2937 27.5849 22.017C27.5849 24.7404 25.3776 26.9489 22.6557 26.9489C19.9338 26.9489 17.7265 24.7404 17.7265 22.017ZM26.813 22.017C26.813 19.7273 24.9578 17.8575 22.6557 17.8575C20.3536 17.8575 18.4984 19.7273 18.4984 22.017C18.4984 24.3068 20.3536 26.1766 22.6557 26.1766C24.9578 26.1766 26.813 24.3068 26.813 22.017Z" fill="#CC7E4F"/>
<path fill-rule="evenodd" clip-rule="evenodd" d="M89.4297 31.3521V14.2534H109.065V31.3521H89.4297ZM108.28 30.5662V15.0392H90.2151V30.5662H108.28ZM94.0474 22.315C94.0474 19.5916 96.2547 17.3832 98.9766 17.3832C101.699 17.3832 103.906 19.5916 103.906 22.315C103.906 25.0383 101.699 27.2468 98.9766 27.2468C96.2547 27.2468 94.0474 25.0383 94.0474 22.315ZM103.134 22.315C103.134 20.0252 101.279 18.1554 98.9766 18.1554C96.6745 18.1554 94.8193 20.0252 94.8193 22.315C94.8193 24.6047 96.6745 26.4745 98.9766 26.4745C101.279 26.4745 103.134 24.6047 103.134 22.315Z" fill="#CC7E4F"/>
<path d="M88.2517 6.34094H34.4097V12.8444H88.2517V6.34094Z" fill="#B65C26"/>
<path fill-rule="evenodd" clip-rule="evenodd" d="M34.0303 13.2373V5.94794H88.6577V13.2373H34.0303ZM87.8723 12.4514V6.73377H34.8022V12.465H87.8723V12.4514Z" fill="#FFDBC6"/>
<path d="M86.911 34.3735H35.6284C35.1198 34.3735 34.7075 34.786 34.7075 35.2948V45.172C34.7075 45.6808 35.1198 46.0933 35.6284 46.0933H86.911C87.4195 46.0933 87.8318 45.6808 87.8318 45.172V35.2948C87.8318 34.786 87.4195 34.3735 86.911 34.3735Z" fill="#FFDBC6"/>
<path fill-rule="evenodd" clip-rule="evenodd" d="M34.3145 45.1721V35.2949C34.3145 34.5768 34.8967 33.9807 35.628 33.9807H86.9106C87.6283 33.9807 88.2242 34.5633 88.2242 35.2949V45.1721C88.2242 45.8901 87.6419 46.4863 86.9106 46.4863H35.628C34.9103 46.4863 34.3145 45.9037 34.3145 45.1721ZM87.4387 45.1721V35.2949C87.4387 34.9968 87.195 34.7665 86.9106 34.7665H35.628C35.3301 34.7665 35.0999 35.0104 35.0999 35.2949V45.1721C35.0999 45.4701 35.3301 45.7005 35.628 45.7005H86.9106C87.2085 45.7005 87.4387 45.4566 87.4387 45.1721Z" fill="#CC7E4F"/>
<path d="M148.973 28.4526H127.929V54.2091H148.973V28.4526Z" fill="#FFDBC6"/>
<path d="M148.973 28.4526H138.654V54.2091H148.973V28.4526Z" fill="#B65C26"/>
<path d="M148.973 6.66608H127.929V27.3688H148.973V6.66608Z" fill="#B65C26"/>
<path d="M148.973 73.7331H127.929V88.6504H148.973V73.7331Z" fill="#B65C26"/>
<path d="M148.079 74.6003H128.823V87.7834H148.079V74.6003Z" fill="#FFDBC6"/>
<path d="M141.484 9.67389H133.102C131.456 9.67389 130.123 11.0084 130.123 12.6547V21.3666C130.123 23.0128 131.456 24.3474 133.102 24.3474H141.484C143.129 24.3474 144.463 23.0128 144.463 21.3666V12.6547C144.463 11.0084 143.129 9.67389 141.484 9.67389Z" fill="#FFDBC6"/>
<path fill-rule="evenodd" clip-rule="evenodd" d="M136.975 18.711C137.787 18.711 138.437 17.9929 138.437 17.0986C138.437 16.2044 137.787 15.4863 136.975 15.4863C136.162 15.4863 135.512 16.2044 135.512 17.0986C135.512 17.9929 136.162 18.711 136.975 18.711Z" fill="#CC7E4F"/>
<path d="M144.897 16.2451H139.331C139.107 16.2451 138.925 16.4271 138.925 16.6516V17.4916C138.925 17.7161 139.107 17.8981 139.331 17.8981H144.897C145.121 17.8981 145.303 17.7161 145.303 17.4916V16.6516C145.303 16.4271 145.121 16.2451 144.897 16.2451Z" fill="#CC7E4F"/>
<path fill-rule="evenodd" clip-rule="evenodd" d="M144.328 20.757C144.599 21.0144 145.019 21.0008 145.276 20.7434C145.533 20.4724 145.533 20.0524 145.262 19.795C144.991 19.5376 144.572 19.5376 144.314 19.8085C144.057 20.0795 144.057 20.4995 144.328 20.757Z" fill="#CC7E4F"/>
<path fill-rule="evenodd" clip-rule="evenodd" d="M143.394 19.7543C143.881 20.2285 144.477 20.4182 144.721 20.1743C144.964 19.9305 144.748 19.3479 144.26 18.8601C143.773 18.3859 143.177 18.1962 142.933 18.4401C142.689 18.684 142.906 19.2666 143.394 19.7543Z" fill="#CC7E4F"/>
<path fill-rule="evenodd" clip-rule="evenodd" d="M145.371 21.6918C145.858 22.166 146.454 22.3557 146.698 22.1118C146.941 21.8679 146.725 21.2853 146.237 20.7975C145.75 20.3233 145.154 20.1336 144.91 20.3775C144.68 20.6214 144.883 21.204 145.371 21.6918Z" fill="#CC7E4F"/>
<path fill-rule="evenodd" clip-rule="evenodd" d="M145.33 18.8601C144.856 19.3479 144.666 19.944 144.91 20.1879C145.154 20.4318 145.736 20.215 146.224 19.7272C146.698 19.2395 146.887 18.6433 146.643 18.3994C146.4 18.1556 145.817 18.3723 145.33 18.8601Z" fill="#CC7E4F"/>
<path fill-rule="evenodd" clip-rule="evenodd" d="M143.393 20.8381C142.919 21.3259 142.73 21.922 142.974 22.1659C143.217 22.4098 143.8 22.193 144.287 21.7053C144.761 21.2175 144.951 20.6214 144.707 20.3775C144.463 20.1336 143.881 20.3504 143.393 20.8381Z" fill="#CC7E4F"/>
<path fill-rule="evenodd" clip-rule="evenodd" d="M144.328 14.2669C144.599 14.5244 145.019 14.5108 145.276 14.2534C145.533 13.9824 145.52 13.5624 145.262 13.305C144.991 13.0475 144.572 13.0611 144.314 13.3185C144.057 13.5895 144.057 14.0095 144.328 14.2669Z" fill="#CC7E4F"/>
<path fill-rule="evenodd" clip-rule="evenodd" d="M143.394 13.2643C143.881 13.7386 144.477 13.9282 144.721 13.6844C144.964 13.4405 144.748 12.8579 144.26 12.3701C143.773 11.8959 143.177 11.7062 142.933 11.9501C142.689 12.194 142.906 12.7766 143.394 13.2643Z" fill="#CC7E4F"/>
<path fill-rule="evenodd" clip-rule="evenodd" d="M145.371 15.2155C145.858 15.6897 146.454 15.8794 146.698 15.6355C146.941 15.3916 146.725 14.809 146.237 14.3213C145.75 13.8471 145.154 13.6574 144.91 13.9013C144.68 14.1451 144.883 14.7278 145.371 15.2155Z" fill="#CC7E4F"/>
<path fill-rule="evenodd" clip-rule="evenodd" d="M145.33 12.3701C144.856 12.8579 144.666 13.454 144.91 13.6979C145.154 13.9418 145.736 13.725 146.224 13.2372C146.698 12.7495 146.887 12.1533 146.643 11.9095C146.4 11.6656 145.817 11.8824 145.33 12.3701Z" fill="#CC7E4F"/>
<path fill-rule="evenodd" clip-rule="evenodd" d="M143.393 14.3483C142.919 14.8361 142.73 15.4322 142.974 15.6761C143.217 15.92 143.8 15.7032 144.287 15.2155C144.761 14.7277 144.951 14.1315 144.707 13.8877C144.463 13.6438 143.881 13.8606 143.393 14.3483Z" fill="#CC7E4F"/>
<path fill-rule="evenodd" clip-rule="evenodd" d="M127.618 54.5345H149.298V28.1276H127.618V54.5209V54.5345ZM128.268 28.7915H148.662V53.8977H128.268V28.778V28.7915Z" fill="#CC7E4F"/>
<path fill-rule="evenodd" clip-rule="evenodd" d="M138.329 54.5345H149.297V28.1276H138.329V54.5209V54.5345ZM138.979 28.778H148.647V53.8841H138.979V28.778Z" fill="#FFA26A"/>
<path fill-rule="evenodd" clip-rule="evenodd" d="M127.618 27.6805H149.298V6.34094H127.618V27.6805ZM128.268 6.99129H148.662V27.0437H128.268V6.99129Z" fill="#CC7E4F"/>
<path fill-rule="evenodd" clip-rule="evenodd" d="M127.604 88.9757H149.284V73.408H127.604V88.9757ZM128.254 74.0583H148.648V88.3389H128.254V74.0583Z" fill="#CC7E4F"/>
<path d="M149.298 55.6047H128.254V72.3241H149.298V55.6047Z" fill="#FFDBC6"/>
<path fill-rule="evenodd" clip-rule="evenodd" d="M135.959 63.9644C135.959 62.3656 134.659 61.0785 133.075 61.0785C131.49 61.0785 130.19 62.3792 130.19 63.9644C130.19 65.5496 131.49 66.8503 133.075 66.8503C134.659 66.8503 135.959 65.5496 135.959 63.9644Z" fill="#CC7E4F"/>
<path fill-rule="evenodd" clip-rule="evenodd" d="M145.289 63.9644C145.289 62.3656 143.989 61.0785 142.405 61.0785C140.821 61.0785 139.521 62.3792 139.521 63.9644C139.521 65.5496 140.821 66.8503 142.405 66.8503C143.989 66.8503 145.289 65.5496 145.289 63.9644Z" fill="#CC7E4F"/>
<path fill-rule="evenodd" clip-rule="evenodd" d="M127.618 72.9745H149.298V54.9815H127.618V72.9745ZM128.268 55.6319H148.662V72.3241H128.268V55.6319Z" fill="#CC7E4F"/>
<path d="M109.065 6.34094H88.2651V12.8444H109.065V6.34094Z" fill="#B65C26"/>
<path d="M34.4095 6.34094H13.6094V12.8444H34.4095V6.34094Z" fill="#B65C26"/>
<path fill-rule="evenodd" clip-rule="evenodd" d="M109.065 13.2373V5.94794H88.6577V13.2373H109.065ZM88.9421 12.4514V6.73377H108.767V12.465H88.9421V12.4514Z" fill="#FFDBC6"/>
<path fill-rule="evenodd" clip-rule="evenodd" d="M13.0537 13.2373V5.94794H88.6573V13.2373H13.0537ZM87.574 12.4514V6.73377H14.1235V12.465H87.574V12.4514Z" fill="#FFDBC6"/>
<path d="M6.83858 110.735H0V143.659H6.83858V110.735Z" fill="#B65C26"/>
<path d="M54.641 130.273H28.6138V143.659H54.641V130.273Z" fill="#FFDBC6"/>
<path d="M54.641 130.273H28.6138V143.659H54.641V130.273Z" stroke="#CC7E4F" stroke-width="0.22" stroke-miterlimit="2.61"/>
<path d="M156.136 88.9757H149.298V117.415H156.136V88.9757Z" fill="#B65C26"/>
<path d="M52.4471 133.714H30.8345V134.554H52.4471V133.714Z" fill="#CC7E4F"/>
<path d="M52.4471 136.546H30.8345V137.386H52.4471V136.546Z" fill="#CC7E4F"/>
<path d="M52.4471 139.378H30.8345V140.218H52.4471V139.378Z" fill="#CC7E4F"/>
<path d="M85.9632 130.273H54.6411V143.659H85.9632V130.273Z" fill="#FFDBC6"/>
<path d="M85.9632 130.273H54.6411V143.659H85.9632V130.273Z" stroke="#CC7E4F" stroke-width="0.22" stroke-miterlimit="2.61"/>
<path d="M85.9632 141.925H54.6411V143.659H85.9632V141.925Z" fill="#B65C26"/>
<path d="M85.9632 141.925H54.6411V143.659H85.9632V141.925Z" stroke="#CC7E4F" stroke-width="0.22" stroke-miterlimit="2.61"/>
<path d="M106.438 125.368H94.0341C93.2413 125.368 92.5986 126.011 92.5986 126.804V139.215C92.5986 140.008 93.2413 140.651 94.0341 140.651H106.438C107.231 140.651 107.874 140.008 107.874 139.215V126.804C107.874 126.011 107.231 125.368 106.438 125.368Z" fill="#B65C26"/>
<path d="M106.438 125.368H94.0341C93.2413 125.368 92.5986 126.011 92.5986 126.804V139.215C92.5986 140.008 93.2413 140.651 94.0341 140.651H106.438C107.231 140.651 107.874 140.008 107.874 139.215V126.804C107.874 126.011 107.231 125.368 106.438 125.368Z" stroke="#CC7E4F" stroke-width="0.22" stroke-miterlimit="2.61"/>
<path d="M104.718 126.845H95.7536C94.6991 126.845 93.8442 127.7 93.8442 128.755V137.725C93.8442 138.78 94.6991 139.635 95.7536 139.635H104.718C105.773 139.635 106.628 138.78 106.628 137.725V128.755C106.628 127.7 105.773 126.845 104.718 126.845Z" fill="#B65C26"/>
<path d="M104.718 126.845H95.7536C94.6991 126.845 93.8442 127.7 93.8442 128.755V137.725C93.8442 138.78 94.6991 139.635 95.7536 139.635H104.718C105.773 139.635 106.628 138.78 106.628 137.725V128.755C106.628 127.7 105.773 126.845 104.718 126.845Z" stroke="#CC7E4F" stroke-width="0.22" stroke-miterlimit="2.61"/>
<path d="M114.509 130.273H85.9629V143.659H114.509V130.273Z" fill="#FFDBC6"/>
<path d="M114.509 130.273H85.9629V143.659H114.509V130.273Z" stroke="#CC7E4F" stroke-width="0.22" stroke-miterlimit="2.61"/>
</svg>
