<svg width="250" height="250" viewBox="0 0 250 250" fill="none" xmlns="http://www.w3.org/2000/svg">
<circle opacity="0.03" cx="125" cy="125" r="125" fill="black"/>
<path d="M193.015 76H108.633V147.45H203.177L193.015 76Z" fill="#DB6161"/>
<path d="M189.319 78.446H93.6865V147.45H199.237L189.319 78.446Z" fill="#233862"/>
<path d="M148.073 147.45H161.079V134.265H148.073V147.45Z" fill="#E69D43"/>
<path d="M160.538 147.45H166.491V134.265H160.538V147.45Z" fill="#D57912"/>
<path d="M147.381 134.446H168.947V121.442H147.381V134.446Z" fill="#E69D43"/>
<path d="M168.408 134.446H174.361V121.442H168.408V134.446Z" fill="#D57912"/>
<path d="M28.8536 139.032H56.6236C57.3011 139.032 57.8502 139.583 57.8502 140.259V151.211C57.8502 151.889 57.2999 152.438 56.6236 152.438H28.8536C28.1761 152.438 27.627 151.887 27.627 151.211V140.259C27.627 139.581 28.1773 139.032 28.8536 139.032Z" fill="#B65615"/>
<path d="M141.457 168.976C148.143 168.698 153.338 163.052 153.06 156.367C152.782 149.681 147.137 144.486 140.451 144.764C133.765 145.042 128.57 150.687 128.848 157.373C129.126 164.059 134.771 169.254 141.457 168.976Z" fill="#233862"/>
<path d="M188.506 168.938C195.165 168.279 200.029 162.347 199.371 155.687C198.712 149.028 192.779 144.164 186.12 144.823C179.461 145.482 174.597 151.414 175.255 158.073C175.914 164.732 181.847 169.597 188.506 168.938Z" fill="#233862"/>
<path d="M52.4363 165.432C57.1681 160.7 57.1681 153.029 52.4363 148.297C47.7045 143.565 40.0328 143.565 35.301 148.297C30.5693 153.029 30.5693 160.7 35.301 165.432C40.0328 170.164 47.7045 170.164 52.4363 165.432Z" fill="#233862"/>
<path d="M43.868 162.98C47.2453 162.98 49.9831 160.242 49.9831 156.865C49.9831 153.488 47.2453 150.75 43.868 150.75C40.4908 150.75 37.7529 153.488 37.7529 156.865C37.7529 160.242 40.4908 162.98 43.868 162.98Z" fill="#D36E2A"/>
<path d="M43.868 162.98C47.2453 162.98 49.9831 160.242 49.9831 156.865C49.9831 153.488 47.2453 150.75 43.868 150.75C40.4908 150.75 37.7529 153.488 37.7529 156.865C37.7529 160.242 40.4908 162.98 43.868 162.98Z" fill="#F59040"/>
<path d="M47.9397 152.303C48.2833 153.068 48.4754 153.914 48.4754 154.807C48.4754 158.184 45.737 160.922 42.3603 160.922C40.7972 160.922 39.3712 160.335 38.29 159.369C39.2464 161.497 41.3843 162.98 43.8695 162.98C47.2462 162.98 49.9846 160.242 49.9846 156.865C49.9846 155.051 49.1945 153.422 47.9397 152.303Z" fill="#D36E2A"/>
<path d="M43.8683 158.761C44.9153 158.761 45.764 157.912 45.764 156.865C45.764 155.818 44.9153 154.969 43.8683 154.969C42.8214 154.969 41.9727 155.818 41.9727 156.865C41.9727 157.912 42.8214 158.761 43.8683 158.761Z" fill="#B65615"/>
<path d="M40.644 160.848C41.0492 160.848 41.3778 160.52 41.3778 160.115C41.3778 159.709 41.0492 159.381 40.644 159.381C40.2387 159.381 39.9102 159.709 39.9102 160.115C39.9102 160.52 40.2387 160.848 40.644 160.848Z" fill="#B65615"/>
<path d="M39.7885 155.397C40.1938 155.397 40.5223 155.069 40.5223 154.663C40.5223 154.258 40.1938 153.93 39.7885 153.93C39.3832 153.93 39.0547 154.258 39.0547 154.663C39.0547 155.069 39.3832 155.397 39.7885 155.397Z" fill="#B65615"/>
<path d="M47.8588 155.397C48.2641 155.397 48.5926 155.069 48.5926 154.663C48.5926 154.258 48.2641 153.93 47.8588 153.93C47.4535 153.93 47.125 154.258 47.125 154.663C47.125 155.069 47.4535 155.397 47.8588 155.397Z" fill="#B65615"/>
<path d="M47.2475 160.848C47.6528 160.848 47.9813 160.52 47.9813 160.115C47.9813 159.709 47.6528 159.381 47.2475 159.381C46.8422 159.381 46.5137 159.709 46.5137 160.115C46.5137 160.52 46.8422 160.848 47.2475 160.848Z" fill="#B65615"/>
<path d="M43.8696 152.927C44.2748 152.927 44.6034 152.599 44.6034 152.193C44.6034 151.788 44.2748 151.459 43.8696 151.459C43.4643 151.459 43.1357 151.788 43.1357 152.193C43.1357 152.599 43.4643 152.927 43.8696 152.927Z" fill="#B65615"/>
<path d="M140.733 162.98C144.111 162.98 146.848 160.242 146.848 156.865C146.848 153.488 144.111 150.75 140.733 150.75C137.356 150.75 134.618 153.488 134.618 156.865C134.618 160.242 137.356 162.98 140.733 162.98Z" fill="#D36E2A"/>
<path d="M140.733 162.98C144.111 162.98 146.848 160.242 146.848 156.865C146.848 153.488 144.111 150.75 140.733 150.75C137.356 150.75 134.618 153.488 134.618 156.865C134.618 160.242 137.356 162.98 140.733 162.98Z" fill="#D36E2A"/>
<path d="M140.733 158.761C141.78 158.761 142.628 157.912 142.628 156.865C142.628 155.818 141.78 154.969 140.733 154.969C139.686 154.969 138.837 155.818 138.837 156.865C138.837 157.912 139.686 158.761 140.733 158.761Z" fill="#B65615"/>
<path d="M137.506 160.848C137.912 160.848 138.24 160.52 138.24 160.114C138.24 159.709 137.912 159.381 137.506 159.381C137.101 159.381 136.772 159.709 136.772 160.114C136.772 160.52 137.101 160.848 137.506 160.848Z" fill="#B65615"/>
<path d="M136.651 155.397C137.056 155.397 137.385 155.069 137.385 154.664C137.385 154.258 137.056 153.93 136.651 153.93C136.246 153.93 135.917 154.258 135.917 154.664C135.917 155.069 136.246 155.397 136.651 155.397Z" fill="#B65615"/>
<path d="M144.722 155.397C145.127 155.397 145.456 155.069 145.456 154.664C145.456 154.258 145.127 153.93 144.722 153.93C144.317 153.93 143.988 154.258 143.988 154.664C143.988 155.069 144.317 155.397 144.722 155.397Z" fill="#B65615"/>
<path d="M144.111 160.848C144.516 160.848 144.845 160.52 144.845 160.114C144.845 159.709 144.516 159.381 144.111 159.381C143.705 159.381 143.377 159.709 143.377 160.114C143.377 160.52 143.705 160.848 144.111 160.848Z" fill="#B65615"/>
<path d="M140.732 152.927C141.137 152.927 141.466 152.599 141.466 152.193C141.466 151.788 141.137 151.459 140.732 151.459C140.327 151.459 139.998 151.788 139.998 152.193C139.998 152.599 140.327 152.927 140.732 152.927Z" fill="#B65615"/>
<path d="M78.8156 168.97C85.5011 168.682 90.687 163.028 90.3986 156.343C90.1102 149.657 84.4567 144.471 77.7712 144.76C71.0857 145.048 65.8998 150.701 66.1882 157.387C66.4766 164.072 72.13 169.258 78.8156 168.97Z" fill="#233862"/>
<path d="M43.7363 91.4442C43.7363 91.4442 50.3101 81.528 57.9111 81.446L57.2336 92.1756L43.7376 91.4442H43.7363Z" fill="#D57912"/>
<path d="M82.4625 136.749H29.8457L34.2253 101.206C34.9371 95.4289 39.8451 91.0896 45.6655 91.0896H82.4637V136.749H82.4625Z" fill="#E69D43"/>
<path d="M51.8776 115.022H37.123L39.0774 100.988C39.4798 98.0976 41.9515 95.9463 44.8697 95.9463H52.335L51.8776 115.022Z" fill="#D57912"/>
<path d="M50.7867 113.966H41.0723C39.6059 113.966 38.4758 112.676 38.669 111.222L39.9581 101.512C40.2981 98.9477 42.3895 97.0386 44.8575 97.0386H51.1732L50.7867 113.966Z" fill="#DCE7F9"/>
<path d="M154.031 147.45H52.8252L57.3394 76H148.051L154.031 147.45Z" fill="#D15050"/>
<path d="M150.069 144.74H56.54L60.713 78.71H144.543L149.022 132.232L150.069 144.74Z" fill="#B64C41"/>
<path d="M61.9516 136.748H29.846C27.0184 136.937 26.7457 138.335 26.7457 138.335L24 151.613C24 152.067 24.4171 152.439 24.9271 152.439H32.999C33.509 152.439 33.8771 152.066 34.0936 151.592C34.0936 151.592 35.3362 150.057 36.1691 149.508C38.2555 148.132 40.5218 147.23 43.8692 147.23C47.9847 147.23 51.6195 148.538 53.8099 150.539H61.9516C62.9349 150.539 63.7384 150.027 63.7384 149.399V137.888C63.7384 137.262 62.9349 136.748 61.9516 136.748Z" fill="#D57912"/>
<path d="M157.281 162.815H147.106C146.872 161.582 146.43 160.496 145.831 159.538C142.756 154.608 135.562 153.102 131.463 152.64C129.668 152.439 128.466 152.437 128.466 152.437H145.956C150.532 153.058 153.341 155.553 155.015 157.941C156.767 160.436 157.28 162.815 157.28 162.815H157.281Z" fill="#D15050"/>
<path d="M203.176 162.815H193C192.734 161.412 192.197 160.198 191.469 159.149C186.822 152.447 174.36 152.437 174.36 152.437H191.852C195.678 152.956 198.268 154.786 199.994 156.768C202.487 159.634 203.175 162.815 203.175 162.815H203.176Z" fill="#D15050"/>
<path d="M155.017 157.941C155.017 157.941 148.321 156.528 145.832 159.538C142.756 154.608 135.562 153.102 131.464 152.64C131.381 152.572 131.299 152.505 131.217 152.437H145.957C150.532 153.058 153.341 155.553 155.016 157.941H155.017Z" fill="#A03C37"/>
<path d="M199.994 156.768C199.994 156.768 194.392 156.643 191.469 159.149C186.822 152.447 174.36 152.437 174.36 152.437H191.852C195.678 152.956 198.268 154.786 199.994 156.768Z" fill="#A03C37"/>
<path d="M55.1183 147.45H204.327C205.079 147.45 205.689 148.06 205.689 148.813V153.019C205.689 153.771 205.079 154.381 204.327 154.381H55.1183C54.3661 154.381 53.7559 153.771 53.7559 153.019V148.814C53.7559 148.062 54.3661 147.451 55.1183 147.451V147.45Z" fill="#A03C37"/>
<path d="M89.0956 149.192H61.4981C60.7727 149.192 60.1846 149.78 60.1846 150.505V163.227C60.1846 163.953 60.7727 164.541 61.4981 164.541H89.0956C89.821 164.541 90.4091 163.953 90.4091 163.227V150.505C90.4091 149.78 89.821 149.192 89.0956 149.192Z" fill="#A03C37"/>
<path d="M150.192 144.74H56.6631L60.8348 78.71H77.1707C82.2854 93.7935 99.5838 129.553 149.144 132.232L150.192 144.74Z" fill="#C44943"/>
<path d="M30.8021 108.143C30.8021 108.143 29.4862 115.212 29.5522 116.364C29.617 117.516 30.7055 118.079 31.5323 118.079L30.8021 108.143Z" fill="#B64C41"/>
<path d="M31.6 107.554H34.797C35.2666 107.554 35.647 107.934 35.647 108.404V117.23C35.647 117.7 35.2666 118.08 34.797 118.08H31.6C31.1304 118.08 30.75 117.7 30.75 117.23V108.404C30.75 107.934 31.1304 107.554 31.6 107.554Z" fill="#D57912"/>
<path d="M32.0182 108.143H34.5499C34.9498 108.143 35.2751 108.468 35.2751 108.868V116.843C35.2751 117.242 34.9498 117.568 34.5499 117.568H32.0182C31.6183 117.568 31.293 117.242 31.293 116.843V108.868C31.293 108.468 31.6183 108.143 32.0182 108.143Z" fill="#DCE7F9"/>
<path d="M33.1998 107.746C33.1093 107.746 33.0371 107.66 33.0371 107.554V104.583C33.0371 104.575 33.0371 104.567 33.0383 104.559C33.0408 104.542 33.2426 102.85 35.0221 102.905C36.6499 102.955 37.3507 102.905 37.358 102.905C37.4485 102.899 37.5256 102.979 37.5305 103.085C37.5354 103.191 37.4681 103.282 37.3776 103.288C37.3495 103.29 36.6548 103.339 35.0123 103.288C33.5789 103.244 33.3796 104.458 33.3624 104.594V107.553C33.3624 107.659 33.2891 107.745 33.1998 107.745V107.746Z" fill="#B64C41"/>
<path d="M50.5105 119.596H47.5337C47.1166 119.596 46.7754 119.255 46.7754 118.838C46.7754 118.421 47.1166 118.079 47.5337 118.079H50.5105C50.9275 118.079 51.2688 118.421 51.2688 118.838C51.2688 119.255 50.9275 119.596 50.5105 119.596Z" fill="#D57912"/>
<path d="M169.659 147.45H182.665V134.446H169.659V147.45Z" fill="#E69D43"/>
<path d="M182.123 147.45H188.077V134.446H182.123V147.45Z" fill="#D57912"/>
<path d="M79.279 107.659C79.8526 107.659 80.3491 107.735 80.7723 107.885C81.1942 108.037 81.5465 108.251 81.8302 108.53C82.1127 108.809 82.3292 109.146 82.4809 109.541C82.6313 109.936 82.723 110.378 82.7536 110.866C82.7842 111.439 82.7842 112.012 82.7536 112.585C82.723 113.073 82.6313 113.515 82.4809 113.91C82.3304 114.305 82.1152 114.641 81.8363 114.92C81.5575 115.199 81.2101 115.414 80.7967 115.565C80.3821 115.716 79.8966 115.791 79.3389 115.791H76.411C76.3254 115.791 76.252 115.76 76.1896 115.698C76.1273 115.635 76.0967 115.562 76.0967 115.478V107.972C76.0967 107.886 76.1273 107.813 76.1896 107.751C76.252 107.688 76.3254 107.658 76.411 107.658H79.2802L79.279 107.659ZM81.1844 110.866C81.1685 110.617 81.1208 110.387 81.0389 110.175C80.957 109.962 80.8371 109.776 80.6793 109.617C80.5203 109.458 80.321 109.334 80.0813 109.245C79.8416 109.156 79.5542 109.112 79.2215 109.112H77.6646V114.34H79.2802C79.5982 114.34 79.8721 114.296 80.1057 114.207C80.3381 114.118 80.5314 113.997 80.6867 113.841C80.842 113.686 80.9594 113.5 81.0414 113.284C81.1221 113.067 81.171 112.835 81.1869 112.586C81.2175 112.013 81.2175 111.441 81.1869 110.867L81.1844 110.866Z" fill="white"/>
<path d="M89.689 114.339C89.7746 114.339 89.848 114.37 89.9103 114.432C89.9727 114.494 90.0033 114.568 90.0033 114.653V115.479C90.0033 115.564 89.9727 115.638 89.9103 115.699C89.848 115.76 89.7746 115.792 89.689 115.792H84.5878C84.5021 115.792 84.4288 115.761 84.3664 115.699C84.304 115.637 84.2734 115.563 84.2734 115.479V107.973C84.2734 107.888 84.304 107.814 84.3664 107.752C84.4288 107.689 84.5021 107.659 84.5878 107.659H89.5948C89.6804 107.659 89.7538 107.689 89.8162 107.752C89.8785 107.814 89.9091 107.888 89.9091 107.973V108.799C89.9091 108.884 89.8785 108.958 89.8162 109.019C89.7538 109.081 89.6804 109.112 89.5948 109.112H85.8414V110.96H89.3392C89.4248 110.96 89.4982 110.99 89.5593 111.053C89.6217 111.115 89.6523 111.188 89.6523 111.273V112.098C89.6523 112.184 89.6217 112.257 89.5593 112.319C89.497 112.381 89.4236 112.411 89.3392 112.411H85.8414V114.34H89.6878L89.689 114.339Z" fill="white"/>
<path d="M96.8464 114.339C96.932 114.339 97.0054 114.37 97.0666 114.432C97.1289 114.494 97.1595 114.568 97.1595 114.653V115.479C97.1595 115.565 97.1289 115.638 97.0666 115.699C97.0042 115.761 96.9308 115.792 96.8464 115.792H91.7574C91.6718 115.792 91.5984 115.761 91.5373 115.699C91.4749 115.637 91.4443 115.563 91.4443 115.479V107.973C91.4443 107.888 91.4749 107.814 91.5373 107.752C91.5997 107.69 91.673 107.659 91.7574 107.659H92.6979C92.7835 107.659 92.8569 107.69 92.9193 107.752C92.9817 107.814 93.0122 107.888 93.0122 107.973V114.34H96.8464V114.339Z" fill="white"/>
<path d="M98.5885 115.792C98.5029 115.792 98.4295 115.761 98.3683 115.699C98.306 115.637 98.2754 115.563 98.2754 115.479V107.973C98.2754 107.888 98.306 107.814 98.3683 107.752C98.4307 107.69 98.5041 107.659 98.5885 107.659H99.5302C99.6158 107.659 99.6892 107.69 99.7504 107.752C99.8127 107.814 99.8433 107.888 99.8433 107.973V115.479C99.8433 115.565 99.8127 115.638 99.7504 115.699C99.688 115.761 99.6146 115.792 99.5302 115.792H98.5885Z" fill="white"/>
<path d="M104.607 113.492L106.559 107.949C106.582 107.886 106.623 107.823 106.681 107.757C106.74 107.691 106.827 107.658 106.943 107.658H107.826C107.912 107.658 107.985 107.688 108.047 107.751C108.11 107.813 108.14 107.886 108.14 107.972V108.012C108.14 108.023 108.133 108.049 108.117 108.088L105.515 115.396C105.468 115.528 105.414 115.627 105.352 115.692C105.289 115.758 105.197 115.791 105.073 115.791H104.144C104.02 115.791 103.927 115.758 103.865 115.692C103.802 115.626 103.748 115.528 103.702 115.396L101.099 108.088C101.084 108.049 101.076 108.025 101.076 108.012V107.972C101.076 107.886 101.107 107.813 101.169 107.751C101.231 107.688 101.305 107.658 101.39 107.658H102.274C102.39 107.658 102.477 107.691 102.535 107.757C102.593 107.823 102.634 107.886 102.658 107.949L104.609 113.492H104.607Z" fill="white"/>
<path d="M114.785 114.339C114.871 114.339 114.944 114.37 115.007 114.432C115.069 114.494 115.1 114.568 115.1 114.653V115.479C115.1 115.565 115.069 115.638 115.007 115.699C114.944 115.761 114.871 115.792 114.785 115.792H109.685C109.6 115.792 109.526 115.761 109.464 115.699C109.402 115.637 109.371 115.563 109.371 115.479V107.973C109.371 107.888 109.402 107.814 109.464 107.752C109.526 107.69 109.6 107.659 109.685 107.659H114.692C114.778 107.659 114.851 107.69 114.914 107.752C114.976 107.814 115.007 107.888 115.007 107.973V108.799C115.007 108.884 114.976 108.958 114.914 109.019C114.851 109.081 114.778 109.112 114.692 109.112H110.939V110.96H114.437C114.522 110.96 114.596 110.99 114.657 111.053C114.719 111.115 114.75 111.189 114.75 111.273V112.099C114.75 112.184 114.719 112.257 114.657 112.319C114.595 112.381 114.521 112.412 114.437 112.412H110.939V114.34H114.784L114.785 114.339Z" fill="white"/>
<path d="M119.85 107.659C120.818 107.659 121.553 107.884 122.057 108.333C122.561 108.782 122.812 109.405 122.812 110.203C122.812 110.768 122.682 111.251 122.423 111.65C122.164 112.048 121.782 112.344 121.278 112.539L122.882 115.408C122.905 115.454 122.916 115.497 122.916 115.535C122.916 115.605 122.89 115.665 122.84 115.715C122.79 115.765 122.73 115.791 122.66 115.791H121.672C121.517 115.791 121.403 115.754 121.33 115.681C121.256 115.607 121.204 115.539 121.173 115.478L119.652 112.77H118.107V115.478C118.107 115.563 118.076 115.637 118.014 115.698C117.952 115.76 117.878 115.791 117.793 115.791H116.852C116.767 115.791 116.693 115.76 116.632 115.698C116.57 115.635 116.539 115.562 116.539 115.478V107.972C116.539 107.886 116.57 107.813 116.632 107.751C116.694 107.688 116.768 107.658 116.852 107.658H119.85V107.659ZM118.107 111.318H119.791C120.233 111.318 120.585 111.241 120.848 111.086C121.111 110.931 121.243 110.637 121.243 110.203C121.243 109.769 121.111 109.479 120.848 109.332C120.585 109.185 120.231 109.112 119.791 109.112H118.107V111.319V111.318Z" fill="white"/>
<path d="M130.203 107.659C130.288 107.659 130.362 107.69 130.423 107.752C130.485 107.814 130.516 107.888 130.516 107.973C130.516 108.012 130.509 108.047 130.493 108.077L127.738 112.923V115.479C127.738 115.565 127.708 115.638 127.645 115.699C127.583 115.761 127.51 115.792 127.425 115.792H126.496C126.41 115.792 126.337 115.761 126.276 115.699C126.213 115.637 126.183 115.563 126.183 115.479V112.923L123.429 108.077C123.413 108.047 123.405 108.011 123.405 107.973C123.405 107.888 123.436 107.814 123.498 107.752C123.561 107.69 123.634 107.659 123.718 107.659H124.589C124.744 107.659 124.861 107.698 124.938 107.775C125.015 107.852 125.061 107.911 125.077 107.949L126.959 111.236L128.842 107.949C128.857 107.91 128.904 107.852 128.981 107.775C129.058 107.698 129.174 107.659 129.33 107.659H130.2H130.203Z" fill="white"/>
<path d="M211.047 168.911H204.28C204.349 168.669 204.578 168.252 205.327 168.13C206.371 167.96 208.181 167.353 208.585 166.018C208.597 165.975 208.609 165.931 208.619 165.886C208.939 164.458 211.271 166.322 211.271 166.322C211.271 166.322 211.278 166.38 211.288 166.478C211.341 166.999 211.478 168.671 211.048 168.91L211.047 168.911Z" fill="#233862"/>
<path d="M205.605 130.733C205.605 130.733 205.958 135.149 206.375 140.458C206.941 147.67 207.621 156.529 207.689 158.207C207.805 161.121 208.272 165.782 208.272 165.782C208.272 165.782 209.379 166.89 211.594 166.423C211.594 166.423 213.568 159.768 214.132 152.729C214.14 152.614 214.149 152.498 214.158 152.381C214.682 145.215 215.498 130.122 215.498 130.122L205.607 130.734L205.605 130.733Z" fill="#2B478B"/>
<path d="M205.605 130.733C205.605 130.733 205.958 135.149 206.375 140.458L214.131 152.729C214.139 152.614 214.148 152.498 214.156 152.381C214.681 145.215 215.497 130.122 215.497 130.122L205.606 130.734L205.605 130.733Z" fill="#233862"/>
<path d="M207.221 131.256C207.221 131.256 213.602 147.252 217.798 154.768C221.993 162.285 223.304 164.383 223.304 164.383C223.304 164.383 225.707 163.421 225.926 162.766C225.926 162.766 224.321 148.255 221.512 144.716C219.925 142.718 218.06 136.719 217.973 134.622C217.886 132.524 217.404 128.372 217.404 128.372L207.221 131.256Z" fill="#2B478B"/>
<path d="M215.615 106.607C215.615 106.607 211.297 108.723 208.809 107.938C208.809 107.938 209.421 107.153 210.494 106.57C210.408 106.062 210.341 105.622 210.302 105.249C210.197 104.388 210.197 103.898 210.197 103.898L211.862 102.568L213.441 101.295C213.317 104.874 215.615 106.607 215.615 106.607Z" fill="#FFB27D"/>
<path d="M217.889 129.192C217.898 129.46 217.333 129.767 217.085 129.882C215.237 130.705 213.514 131.279 211.562 131.47C209.255 131.71 206.527 131.183 205.589 131.202C205.493 131.202 205.407 131.164 205.331 131.097C205.263 131.049 205.216 128.226 205.263 124.674C205.263 124.531 205.263 124.386 205.273 124.243V124.196C205.293 122.808 205.34 121.352 205.408 119.898C205.542 116.701 205.791 113.618 206.211 111.914C206.719 109.903 207.867 108.573 208.91 107.607L209.773 106.841C210.634 107.013 211.544 106.966 212.454 106.516C213.449 106.028 214.538 105.48 214.711 105.613C216.013 106.581 216.877 108.775 217.346 111.55C217.614 113.148 217.748 114.939 217.738 116.815C217.738 117.505 217.719 118.213 217.681 118.911C217.451 122.701 217.681 125.995 217.814 127.899C217.852 128.454 217.881 128.885 217.891 129.192H217.889Z" fill="#B64C41"/>
<path d="M217.813 127.899C196.897 127.871 213.955 112.305 213.955 112.305L217.344 111.549C217.612 113.148 217.747 114.938 217.737 116.814C217.737 117.504 217.717 118.212 217.68 118.911C217.45 122.701 217.68 125.994 217.813 127.899Z" fill="#A03C37"/>
<path d="M192.084 127.797H205.089V114.793H192.084V127.797Z" fill="#E69D43"/>
<path d="M204.546 127.797H210.5V114.793H204.546V127.797Z" fill="#D57912"/>
<path d="M203.136 121.487L202.361 121.238C202.361 121.238 201.82 119.445 199.988 120.248C199.988 120.248 199.244 120.641 199.572 121.109C199.899 121.575 199.84 121.33 200.287 122.001C200.735 122.674 201.443 122.992 202.008 122.739L202.651 122.757L203.136 121.487Z" fill="#FFB27D"/>
<path d="M215.617 106.602C215.617 106.602 220.353 114.135 215.307 122.84C213.732 125.558 201.836 122.975 201.836 122.975C201.836 122.975 201.372 122.137 202.614 121.254C202.614 121.254 210.534 119.914 211.478 119.689C212.316 119.489 211.757 111.792 212.714 109.558C213.672 107.325 215.615 106.602 215.615 106.602H215.617Z" fill="#B64C41"/>
<path d="M213.471 102.663C213.471 102.663 212.38 104.682 210.302 105.247C210.197 104.386 210.197 103.897 210.197 103.897L211.863 102.566L213.471 102.662V102.663Z" fill="#ED985F"/>
<path d="M209.438 103.84C209.438 103.84 213.556 104.523 213.942 101.952C214.328 99.3816 215.121 97.7379 212.507 97.1924C209.894 96.647 209.235 97.5508 208.897 98.3775C208.559 99.2043 208.376 103.595 209.438 103.84Z" fill="#FFB27D"/>
<path d="M213.915 102.13C213.915 102.13 213.832 98.6856 210.08 98.1328C207.509 97.7537 207.723 95.8922 208.016 95.5522C208.016 95.5522 211.338 95.5804 213.335 96.083C216.355 96.8438 214.361 101.618 213.915 102.131V102.13Z" fill="#233862"/>
<path d="M225.924 163.306L225.724 163.049L223.456 164.32C223.435 164.754 223.423 165.255 223.447 165.694C223.464 165.993 223.447 166.297 223.392 166.585C223.344 166.81 223.105 167.77 222.403 168.023C221.605 168.309 221.542 168.922 222.903 168.912C223.146 168.911 223.386 168.91 223.614 168.908C224.462 168.906 225.188 168.329 225.42 167.512C225.51 167.19 225.679 166.829 225.971 166.445C226.329 166.027 226.751 165.658 226.886 165.2C227.12 164.414 225.925 163.307 225.925 163.307L225.924 163.306Z" fill="#233862"/>
</svg>
