<svg width="250" height="250" viewBox="0 0 250 250" fill="none" xmlns="http://www.w3.org/2000/svg">
<circle opacity="0.03" cx="125" cy="125" r="125" fill="black"/>
<mask id="mask0_15_14" style="mask-type:alpha" maskUnits="userSpaceOnUse" x="0" y="0" width="250" height="250">
<circle cx="125" cy="125" r="125" fill="black"/>
</mask>
<g mask="url(#mask0_15_14)">
<path d="M162.286 86.1112L132.902 109.957L123.405 99.5611L111.076 110.823C112.525 112.428 121.165 121.831 122.347 123.215C127.122 128.806 136.443 128.824 141.247 123.262L168.001 93.5637L162.286 86.1134V86.1112Z" fill="#F4D2C6"/>
<mask id="mask1_15_14" style="mask-type:luminance" maskUnits="userSpaceOnUse" x="111" y="86" width="58" height="42">
<path d="M162.286 86.1112L132.902 109.957L123.405 99.5611L111.076 110.823C112.525 112.428 121.165 121.831 122.347 123.215C127.122 128.806 136.443 128.824 141.247 123.262L168.001 93.5637L162.286 86.1134V86.1112Z" fill="white"/>
</mask>
<g mask="url(#mask1_15_14)">
<path d="M132.904 109.958L124.851 127.457L115.961 119.618L130.023 105.994L132.904 109.958Z" fill="#EDA19D"/>
</g>
<path d="M151.292 91.1313H178.499C179.963 91.1313 181.153 92.3196 181.153 93.7859V133.947C181.153 135.411 179.965 136.602 178.499 136.602H151.292C149.828 136.602 148.637 135.414 148.637 133.947V93.7859C148.637 92.3218 149.825 91.1313 151.292 91.1313Z" fill="#324D90"/>
<path d="M177.972 94.6288H151.821V133.129H177.972V94.6288Z" fill="#F3F5FB"/>
<path d="M169.412 90.1311H160.379C159.792 90.1311 159.316 90.6069 159.316 91.1939V94.6421C159.316 95.229 159.792 95.7048 160.379 95.7048H169.412C169.999 95.7048 170.475 95.229 170.475 94.6421V91.1939C170.475 90.6069 169.999 90.1311 169.412 90.1311Z" fill="#152E60"/>
<path d="M175.757 101.052H154.038V103.671H175.757V101.052Z" fill="#E3EAF4"/>
<path d="M175.757 106.805H154.038V109.424H175.757V106.805Z" fill="#E3EAF4"/>
<path d="M175.757 112.556H154.038V115.175H175.757V112.556Z" fill="#E3EAF4"/>
<path d="M175.757 118.309H154.038V120.928H175.757V118.309Z" fill="#E3EAF4"/>
<path d="M169.266 124.062H154.038V126.681H169.266V124.062Z" fill="#E3EAF4"/>
<path d="M160.643 89.0551C160.233 92.4988 163.051 94.2835 165.732 95.6332C169.645 98.0321 175.071 94.1019 173.893 89.6268C173.472 86.4633 171.447 84.9207 168.49 84.1921C165.172 83.1204 160.921 85.4207 160.643 89.0528V89.0551Z" fill="#F4D2C6"/>
<path d="M60.5757 112.091L92.4897 95.3497L82.3029 75.9301L50.3889 92.6711L60.5757 112.091Z" fill="#214D9A"/>
<path d="M49.0683 115.796L59.4287 108.861L52.1892 96.1063C46.0595 99.7182 35.9793 103.465 36.1206 112.076C36.6743 115.596 32.0423 154.706 35.8381 156.392C40.3109 161.484 45.2277 157.316 49.3283 154.298L43.5977 154.24L49.0683 115.796Z" fill="#F4D2C6"/>
<mask id="mask2_15_14" style="mask-type:luminance" maskUnits="userSpaceOnUse" x="34" y="96" width="26" height="63">
<path d="M49.0683 115.796L59.4287 108.861L52.1892 96.1063C46.0595 99.7182 35.9793 103.465 36.1206 112.076C36.6743 115.596 32.0423 154.706 35.8381 156.392C40.3109 161.484 45.2277 157.316 49.3283 154.298L43.5977 154.24L49.0683 115.796Z" fill="white"/>
</mask>
<g mask="url(#mask2_15_14)">
<path d="M47.627 96.3486L51.3756 111.35L59.9693 105.756L54.084 92.9183L47.627 96.3486Z" fill="#EDA19D"/>
</g>
<path d="M133.469 106.111L107.986 80.6277L92.48 96.134L117.963 121.617L133.469 106.111Z" fill="#214D9A"/>
<path d="M118.5 121.081L114.222 97.6513L121.455 118.128L118.5 121.081Z" fill="#1E3865"/>
<path d="M64.9312 133.183L67.6552 275.926H77.2533L97.3711 132.862L64.9312 133.183Z" fill="#FF9841"/>
<mask id="mask3_15_14" style="mask-type:luminance" maskUnits="userSpaceOnUse" x="64" y="132" width="34" height="144">
<path d="M64.9312 133.183L67.6552 275.926H77.2533L97.3711 132.862L64.9312 133.183Z" fill="white"/>
</mask>
<g mask="url(#mask3_15_14)">
<path d="M91.9805 171.204C78.0329 189.732 73.8313 251.197 72.7305 277.866H81.1515L91.568 212.47L91.9805 171.206" fill="#FB7C1D"/>
</g>
<path d="M119.152 133.183L116.428 275.926H106.372L86.7119 132.862L119.152 133.183Z" fill="#FF9841"/>
<mask id="mask4_15_14" style="mask-type:luminance" maskUnits="userSpaceOnUse" x="86" y="132" width="34" height="144">
<path d="M119.152 133.183L116.428 275.926H106.372L86.7119 132.862L119.152 133.183Z" fill="white"/>
</mask>
<g mask="url(#mask4_15_14)">
<path d="M91.981 171.204C103.841 186.27 110.379 255.408 110.668 277.03H102.931L91.981 171.204Z" fill="#FB7C1D"/>
</g>
<path d="M82.6719 54.2767C83.4096 58.7137 79.5936 59.3616 78.8246 54.9291C78.087 50.4944 81.9029 49.8442 82.6719 54.2767Z" fill="#EDA19D"/>
<path d="M101.047 54.2766C100.31 58.7136 104.126 59.3616 104.895 54.9291C105.632 50.4943 101.816 49.8441 101.047 54.2766Z" fill="#EDA19D"/>
<path d="M102.78 54.8285C102.509 72.3073 81.2076 72.3051 80.9386 54.8285C79.0015 36.9371 104.139 36.7622 102.78 54.8285Z" fill="#F4D2C6"/>
<mask id="mask5_15_14" style="mask-type:luminance" maskUnits="userSpaceOnUse" x="80" y="41" width="23" height="27">
<path d="M102.78 54.8285C102.509 72.3073 81.2076 72.3051 80.9386 54.8285C79.0015 36.9371 104.139 36.7622 102.78 54.8285Z" fill="white"/>
</mask>
<g mask="url(#mask5_15_14)">
<path d="M81.8823 48.5348C81.8823 48.5348 90.1375 50.241 101.206 47.1694L100.009 43.2144L83.9002 43.7862L81.8823 47.8599" fill="#EDA19D"/>
</g>
<path d="M97.5202 58.039H86.2002C87.5656 61.9379 84.5859 81.4615 84.5859 81.4615H99.1345C99.1345 81.4615 96.1548 61.9379 97.5202 58.039Z" fill="#F4D2C6"/>
<path d="M86.3536 66.3031C86.3536 66.3031 91.4834 70.258 97.3642 66.3031L97.6736 69.8433C97.6736 69.8433 91.3422 72.8027 86.042 69.8791L86.3536 66.3008V66.3031Z" fill="#EDA19D"/>
<path d="M82.4187 45.4053C82.4187 45.4053 96.7004 46.8267 100.384 44.6295C104.068 42.4323 103.292 35 103.292 35C101.198 35.3341 77.4728 34.7534 82.4187 45.4053Z" fill="#0B3563"/>
<path d="M82.6898 40.632C82.6898 40.632 78.7012 41.8293 78.2214 43.4637C77.7416 45.1004 81.0867 51.4229 81.0867 51.4229C81.9858 51.4139 82.7593 50.7929 82.9633 49.9185L84.2054 44.5825L82.6898 40.632Z" fill="#0B3563"/>
<path d="M101 40.632C101 40.632 104.989 41.8293 105.469 43.4637C105.949 45.1004 102.604 51.4229 102.604 51.4229C101.7 51.4476 100.868 50.683 100.727 49.9163C100.702 49.8109 99.4849 44.5825 99.4849 44.5825L101 40.632Z" fill="#0B3563"/>
<path d="M99.4829 45.031C99.4829 45.031 102.705 43.1656 102.781 41.3092C102.781 41.3092 103.998 45.7843 99.4829 45.031Z" fill="#34254B"/>
<path d="M114.475 94.4832C112.321 80.1297 101.362 72.9395 89.0798 74.5291C79.2731 74.1682 70.4373 84.143 69.2176 94.4989C69.0607 95.5347 61.2158 147.366 61.2158 147.366H122.482L114.477 94.4832H114.475Z" fill="#214D9A"/>
<mask id="mask6_15_14" style="mask-type:luminance" maskUnits="userSpaceOnUse" x="61" y="74" width="62" height="74">
<path d="M114.475 94.4832C112.321 80.1297 101.362 72.9395 89.0798 74.5291C79.2731 74.1682 70.4373 84.143 69.2176 94.4989C69.0607 95.5347 61.2158 147.366 61.2158 147.366H122.482L114.477 94.4832H114.475Z" fill="white"/>
</mask>
<g mask="url(#mask6_15_14)">
<path d="M85.4748 148.684L96.7567 136.6L73.1257 98.2364L81.1925 133.856L56.9854 150.884L85.4748 148.684Z" fill="#224D9A"/>
</g>
<path d="M73.125 98.2436L27.082 118.772L43.986 156.686L90.029 136.157L73.125 98.2436Z" fill="#F3AC4A"/>
<path d="M53.6807 106.912L46.5239 110.103L49.0657 115.803L56.2225 112.613L53.6807 106.912Z" fill="#FDF1E6"/>
<path d="M40.0444 150.883C42.4793 151.417 47.1718 151.26 47.627 154.583L40.0444 154.966V150.883Z" fill="#F4D2C6"/>
<path d="M85.4746 74.9193C87.6853 81.4773 96.0323 81.475 98.243 74.9193C98.243 74.9193 92.7814 71.9644 85.4746 74.9193Z" fill="#F4D2C6"/>
<path d="M65.1665 147.38H118.881L65.3997 157.772L65.1665 147.38Z" fill="#FB7C1D"/>
<path d="M85.4747 74.9194L91.5663 79.8563L89.044 81.4504C85.0218 83.5646 84.3672 77.9954 83.3896 75.5113C83.3896 75.5113 84.4501 75.0472 85.4725 74.9171L85.4747 74.9194Z" fill="#F3F5FB"/>
<path d="M93.0933 79.7372L95.4653 81.208C97.1289 82.2416 99.3127 81.2865 99.6826 79.3628L100.418 75.5536C100.418 75.5536 98.7566 75.0021 98.2432 74.9191L93.0933 79.7395V79.7372Z" fill="#F3F5FB"/>
<path d="M178.983 155H133V210.555H178.983V155Z" fill="#F3AC4A"/>
<path d="M159.545 155H152.44V160.391H159.545V155Z" fill="#FDF1E6"/>
<path d="M203.001 155H178.982V210.555H203.001V155Z" fill="#F08F3C"/>
<path d="M195.324 155H189.237V160.391H195.324V155Z" fill="#FDF1E6"/>
</g>
</svg>
