<svg width="230" height="164" viewBox="0 0 230 164" fill="none" xmlns="http://www.w3.org/2000/svg">
<path opacity="0.5" d="M59.5632 127.501L55.2306 127.721L54.9489 125.834L46.5147 118.323C45.3766 117.309 43.4554 116.352 41.6807 115.923C39.4214 115.371 45.5569 113.58 42.9258 113.134C41.8835 112.932 33.9789 112.875 32.0746 112.982C25.1954 113.365 22.8572 116.774 27.6631 121.157C32.6267 125.676 42.2948 129.654 48.8247 129.975L54.0757 130.234L112.54 163.988H115.741L117.69 161.069L59.552 127.501H59.5632Z" fill="#A59D9A"/>
<path opacity="0.5" d="M35.5848 66.248L0 86.7955L99.1992 144.066H101.492L35.5848 66.248Z" fill="#A59D9A"/>
<path opacity="0.5" d="M95.3229 159.684L90.3424 162.563L52.5659 140.753L57.5521 137.874L95.3229 159.684Z" fill="#A59D9A"/>
<path opacity="0.5" d="M105.56 163.132L103.965 161.323C103.937 161.289 103.858 161.238 103.762 161.182C103.734 161.165 103.723 161.154 103.689 161.143C103.661 161.126 103.633 161.115 103.599 161.098C100.805 159.492 105.244 162.061 71.327 142.404L70.5382 142.612L69.7382 143.085L69.3945 143.542L100.985 161.847L101.345 162.044L105.03 163.272L105.791 163.526C105.83 163.537 105.898 163.52 105.881 163.503L105.56 163.137V163.132Z" fill="#A59D9A"/>
<path opacity="0.5" d="M105.408 142.674L110.693 145.728H116.654L124.108 131.879L105.408 142.674Z" fill="#A59D9A"/>
<path d="M1.63965 85.0093L1.65655 86.553L101.543 144.223L102.422 141.502L1.63965 85.0093Z" fill="#E7AB5C"/>
<path d="M216.394 59.8199L116.496 1.76074C120.896 4.31861 119.347 17.0516 104.501 25.6211C94.8217 31.2101 11.2852 79.4434 1.63965 85.0099L101.537 143.069C111.177 137.503 194.72 89.2692 204.393 83.6859C219.239 75.1164 220.788 62.3834 216.388 59.8256L216.394 59.8199Z" fill="url(#paint0_linear_1_4234)"/>
<path d="M96.647 139.057C96.6019 139.057 96.5512 139.035 96.5287 138.99C96.4892 138.922 96.5118 138.837 96.5794 138.798L201.018 78.4965C201.052 78.4739 204.81 76.2372 206.399 73.6906C206.421 73.6512 206.461 73.623 206.647 73.4709C210.76 70.1637 211.853 67.0255 212.044 64.9803C212.281 62.4675 211.351 59.9604 209.283 57.5321C209.233 57.4757 209.238 57.3856 209.3 57.3349C209.357 57.2842 209.447 57.2898 209.498 57.3518C211.616 59.8364 212.563 62.4112 212.32 65.0085C212.123 67.11 211.008 70.3214 206.821 73.6906C206.714 73.7751 206.647 73.8315 206.624 73.854C205.002 76.44 201.311 78.6486 201.154 78.7387L96.7146 139.04C96.7146 139.04 96.6695 139.057 96.647 139.057Z" fill="#D3D6DD"/>
<path d="M101.543 141.965C101.543 141.965 101.493 141.959 101.476 141.948L3.71312 85.1338C3.66804 85.1112 3.64551 85.0661 3.64551 85.0154C3.64551 84.9647 3.67368 84.9197 3.71312 84.8971L104.969 26.4323C115.747 20.2066 119.584 11.8964 119.589 6.66795C119.589 6.01439 119.533 5.38901 119.42 4.80307C119.409 4.75236 119.431 4.69602 119.477 4.66221C119.522 4.62841 119.578 4.62841 119.629 4.65658L213.69 58.5296C214.011 58.6141 217.628 59.6508 217.628 64.7215C217.622 69.4485 214.028 77.0432 203.943 82.8689C194.421 88.3677 114.164 134.702 101.622 141.942C101.6 141.953 101.577 141.959 101.555 141.959L101.543 141.965ZM4.06243 85.0098L101.549 141.666C114.316 134.297 194.291 88.1198 203.802 82.6322C213.791 76.8629 217.34 69.3809 217.352 64.7271C217.352 59.679 213.763 58.8339 213.611 58.8001C213.599 58.8001 213.583 58.7944 213.571 58.7832L119.741 5.05097C119.826 5.5693 119.865 6.11017 119.865 6.67358C119.86 11.9752 115.989 20.3926 105.104 26.6746L4.06243 85.0098Z" fill="#D3D6DD"/>
<g style="mix-blend-mode:multiply" opacity="0.9">
<path d="M106.67 24.2626L206.883 82.1246C219.402 73.6453 220.535 62.2307 216.394 59.8249L116.496 1.76013C120.671 4.18842 119.465 15.7608 106.67 24.257V24.2626Z" fill="white"/>
</g>
<path d="M114.693 12.1385C114.597 12.0821 114.462 12.0878 114.321 12.1667C114.197 12.2399 114.068 12.3695 113.961 12.5723C112.71 14.8823 111.251 16.319 109.881 17.1077C108.946 17.6486 108.05 17.8853 107.307 17.8909C106.631 17.8965 106.073 17.7557 105.622 17.4965L205.52 75.5557C205.971 75.8148 206.528 75.9557 207.204 75.9501C207.948 75.9444 208.844 75.7078 209.779 75.1669C211.143 74.3782 212.608 72.9415 213.858 70.6315C213.971 70.4287 214.095 70.2935 214.219 70.2202C214.36 70.1413 214.489 70.1357 214.591 70.192L114.693 12.1385Z" fill="#D88110"/>
<path d="M117.189 0.520898C115.814 -0.279141 113.927 -0.205898 111.696 1.07867C111.324 1.29277 110.941 1.54067 110.552 1.828C103.909 6.66768 101.047 16.4879 104.907 18.7302L204.804 76.7894C200.945 74.5471 204.269 65.4705 210.45 60.1407C210.816 59.8252 211.475 59.5153 211.847 59.3012C214.078 58.011 215.712 57.78 217.092 58.5801L117.189 0.520898Z" fill="#D88110"/>
<path d="M211.593 59.1378C211.222 59.3519 210.838 59.5998 210.45 59.8871C202.9 65.386 200.229 77.3189 206.765 77.257C207.65 77.2513 208.703 76.9696 209.807 76.3273C211.419 75.3977 213.143 73.7075 214.613 70.9862C214.951 70.3609 214.608 70.0059 214.225 70.2256C214.101 70.2989 213.971 70.4285 213.864 70.6369C212.613 72.9469 211.154 74.3836 209.785 75.1724C208.85 75.7132 207.954 75.9499 207.21 75.9555C201.542 76.0006 204.089 65.6958 210.585 60.9632C210.923 60.7153 211.255 60.5012 211.577 60.3153C220.647 55.0756 223.324 72.761 204.399 83.6854C194.719 89.2745 111.183 137.502 101.543 143.069V144.229C111.189 138.663 194.725 90.4294 204.404 84.8461C224.828 73.0539 221.859 53.2164 211.593 59.1434V59.1378Z" fill="#E7AB5C"/>
<path d="M125.662 128.043C125.662 128.043 125.617 128.037 125.595 128.026L120.625 125.158C120.558 125.119 120.535 125.034 120.575 124.967C120.614 124.899 120.699 124.876 120.766 124.916L125.735 127.784C125.803 127.823 125.826 127.908 125.786 127.975C125.764 128.02 125.713 128.043 125.668 128.043H125.662Z" fill="#D3D6DD"/>
<path d="M150.384 113.765C150.384 113.765 150.339 113.76 150.316 113.749L145.347 110.881C145.279 110.841 145.257 110.757 145.296 110.689C145.336 110.622 145.42 110.599 145.488 110.639L150.457 113.506C150.525 113.546 150.547 113.63 150.508 113.698C150.485 113.743 150.435 113.765 150.389 113.765H150.384Z" fill="#D3D6DD"/>
<path d="M160.418 107.973C160.418 107.973 160.373 107.968 160.35 107.957L155.381 105.089C155.314 105.049 155.291 104.965 155.33 104.897C155.37 104.83 155.454 104.807 155.522 104.847L160.491 107.714C160.559 107.754 160.581 107.838 160.542 107.906C160.519 107.951 160.469 107.973 160.424 107.973H160.418Z" fill="#D3D6DD"/>
<path d="M190.167 90.8016C190.167 90.8016 190.121 90.796 190.099 90.7847L185.13 87.9169C185.062 87.8775 185.04 87.793 185.079 87.7254C185.118 87.6578 185.203 87.6352 185.271 87.6747L190.24 90.5424C190.307 90.5819 190.33 90.6664 190.29 90.734C190.268 90.7791 190.217 90.8016 190.172 90.8016H190.167Z" fill="#D3D6DD"/>
<path d="M202.685 83.5731C202.685 83.5731 202.64 83.5674 202.617 83.5562L197.648 80.6884C197.581 80.649 197.558 80.5645 197.598 80.4969C197.637 80.4293 197.721 80.4067 197.789 80.4462L202.758 83.3139C202.826 83.3534 202.848 83.4379 202.809 83.5055C202.787 83.5505 202.736 83.5731 202.691 83.5731H202.685Z" fill="#D3D6DD"/>
<path d="M123.149 126.521C123.104 126.521 123.053 126.498 123.031 126.453C122.991 126.386 123.014 126.301 123.081 126.262L157.765 106.238C157.832 106.199 157.917 106.221 157.956 106.289C157.996 106.356 157.973 106.441 157.906 106.48L123.222 126.504C123.222 126.504 123.177 126.521 123.155 126.521H123.149Z" fill="#D3D6DD"/>
<path d="M187.637 89.2854C187.592 89.2854 187.541 89.2628 187.518 89.2178C187.479 89.1502 187.502 89.0657 187.569 89.0262L200.015 81.8428C200.082 81.8033 200.167 81.8259 200.206 81.8935C200.246 81.9611 200.223 82.0456 200.156 82.085L187.71 89.2685C187.71 89.2685 187.665 89.2854 187.642 89.2854H187.637Z" fill="#D3D6DD"/>
<path d="M143.787 98.9089C143.787 98.9089 143.742 98.9033 143.719 98.892L115.279 82.4687C115.233 82.4462 115.211 82.3954 115.211 82.3504C115.211 82.3053 115.239 82.2546 115.279 82.2321L116.321 81.6292C116.366 81.6067 116.417 81.6067 116.462 81.6292L144.903 98.0525C144.948 98.0751 144.97 98.1202 144.97 98.1709C144.97 98.2216 144.942 98.2666 144.903 98.2892L143.86 98.892C143.86 98.892 143.815 98.9089 143.793 98.9089H143.787ZM115.622 82.3504L143.787 98.6103L144.553 98.1709L116.388 81.9109L115.628 82.3504H115.622Z" fill="#D3D6DD"/>
<path d="M56.9666 104.622C56.9666 104.622 56.9215 104.616 56.899 104.605L55.8567 104.002C55.8116 103.979 55.7891 103.934 55.7891 103.884C55.7891 103.833 55.8172 103.788 55.8567 103.765L85.4074 86.7054C85.4525 86.6828 85.5032 86.6828 85.5483 86.7054L86.5906 87.3082C86.6356 87.3308 86.6582 87.3758 86.6582 87.4265C86.6582 87.4772 86.63 87.5223 86.5906 87.5449L57.0398 104.605C57.0398 104.605 56.9948 104.622 56.9722 104.622H56.9666ZM56.206 103.884L56.9666 104.323L86.2413 87.4209L85.4807 86.9815L56.206 103.884Z" fill="#D3D6DD"/>
<path d="M72.2058 80.4743C72.2058 80.4743 72.1608 80.4687 72.1382 80.4574L71.0959 79.8546C71.0509 79.8321 71.0283 79.7814 71.0283 79.7363C71.0283 79.6912 71.0565 79.6405 71.0959 79.618L80.4147 74.2374C80.4598 74.2149 80.5105 74.2149 80.5555 74.2374L81.5979 74.8403C81.6429 74.8628 81.6655 74.9135 81.6655 74.9586C81.6655 75.0037 81.6373 75.0544 81.5979 75.0769L72.2791 80.4574C72.2791 80.4574 72.234 80.4743 72.2115 80.4743H72.2058ZM71.4452 79.7363L72.2058 80.1757L81.2485 74.9586L80.4879 74.5191L71.4452 79.7363Z" fill="#D3D6DD"/>
<path d="M90.1277 70.1294C90.1277 70.1294 90.0826 70.1237 90.0601 70.1124L89.0178 69.5096C88.9727 69.4871 88.9502 69.4364 88.9502 69.3913C88.9502 69.3462 88.9784 69.2955 89.0178 69.273L108.816 57.8414C108.861 57.8189 108.912 57.8189 108.957 57.8414L109.999 58.4443C110.044 58.4668 110.067 58.5175 110.067 58.5626C110.067 58.6077 110.039 58.6584 109.999 58.6809L90.201 70.1124C90.201 70.1124 90.1559 70.1294 90.1333 70.1294H90.1277ZM89.3671 69.3913L90.1277 69.8307L109.644 58.5626L108.884 58.1231L89.3671 69.3913Z" fill="#D3D6DD"/>
<path d="M116.4 83.0768C116.4 83.0768 116.355 83.0711 116.333 83.0599L115.29 82.457C115.245 82.4345 115.223 82.3838 115.223 82.3387C115.223 82.2936 115.251 82.2429 115.29 82.2204L119.747 79.6456C119.792 79.6231 119.843 79.6231 119.888 79.6456L120.93 80.2485C120.975 80.271 120.998 80.3217 120.998 80.3668C120.998 80.4119 120.969 80.4626 120.93 80.4851L116.473 83.0599C116.473 83.0599 116.428 83.0768 116.406 83.0768H116.4ZM115.64 82.3387L116.4 82.7782L120.581 80.3668L119.82 79.9273L115.64 82.3387Z" fill="#D3D6DD"/>
<path d="M129.46 75.5384C129.46 75.5384 129.415 75.5328 129.392 75.5215L128.35 74.9187C128.305 74.8961 128.282 74.8454 128.282 74.8004C128.282 74.7553 128.31 74.7046 128.35 74.6821L152.74 60.5969C152.785 60.5743 152.836 60.5743 152.881 60.5969L153.923 61.1997C153.968 61.2222 153.991 61.2729 153.991 61.318C153.991 61.3631 153.962 61.4138 153.923 61.4363L129.533 75.5159C129.533 75.5159 129.488 75.5328 129.465 75.5328L129.46 75.5384ZM128.699 74.8004L129.46 75.2398L153.574 61.318L152.813 60.8786L128.699 74.8004Z" fill="#D3D6DD"/>
<path d="M95.4242 126.831C95.4242 126.831 95.3792 126.826 95.3566 126.814L23.7644 85.477C23.7193 85.4545 23.6968 85.4094 23.6968 85.3587C23.6968 85.308 23.7249 85.2629 23.7644 85.2404L109.6 35.6774C109.645 35.6549 109.695 35.6549 109.74 35.6774L181.333 77.0146C181.378 77.0372 181.4 77.0879 181.4 77.133C181.4 77.178 181.372 77.2287 181.333 77.2513L138.502 101.979C138.457 102.002 138.407 102.002 138.362 101.979L137.252 101.337C137.207 101.314 137.184 101.269 137.184 101.219C137.184 101.168 137.212 101.123 137.252 101.1L178.764 77.133L109.667 37.2381L26.3279 85.3531L95.4242 125.248L128.648 106.064C128.693 106.041 128.744 106.041 128.789 106.064L129.899 106.706C129.944 106.729 129.967 106.774 129.967 106.825C129.967 106.875 129.939 106.92 129.899 106.943L95.4918 126.809C95.4918 126.809 95.4468 126.826 95.4242 126.826V126.831ZM24.1081 85.3531L95.4242 126.527L129.55 106.825L128.716 106.346L95.4918 125.53C95.4468 125.552 95.3961 125.552 95.351 125.53L25.9842 85.477C25.9391 85.4545 25.9166 85.4094 25.9166 85.3587C25.9166 85.308 25.9448 85.2629 25.9842 85.2404L109.6 36.9564C109.645 36.9338 109.695 36.9338 109.74 36.9564L179.113 77.009C179.158 77.0316 179.18 77.0823 179.18 77.1273C179.18 77.1724 179.152 77.2231 179.113 77.2456L137.601 101.213L138.435 101.692L180.983 77.1273L109.673 35.9535L24.1081 85.3531Z" fill="#D3D6DD"/>
<path d="M57.6764 72.1078C57.6764 72.1078 57.6314 72.1022 57.6088 72.0909L52.2903 69.0203C52.2452 68.9978 52.2227 68.9471 52.2227 68.902C52.2227 68.8569 52.2508 68.8062 52.2903 68.7837L53.3326 68.1808C53.3776 68.1583 53.4283 68.1583 53.4734 68.1808L58.792 71.2514C58.8371 71.274 58.8596 71.3247 58.8596 71.3697C58.8596 71.4148 58.8314 71.4655 58.792 71.488L57.7497 72.0909C57.7497 72.0909 57.7046 72.1078 57.6821 72.1078H57.6764ZM52.6339 68.8964L57.6764 71.8092L58.437 71.3697L53.3945 68.4569L52.6339 68.8964Z" fill="#D3D6DD"/>
<path d="M95.0131 93.6634C95.0131 93.6634 94.968 93.6578 94.9455 93.6465L66.2116 77.0598C66.1666 77.0373 66.144 76.9866 66.144 76.9415C66.144 76.8964 66.1722 76.8457 66.2116 76.8232L67.254 76.2203C67.299 76.1978 67.3497 76.1978 67.3948 76.2203L96.1286 92.8071C96.1737 92.8296 96.1962 92.8747 96.1962 92.9254C96.1962 92.9761 96.168 93.0212 96.1286 93.0437L95.0863 93.6465C95.0863 93.6465 95.0412 93.6634 95.0187 93.6634H95.0131ZM66.561 76.9359L95.0131 93.3648L95.7737 92.9254L67.3216 76.4964L66.561 76.9359Z" fill="#D3D6DD"/>
<path d="M123.938 110.369C123.938 110.369 123.893 110.363 123.87 110.352L103.548 98.6161C103.503 98.5936 103.48 98.5485 103.48 98.4978C103.48 98.4471 103.509 98.402 103.548 98.3795L104.59 97.7766C104.635 97.7485 104.686 97.7485 104.731 97.7766L125.053 109.512C125.098 109.535 125.121 109.58 125.121 109.631C125.121 109.681 125.093 109.727 125.053 109.749L124.011 110.352C124.011 110.352 123.966 110.369 123.943 110.369H123.938ZM103.892 98.4978L123.938 110.07L124.698 109.631L104.652 98.0583L103.892 98.4978Z" fill="#D3D6DD"/>
<path d="M133.241 73.3576C133.241 73.3576 133.196 73.352 133.173 73.3407L125.894 69.1377C125.849 69.1152 125.826 69.0644 125.826 69.0194C125.826 68.9743 125.854 68.9236 125.894 68.9011L126.936 68.2982C126.981 68.2757 127.032 68.2757 127.077 68.2982L134.351 72.5012C134.396 72.5238 134.418 72.5745 134.418 72.6195C134.418 72.6646 134.39 72.7153 134.351 72.7379L133.308 73.3407C133.308 73.3407 133.263 73.3576 133.241 73.3576ZM126.243 69.0194L133.241 73.059L134.001 72.6195L127.004 68.5799L126.237 69.0194H126.243Z" fill="#D3D6DD"/>
<path d="M117.358 64.1854C117.358 64.1854 117.313 64.1798 117.29 64.1685L88.9792 47.824C88.9342 47.8015 88.9116 47.7508 88.9116 47.7057C88.9116 47.6606 88.9398 47.6099 88.9792 47.5874L90.0215 46.9846C90.0666 46.962 90.1173 46.962 90.1624 46.9846L118.474 63.329C118.519 63.3516 118.541 63.4023 118.541 63.4473C118.541 63.4924 118.513 63.5431 118.474 63.5656L117.431 64.1685C117.431 64.1685 117.386 64.1854 117.364 64.1854H117.358ZM89.3229 47.7001L117.358 63.8868L118.119 63.4473L90.0835 47.2606L89.3229 47.7001Z" fill="#D3D6DD"/>
<path d="M138.413 101.984C138.413 101.984 138.367 101.978 138.345 101.967L128.671 96.3836C128.604 96.3441 128.581 96.2596 128.62 96.192C128.66 96.1244 128.744 96.1019 128.812 96.1413L138.486 101.725C138.553 101.764 138.576 101.849 138.536 101.916C138.514 101.961 138.463 101.984 138.418 101.984H138.413Z" fill="#D3D6DD"/>
<g opacity="0.5">
<path d="M128.869 106.232C128.869 106.232 128.852 106.232 128.841 106.226C126.531 104.891 125.257 103.116 125.257 101.223C125.257 99.3302 126.531 97.5554 128.841 96.2202C128.863 96.2033 128.903 96.2145 128.914 96.2427C128.931 96.2709 128.919 96.3047 128.891 96.3159C126.615 97.6287 125.364 99.3696 125.364 101.223C125.364 103.077 126.615 104.818 128.891 106.131C128.919 106.147 128.925 106.181 128.914 106.204C128.903 106.221 128.886 106.232 128.869 106.232Z" fill="#D3D6DD"/>
</g>
<path d="M86.2862 98.7056C86.2411 98.7056 86.1904 98.683 86.1678 98.638C86.1284 98.5704 86.1509 98.4858 86.2185 98.4464L95.8923 92.863C95.9599 92.8236 96.0444 92.8461 96.0838 92.9137C96.1233 92.9813 96.1007 93.0659 96.0331 93.1053L86.3594 98.6887C86.3594 98.6887 86.3143 98.7056 86.2918 98.7056H86.2862Z" fill="#D3D6DD"/>
<g opacity="0.5">
<path d="M94.8722 100.599C91.7509 100.599 88.6353 99.9115 86.2633 98.5424C86.2352 98.5255 86.2295 98.4917 86.2408 98.4692C86.2577 98.441 86.2915 98.4298 86.314 98.4467C91.0298 101.174 98.709 101.174 103.425 98.4467C103.453 98.4298 103.487 98.441 103.498 98.4692C103.515 98.4974 103.504 98.5312 103.475 98.5424C101.103 99.9115 97.9822 100.599 94.8666 100.599H94.8722Z" fill="#D3D6DD"/>
</g>
<path d="M138.12 80.5405C138.12 80.5405 138.074 80.5349 138.052 80.5236L128.378 74.9403C128.311 74.9008 128.288 74.8163 128.328 74.7487C128.367 74.6811 128.451 74.6586 128.519 74.698L138.193 80.2814C138.26 80.3208 138.283 80.4053 138.243 80.4729C138.221 80.518 138.17 80.5405 138.125 80.5405H138.12Z" fill="#D3D6DD"/>
<g opacity="0.5">
<path d="M129.533 82.4345C126.418 82.4345 123.296 81.7471 120.924 80.378C120.896 80.3611 120.891 80.3273 120.902 80.3048C120.919 80.2766 120.953 80.271 120.975 80.2822C125.697 83.0091 133.37 83.0035 138.086 80.2822C138.108 80.2653 138.148 80.2766 138.159 80.3048C138.176 80.3329 138.165 80.3667 138.137 80.378C135.765 81.7471 132.643 82.4345 129.528 82.4345H129.533Z" fill="#D3D6DD"/>
</g>
<path d="M117.459 64.1357C117.414 64.1357 117.364 64.1132 117.341 64.0681C117.302 64.0005 117.324 63.916 117.392 63.8766L127.066 58.2932C127.133 58.2538 127.218 58.2763 127.257 58.3439C127.297 58.4115 127.274 58.496 127.206 58.5355L117.533 64.1188C117.533 64.1188 117.488 64.1357 117.465 64.1357H117.459Z" fill="#D3D6DD"/>
<g opacity="0.5">
<path d="M127.01 68.3832C127.01 68.3832 126.97 68.372 126.964 68.3551C126.948 68.3269 126.959 68.2931 126.987 68.2818C129.263 66.9691 130.514 65.2281 130.514 63.3745C130.514 61.5209 129.263 59.78 126.987 58.4672C126.959 58.4503 126.953 58.4165 126.964 58.394C126.981 58.3658 127.015 58.3602 127.038 58.3715C129.348 59.7067 130.621 61.4815 130.621 63.3745C130.621 65.2676 129.348 67.0423 127.038 68.3776C127.032 68.3776 127.021 68.3832 127.01 68.3832Z" fill="#D3D6DD"/>
</g>
<path d="M90.0043 70.0454C90.0043 70.0454 89.9592 70.0398 89.9367 70.0285L80.263 64.4451C80.1954 64.4057 80.1728 64.3212 80.2123 64.2536C80.2517 64.186 80.3362 64.1634 80.4038 64.2029L90.0776 69.7863C90.1452 69.8257 90.1677 69.9102 90.1283 69.9778C90.1001 70.0229 90.055 70.0454 90.0099 70.0454H90.0043Z" fill="#D3D6DD"/>
<g opacity="0.5">
<path d="M80.4547 74.293C80.4547 74.293 80.4378 74.293 80.4265 74.2874C78.1166 72.9521 76.8433 71.1774 76.8433 69.2843C76.8433 67.3913 78.1166 65.6165 80.4265 64.2813C80.4547 64.2644 80.4885 64.2756 80.4998 64.3038C80.5167 64.332 80.5054 64.3658 80.4772 64.377C78.2011 65.6898 76.9503 67.4307 76.9503 69.2843C76.9503 71.1379 78.2011 72.8789 80.4772 74.1916C80.5054 74.2085 80.511 74.2423 80.4998 74.2648C80.4885 74.2818 80.4716 74.293 80.4491 74.293H80.4547Z" fill="#D3D6DD"/>
</g>
<path d="M48.96 77.1323C48.9149 77.1323 48.8642 77.1098 48.8417 77.0647C48.8022 76.9971 48.8248 76.9126 48.8924 76.8732L58.5661 71.2898C58.6337 71.2504 58.7182 71.2729 58.7576 71.3405C58.7971 71.4081 58.7745 71.4926 58.7069 71.5321L49.0332 77.1154C49.0332 77.1154 48.9882 77.1323 48.9656 77.1323H48.96Z" fill="#D3D6DD"/>
<g opacity="0.5">
<path d="M57.5465 79.0253C54.4252 79.0253 51.3096 78.3379 48.9376 76.9688C48.9095 76.9519 48.9038 76.9181 48.9151 76.8956C48.932 76.8674 48.9658 76.8618 48.9884 76.8731C53.7041 79.5943 61.3833 79.5943 66.099 76.8731C66.1272 76.8562 66.161 76.8674 66.1723 76.8956C66.1892 76.9238 66.1779 76.9576 66.1498 76.9688C63.7778 78.3379 60.6565 79.0253 57.5409 79.0253H57.5465Z" fill="#D3D6DD"/>
</g>
<mask id="mask0_1_4234" style="mask-type:luminance" maskUnits="userSpaceOnUse" x="121" y="40" width="29" height="17">
<path d="M149.336 54.2301L145.488 56.4499L121.07 42.3534L124.913 40.1336L149.336 54.2301Z" fill="white"/>
</mask>
<g mask="url(#mask0_1_4234)">
<g opacity="0.5">
<path d="M122.529 43.9019C122.501 43.9019 122.473 43.8794 122.473 43.8456V38.1044C122.473 38.0763 122.495 38.0481 122.529 38.0481C122.563 38.0481 122.585 38.0706 122.585 38.1044V43.8456C122.585 43.8737 122.563 43.9019 122.529 43.9019Z" fill="#D3D6DD"/>
</g>
<g opacity="0.5">
<path d="M123.87 44.6739C123.842 44.6739 123.814 44.6513 123.814 44.6175V38.8764C123.814 38.8482 123.837 38.8201 123.87 38.8201C123.904 38.8201 123.927 38.8426 123.927 38.8764V44.6175C123.927 44.6457 123.904 44.6739 123.87 44.6739Z" fill="#D3D6DD"/>
</g>
<g opacity="0.5">
<path d="M125.211 45.4463C125.182 45.4463 125.154 45.4237 125.154 45.3899V39.6488C125.154 39.6206 125.177 39.5925 125.211 39.5925C125.244 39.5925 125.267 39.615 125.267 39.6488V45.3899C125.267 45.4181 125.244 45.4463 125.211 45.4463Z" fill="#D3D6DD"/>
</g>
<g opacity="0.5">
<path d="M126.552 46.2237C126.524 46.2237 126.496 46.2011 126.496 46.1673V40.4262C126.496 40.398 126.518 40.3699 126.552 40.3699C126.586 40.3699 126.608 40.3924 126.608 40.4262V46.1673C126.608 46.1955 126.586 46.2237 126.552 46.2237Z" fill="#D3D6DD"/>
</g>
<g opacity="0.5">
<path d="M127.893 46.9952C127.865 46.9952 127.836 46.9727 127.836 46.9389V41.1978C127.836 41.1696 127.859 41.1414 127.893 41.1414C127.927 41.1414 127.949 41.164 127.949 41.1978V46.9389C127.949 46.9671 127.927 46.9952 127.893 46.9952Z" fill="#D3D6DD"/>
</g>
<g opacity="0.5">
<path d="M129.234 47.7724C129.206 47.7724 129.178 47.7499 129.178 47.7161V41.975C129.178 41.9468 129.2 41.9186 129.234 41.9186C129.268 41.9186 129.29 41.9412 129.29 41.975V47.7161C129.29 47.7443 129.268 47.7724 129.234 47.7724Z" fill="#D3D6DD"/>
</g>
<g opacity="0.5">
<path d="M130.574 48.5446C130.546 48.5446 130.518 48.5221 130.518 48.4883V42.7471C130.518 42.719 130.541 42.6908 130.574 42.6908C130.608 42.6908 130.631 42.7133 130.631 42.7471V48.4883C130.631 48.5164 130.608 48.5446 130.574 48.5446Z" fill="#D3D6DD"/>
</g>
<g opacity="0.5">
<path d="M131.915 49.3158C131.887 49.3158 131.859 49.2933 131.859 49.2595V43.5184C131.859 43.4902 131.881 43.462 131.915 43.462C131.949 43.462 131.972 43.4846 131.972 43.5184V49.2595C131.972 49.2877 131.949 49.3158 131.915 49.3158Z" fill="#D3D6DD"/>
</g>
<g opacity="0.5">
<path d="M133.257 50.0942C133.228 50.0942 133.2 50.0717 133.2 50.0379V44.2968C133.2 44.2686 133.223 44.2404 133.257 44.2404C133.29 44.2404 133.313 44.263 133.313 44.2968V50.0379C133.313 50.0661 133.29 50.0942 133.257 50.0942Z" fill="#D3D6DD"/>
</g>
<g opacity="0.5">
<path d="M134.597 50.8662C134.569 50.8662 134.541 50.8437 134.541 50.8099V45.0687C134.541 45.0406 134.563 45.0124 134.597 45.0124C134.631 45.0124 134.653 45.0349 134.653 45.0687V50.8099C134.653 50.838 134.631 50.8662 134.597 50.8662Z" fill="#D3D6DD"/>
</g>
<g opacity="0.5">
<path d="M135.938 51.6436C135.91 51.6436 135.882 51.6211 135.882 51.5873V45.8461C135.882 45.818 135.904 45.7898 135.938 45.7898C135.972 45.7898 135.995 45.8123 135.995 45.8461V51.5873C135.995 51.6154 135.972 51.6436 135.938 51.6436Z" fill="#D3D6DD"/>
</g>
<g opacity="0.5">
<path d="M137.279 52.4152C137.251 52.4152 137.223 52.3927 137.223 52.3589V46.6177C137.223 46.5896 137.246 46.5614 137.279 46.5614C137.313 46.5614 137.336 46.5839 137.336 46.6177V52.3589C137.336 52.387 137.313 52.4152 137.279 52.4152Z" fill="#D3D6DD"/>
</g>
<g opacity="0.5">
<path d="M138.62 53.1866C138.592 53.1866 138.563 53.164 138.563 53.1302V47.3891C138.563 47.3609 138.586 47.3328 138.62 47.3328C138.654 47.3328 138.676 47.3553 138.676 47.3891V53.1302C138.676 53.1584 138.654 53.1866 138.62 53.1866Z" fill="#D3D6DD"/>
</g>
<g opacity="0.5">
<path d="M139.961 53.9644C139.932 53.9644 139.904 53.9419 139.904 53.9081V48.1669C139.904 48.1388 139.927 48.1106 139.961 48.1106C139.994 48.1106 140.017 48.1331 140.017 48.1669V53.9081C140.017 53.9362 139.994 53.9644 139.961 53.9644Z" fill="#D3D6DD"/>
</g>
<g opacity="0.5">
<path d="M141.301 54.7364C141.273 54.7364 141.245 54.7138 141.245 54.68V48.9389C141.245 48.9107 141.268 48.8826 141.301 48.8826C141.335 48.8826 141.358 48.9051 141.358 48.9389V54.68C141.358 54.7082 141.335 54.7364 141.301 54.7364Z" fill="#D3D6DD"/>
</g>
<g opacity="0.5">
<path d="M142.643 55.5137C142.615 55.5137 142.587 55.4912 142.587 55.4574V49.7163C142.587 49.6881 142.609 49.6599 142.643 49.6599C142.677 49.6599 142.7 49.6824 142.7 49.7163V55.4574C142.7 55.4856 142.677 55.5137 142.643 55.5137Z" fill="#D3D6DD"/>
</g>
<g opacity="0.5">
<path d="M143.983 56.2861C143.954 56.2861 143.926 56.2636 143.926 56.2298V50.4887C143.926 50.4605 143.949 50.4323 143.983 50.4323C144.016 50.4323 144.039 50.4549 144.039 50.4887V56.2298C144.039 56.2579 144.016 56.2861 143.983 56.2861Z" fill="#D3D6DD"/>
</g>
<g opacity="0.5">
<path d="M145.324 57.0575C145.296 57.0575 145.268 57.035 145.268 57.0012V51.2601C145.268 51.2319 145.291 51.2037 145.324 51.2037C145.358 51.2037 145.381 51.2263 145.381 51.2601V57.0012C145.381 57.0294 145.358 57.0575 145.324 57.0575Z" fill="#D3D6DD"/>
</g>
<g opacity="0.5">
<path d="M146.665 57.8351C146.637 57.8351 146.609 57.8126 146.609 57.7788V52.0377C146.609 52.0095 146.631 51.9813 146.665 51.9813C146.699 51.9813 146.722 52.0039 146.722 52.0377V57.7788C146.722 57.807 146.699 57.8351 146.665 57.8351Z" fill="#D3D6DD"/>
</g>
<g opacity="0.5">
<path d="M148.007 58.6071C147.978 58.6071 147.95 58.5846 147.95 58.5508V52.8096C147.95 52.7815 147.973 52.7533 148.007 52.7533C148.04 52.7533 148.063 52.7758 148.063 52.8096V58.5508C148.063 58.5789 148.04 58.6071 148.007 58.6071Z" fill="#D3D6DD"/>
</g>
</g>
<mask id="mask1_1_4234" style="mask-type:luminance" maskUnits="userSpaceOnUse" x="161" y="81" width="17" height="10">
<path d="M165.523 90.6602L161.68 88.4403L173.889 81.3865L177.732 83.6063L165.523 90.6602Z" fill="white"/>
</mask>
<g mask="url(#mask1_1_4234)">
<g opacity="0.5">
<path d="M181.355 82.2257H171.411C171.383 82.2257 171.354 82.2032 171.354 82.1694C171.354 82.1356 171.377 82.113 171.411 82.113H181.355C181.383 82.113 181.411 82.1356 181.411 82.1694C181.411 82.2032 181.389 82.2257 181.355 82.2257Z" fill="#D3D6DD"/>
</g>
<g opacity="0.5">
<path d="M180.013 82.9982H170.069C170.041 82.9982 170.013 82.9756 170.013 82.9418C170.013 82.908 170.035 82.8855 170.069 82.8855H180.013C180.041 82.8855 180.07 82.908 180.07 82.9418C180.07 82.9756 180.047 82.9982 180.013 82.9982Z" fill="#D3D6DD"/>
</g>
<g opacity="0.5">
<path d="M178.673 83.7696H168.729C168.701 83.7696 168.673 83.7471 168.673 83.7133C168.673 83.6795 168.695 83.6569 168.729 83.6569H178.673C178.702 83.6569 178.73 83.6795 178.73 83.7133C178.73 83.7471 178.707 83.7696 178.673 83.7696Z" fill="#D3D6DD"/>
</g>
<g opacity="0.5">
<path d="M177.332 84.547H167.387C167.359 84.547 167.331 84.5245 167.331 84.4907C167.331 84.4569 167.354 84.4343 167.387 84.4343H177.332C177.36 84.4343 177.388 84.4569 177.388 84.4907C177.388 84.5245 177.365 84.547 177.332 84.547Z" fill="#D3D6DD"/>
</g>
<g opacity="0.5">
<path d="M175.991 85.319H166.047C166.019 85.319 165.991 85.2964 165.991 85.2626C165.991 85.2288 166.013 85.2063 166.047 85.2063H175.991C176.019 85.2063 176.048 85.2288 176.048 85.2626C176.048 85.2964 176.025 85.319 175.991 85.319Z" fill="#D3D6DD"/>
</g>
<g opacity="0.5">
<path d="M174.65 86.0968H164.706C164.678 86.0968 164.649 86.0743 164.649 86.0405C164.649 86.0067 164.672 85.9841 164.706 85.9841H174.65C174.678 85.9841 174.706 86.0067 174.706 86.0405C174.706 86.0743 174.684 86.0968 174.65 86.0968Z" fill="#D3D6DD"/>
</g>
<g opacity="0.5">
<path d="M173.309 86.8687H163.365C163.337 86.8687 163.309 86.8461 163.309 86.8123C163.309 86.7785 163.331 86.756 163.365 86.756H173.309C173.337 86.756 173.365 86.7785 173.365 86.8123C173.365 86.8461 173.343 86.8687 173.309 86.8687Z" fill="#D3D6DD"/>
</g>
<g opacity="0.5">
<path d="M171.969 87.646H162.025C161.996 87.646 161.968 87.6235 161.968 87.5897C161.968 87.5559 161.991 87.5333 162.025 87.5333H171.969C171.997 87.5333 172.025 87.5559 172.025 87.5897C172.025 87.6235 172.003 87.646 171.969 87.646Z" fill="#D3D6DD"/>
</g>
<g opacity="0.5">
<path d="M170.627 88.4175H160.683C160.655 88.4175 160.626 88.3949 160.626 88.3611C160.626 88.3273 160.649 88.3048 160.683 88.3048H170.627C170.655 88.3048 170.683 88.3273 170.683 88.3611C170.683 88.3949 170.661 88.4175 170.627 88.4175Z" fill="#D3D6DD"/>
</g>
<g opacity="0.5">
<path d="M169.287 89.189H159.342C159.314 89.189 159.286 89.1664 159.286 89.1326C159.286 89.0988 159.309 89.0763 159.342 89.0763H169.287C169.315 89.0763 169.343 89.0988 169.343 89.1326C169.343 89.1664 169.32 89.189 169.287 89.189Z" fill="#D3D6DD"/>
</g>
<g opacity="0.5">
<path d="M167.945 89.9668H158.001C157.973 89.9668 157.945 89.9443 157.945 89.9105C157.945 89.8767 157.967 89.8541 158.001 89.8541H167.945C167.973 89.8541 168.002 89.8767 168.002 89.9105C168.002 89.9443 167.979 89.9668 167.945 89.9668Z" fill="#D3D6DD"/>
</g>
</g>
<mask id="mask2_1_4234" style="mask-type:luminance" maskUnits="userSpaceOnUse" x="40" y="58" width="26" height="16">
<path d="M44.8071 73.2331L40.959 71.0133L61.8783 58.9338L65.7208 61.1537L44.8071 73.2331Z" fill="white"/>
</mask>
<g mask="url(#mask2_1_4234)">
<g opacity="0.5">
<path d="M69.5015 59.5537H59.5573C59.5291 59.5537 59.501 59.5312 59.501 59.4974C59.501 59.4636 59.5235 59.441 59.5573 59.441H69.5015C69.5296 59.441 69.5578 59.4636 69.5578 59.4974C69.5578 59.5312 69.5353 59.5537 69.5015 59.5537Z" fill="#D3D6DD"/>
</g>
<g opacity="0.5">
<path d="M68.1616 60.3259H58.2175C58.1893 60.3259 58.1611 60.3034 58.1611 60.2696C58.1611 60.2358 58.1837 60.2133 58.2175 60.2133H68.1616C68.1898 60.2133 68.218 60.2358 68.218 60.2696C68.218 60.3034 68.1954 60.3259 68.1616 60.3259Z" fill="#D3D6DD"/>
</g>
<g opacity="0.5">
<path d="M66.8203 61.1036H56.8762C56.848 61.1036 56.8198 61.0811 56.8198 61.0472C56.8198 61.0134 56.8424 60.9909 56.8762 60.9909H66.8203C66.8485 60.9909 66.8767 61.0134 66.8767 61.0472C66.8767 61.0811 66.8541 61.1036 66.8203 61.1036Z" fill="#D3D6DD"/>
</g>
<g opacity="0.5">
<path d="M65.479 61.8761H55.5349C55.5067 61.8761 55.4785 61.8536 55.4785 61.8198C55.4785 61.786 55.5011 61.7634 55.5349 61.7634H65.479C65.5072 61.7634 65.5353 61.786 65.5353 61.8198C65.5353 61.8536 65.5128 61.8761 65.479 61.8761Z" fill="#D3D6DD"/>
</g>
<g opacity="0.5">
<path d="M64.1377 62.6535H54.1936C54.1654 62.6535 54.1372 62.6309 54.1372 62.5971C54.1372 62.5633 54.1597 62.5408 54.1936 62.5408H64.1377C64.1659 62.5408 64.194 62.5633 64.194 62.5971C64.194 62.6309 64.1715 62.6535 64.1377 62.6535Z" fill="#D3D6DD"/>
</g>
<g opacity="0.5">
<path d="M62.7974 63.4249H52.8532C52.825 63.4249 52.7969 63.4023 52.7969 63.3685C52.7969 63.3347 52.8194 63.3122 52.8532 63.3122H62.7974C62.8255 63.3122 62.8537 63.3347 62.8537 63.3685C62.8537 63.4023 62.8312 63.4249 62.7974 63.4249Z" fill="#D3D6DD"/>
</g>
<g opacity="0.5">
<path d="M61.4565 64.1963H51.5124C51.4842 64.1963 51.4561 64.1738 51.4561 64.14C51.4561 64.1062 51.4786 64.0836 51.5124 64.0836H61.4565C61.4847 64.0836 61.5129 64.1062 61.5129 64.14C61.5129 64.1738 61.4903 64.1963 61.4565 64.1963Z" fill="#D3D6DD"/>
</g>
<g opacity="0.5">
<path d="M60.1152 64.9741H50.1711C50.1429 64.9741 50.1147 64.9516 50.1147 64.9178C50.1147 64.884 50.1373 64.8615 50.1711 64.8615H60.1152C60.1434 64.8615 60.1716 64.884 60.1716 64.9178C60.1716 64.9516 60.149 64.9741 60.1152 64.9741Z" fill="#D3D6DD"/>
</g>
<g opacity="0.5">
<path d="M58.7744 65.7463H48.8303C48.8021 65.7463 48.7739 65.7238 48.7739 65.6899C48.7739 65.6561 48.7965 65.6336 48.8303 65.6336H58.7744C58.8026 65.6336 58.8308 65.6561 58.8308 65.6899C58.8308 65.7238 58.8082 65.7463 58.7744 65.7463Z" fill="#D3D6DD"/>
</g>
<g opacity="0.5">
<path d="M57.4341 66.5235H47.4899C47.4618 66.5235 47.4336 66.5009 47.4336 66.4671C47.4336 66.4333 47.4561 66.4108 47.4899 66.4108H57.4341C57.4623 66.4108 57.4904 66.4333 57.4904 66.4671C57.4904 66.5009 57.4679 66.5235 57.4341 66.5235Z" fill="#D3D6DD"/>
</g>
<g opacity="0.5">
<path d="M56.0928 67.2951H46.1486C46.1205 67.2951 46.0923 67.2725 46.0923 67.2387C46.0923 67.2049 46.1148 67.1824 46.1486 67.1824H56.0928C56.1209 67.1824 56.1491 67.2049 56.1491 67.2387C56.1491 67.2725 56.1266 67.2951 56.0928 67.2951Z" fill="#D3D6DD"/>
</g>
<g opacity="0.5">
<path d="M54.752 68.067H44.8078C44.7796 68.067 44.7515 68.0444 44.7515 68.0106C44.7515 67.9768 44.774 67.9543 44.8078 67.9543H54.752C54.7801 67.9543 54.8083 67.9768 54.8083 68.0106C54.8083 68.0444 54.7858 68.067 54.752 68.067Z" fill="#D3D6DD"/>
</g>
<g opacity="0.5">
<path d="M53.4106 68.8448H43.4665C43.4383 68.8448 43.4102 68.8223 43.4102 68.7885C43.4102 68.7547 43.4327 68.7321 43.4665 68.7321H53.4106C53.4388 68.7321 53.467 68.7547 53.467 68.7885C53.467 68.8223 53.4444 68.8448 53.4106 68.8448Z" fill="#D3D6DD"/>
</g>
<g opacity="0.5">
<path d="M52.0698 69.6162H42.1257C42.0975 69.6162 42.0693 69.5937 42.0693 69.5599C42.0693 69.5261 42.0919 69.5035 42.1257 69.5035H52.0698C52.098 69.5035 52.1262 69.5261 52.1262 69.5599C52.1262 69.5937 52.1036 69.6162 52.0698 69.6162Z" fill="#D3D6DD"/>
</g>
<g opacity="0.5">
<path d="M50.7295 70.3878H40.7853C40.7572 70.3878 40.729 70.3652 40.729 70.3314C40.729 70.2976 40.7515 70.2751 40.7853 70.2751H50.7295C50.7577 70.2751 50.7858 70.2976 50.7858 70.3314C50.7858 70.3652 50.7633 70.3878 50.7295 70.3878Z" fill="#D3D6DD"/>
</g>
<g opacity="0.5">
<path d="M49.3877 71.166H39.4435C39.4154 71.166 39.3872 71.1435 39.3872 71.1097C39.3872 71.0759 39.4097 71.0533 39.4435 71.0533H49.3877C49.4159 71.0533 49.444 71.0759 49.444 71.1097C49.444 71.1435 49.4215 71.166 49.3877 71.166Z" fill="#D3D6DD"/>
</g>
<g opacity="0.5">
<path d="M48.0474 71.937H38.1032C38.075 71.937 38.0469 71.9145 38.0469 71.8807C38.0469 71.8469 38.0694 71.8243 38.1032 71.8243H48.0474C48.0755 71.8243 48.1037 71.8469 48.1037 71.8807C48.1037 71.9145 48.0812 71.937 48.0474 71.937Z" fill="#D3D6DD"/>
</g>
<g opacity="0.5">
<path d="M46.7065 72.7149H36.7624C36.7342 72.7149 36.7061 72.6923 36.7061 72.6585C36.7061 72.6247 36.7286 72.6022 36.7624 72.6022H46.7065C46.7347 72.6022 46.7629 72.6247 46.7629 72.6585C46.7629 72.6923 46.7403 72.7149 46.7065 72.7149Z" fill="#D3D6DD"/>
</g>
</g>
<mask id="mask3_1_4234" style="mask-type:luminance" maskUnits="userSpaceOnUse" x="60" y="108" width="29" height="17">
<path d="M88.647 122.774L84.8046 124.993L60.3809 110.897L64.2289 108.677L88.647 122.774Z" fill="white"/>
</mask>
<g mask="url(#mask3_1_4234)">
<g opacity="0.5">
<path d="M61.9641 112.514C61.9359 112.514 61.9077 112.491 61.9077 112.457V106.716C61.9077 106.688 61.9303 106.66 61.9641 106.66C61.9979 106.66 62.0204 106.683 62.0204 106.716V112.457C62.0204 112.486 61.9979 112.514 61.9641 112.514Z" fill="#D3D6DD"/>
</g>
<g opacity="0.5">
<path d="M63.3049 113.291C63.2767 113.291 63.2485 113.269 63.2485 113.235V107.494C63.2485 107.466 63.2711 107.437 63.3049 107.437C63.3387 107.437 63.3612 107.46 63.3612 107.494V113.235C63.3612 113.263 63.3387 113.291 63.3049 113.291Z" fill="#D3D6DD"/>
</g>
<g opacity="0.5">
<path d="M64.6447 114.063C64.6165 114.063 64.5884 114.04 64.5884 114.007V108.266C64.5884 108.237 64.6109 108.209 64.6447 108.209C64.6785 108.209 64.7011 108.232 64.7011 108.266V114.007C64.7011 114.035 64.6785 114.063 64.6447 114.063Z" fill="#D3D6DD"/>
</g>
<g opacity="0.5">
<path d="M65.987 114.835C65.9588 114.835 65.9307 114.813 65.9307 114.779V109.038C65.9307 109.01 65.9532 108.982 65.987 108.982C66.0208 108.982 66.0433 109.004 66.0433 109.038V114.779C66.0433 114.807 66.0208 114.835 65.987 114.835Z" fill="#D3D6DD"/>
</g>
<g opacity="0.5">
<path d="M67.3278 115.613C67.2997 115.613 67.2715 115.59 67.2715 115.556V109.815C67.2715 109.787 67.294 109.759 67.3278 109.759C67.3616 109.759 67.3842 109.782 67.3842 109.815V115.556C67.3842 115.585 67.3616 115.613 67.3278 115.613Z" fill="#D3D6DD"/>
</g>
<g opacity="0.5">
<path d="M68.6682 116.384C68.64 116.384 68.6118 116.362 68.6118 116.328V110.587C68.6118 110.559 68.6344 110.531 68.6682 110.531C68.702 110.531 68.7245 110.553 68.7245 110.587V116.328C68.7245 116.356 68.702 116.384 68.6682 116.384Z" fill="#D3D6DD"/>
</g>
<g opacity="0.5">
<path d="M70.0095 117.157C69.9813 117.157 69.9531 117.134 69.9531 117.101V111.359C69.9531 111.331 69.9757 111.303 70.0095 111.303C70.0433 111.303 70.0658 111.326 70.0658 111.359V117.101C70.0658 117.129 70.0433 117.157 70.0095 117.157Z" fill="#D3D6DD"/>
</g>
<g opacity="0.5">
<path d="M71.3498 117.934C71.3216 117.934 71.2935 117.912 71.2935 117.878V112.137C71.2935 112.108 71.316 112.08 71.3498 112.08C71.3836 112.08 71.4061 112.103 71.4061 112.137V117.878C71.4061 117.906 71.3836 117.934 71.3498 117.934Z" fill="#D3D6DD"/>
</g>
<g opacity="0.5">
<path d="M72.6916 118.706C72.6634 118.706 72.6353 118.684 72.6353 118.65V112.909C72.6353 112.88 72.6578 112.852 72.6916 112.852C72.7254 112.852 72.7479 112.875 72.7479 112.909V118.65C72.7479 118.678 72.7254 118.706 72.6916 118.706Z" fill="#D3D6DD"/>
</g>
<g opacity="0.5">
<path d="M74.0319 119.483C74.0038 119.483 73.9756 119.461 73.9756 119.427V113.686C73.9756 113.658 73.9981 113.63 74.0319 113.63C74.0657 113.63 74.0883 113.652 74.0883 113.686V119.427C74.0883 119.455 74.0657 119.483 74.0319 119.483Z" fill="#D3D6DD"/>
</g>
<g opacity="0.5">
<path d="M75.3732 120.255C75.3451 120.255 75.3169 120.232 75.3169 120.199V114.457C75.3169 114.429 75.3394 114.401 75.3732 114.401C75.407 114.401 75.4296 114.424 75.4296 114.457V120.199C75.4296 120.227 75.407 120.255 75.3732 120.255Z" fill="#D3D6DD"/>
</g>
<g opacity="0.5">
<path d="M76.7141 121.028C76.6859 121.028 76.6577 121.005 76.6577 120.971V115.23C76.6577 115.202 76.6803 115.174 76.7141 115.174C76.7479 115.174 76.7704 115.196 76.7704 115.23V120.971C76.7704 120.999 76.7479 121.028 76.7141 121.028Z" fill="#D3D6DD"/>
</g>
<g opacity="0.5">
<path d="M78.0544 121.805C78.0262 121.805 77.998 121.782 77.998 121.748V116.007C77.998 115.979 78.0206 115.951 78.0544 115.951C78.0882 115.951 78.1107 115.973 78.1107 116.007V121.748C78.1107 121.777 78.0882 121.805 78.0544 121.805Z" fill="#D3D6DD"/>
</g>
<g opacity="0.5">
<path d="M79.3957 122.577C79.3675 122.577 79.3394 122.554 79.3394 122.52V116.779C79.3394 116.751 79.3619 116.723 79.3957 116.723C79.4295 116.723 79.452 116.745 79.452 116.779V122.52C79.452 122.549 79.4295 122.577 79.3957 122.577Z" fill="#D3D6DD"/>
</g>
<g opacity="0.5">
<path d="M80.7365 123.354C80.7083 123.354 80.6802 123.331 80.6802 123.298V117.557C80.6802 117.528 80.7027 117.5 80.7365 117.5C80.7703 117.5 80.7929 117.523 80.7929 117.557V123.298C80.7929 123.326 80.7703 123.354 80.7365 123.354Z" fill="#D3D6DD"/>
</g>
<g opacity="0.5">
<path d="M82.0778 124.126C82.0496 124.126 82.0215 124.103 82.0215 124.07V118.329C82.0215 118.3 82.044 118.272 82.0778 118.272C82.1116 118.272 82.1342 118.295 82.1342 118.329V124.07C82.1342 124.098 82.1116 124.126 82.0778 124.126Z" fill="#D3D6DD"/>
</g>
<g opacity="0.5">
<path d="M83.4186 124.898C83.3905 124.898 83.3623 124.876 83.3623 124.842V119.101C83.3623 119.073 83.3848 119.044 83.4186 119.044C83.4524 119.044 83.475 119.067 83.475 119.101V124.842C83.475 124.87 83.4524 124.898 83.4186 124.898Z" fill="#D3D6DD"/>
</g>
<g opacity="0.5">
<path d="M84.759 125.675C84.7308 125.675 84.7026 125.653 84.7026 125.619V119.878C84.7026 119.85 84.7252 119.822 84.759 119.822C84.7928 119.822 84.8153 119.844 84.8153 119.878V125.619C84.8153 125.647 84.7928 125.675 84.759 125.675Z" fill="#D3D6DD"/>
</g>
<g opacity="0.5">
<path d="M86.0949 126.447C86.0667 126.447 86.0386 126.425 86.0386 126.391V120.65C86.0386 120.622 86.0611 120.593 86.0949 120.593C86.1287 120.593 86.1513 120.616 86.1513 120.65V126.391C86.1513 126.419 86.1287 126.447 86.0949 126.447Z" fill="#D3D6DD"/>
</g>
<g opacity="0.5">
<path d="M87.4353 127.224C87.4071 127.224 87.3789 127.201 87.3789 127.167V121.426C87.3789 121.398 87.4014 121.37 87.4353 121.37C87.4691 121.37 87.4916 121.392 87.4916 121.426V127.167C87.4916 127.196 87.4691 127.224 87.4353 127.224Z" fill="#D3D6DD"/>
</g>
</g>
<path d="M145.489 56.5912C145.489 56.5912 145.444 56.5855 145.421 56.5743L121.003 42.4778C120.958 42.4553 120.936 42.4046 120.936 42.3595C120.936 42.3144 120.964 42.2637 121.003 42.2412L124.846 40.0214C124.891 39.9988 124.941 39.9988 124.986 40.0214L149.405 54.1178C149.45 54.1404 149.472 54.1911 149.472 54.2361C149.472 54.2812 149.444 54.3319 149.405 54.3545L145.562 56.5743C145.562 56.5743 145.517 56.5912 145.494 56.5912H145.489ZM121.347 42.3539L145.489 56.2926L149.055 54.2305L124.913 40.2918L121.347 42.3539Z" fill="#D3D6DD"/>
<path d="M165.523 90.7959C165.523 90.7959 165.478 90.7903 165.455 90.779L161.613 88.5592C161.567 88.5367 161.545 88.4916 161.545 88.4409C161.545 88.3902 161.573 88.3451 161.613 88.3226L173.822 81.2743C173.867 81.2518 173.917 81.2518 173.962 81.2743L177.805 83.4942C177.85 83.5167 177.872 83.5674 177.872 83.6125C177.872 83.6576 177.844 83.7083 177.805 83.7308L165.596 90.779C165.596 90.779 165.551 90.7959 165.528 90.7959H165.523ZM161.956 88.4353L165.523 90.4973L177.456 83.6069L173.889 81.5504L161.956 88.4409V88.4353Z" fill="#D3D6DD"/>
<path d="M44.8082 73.3753C44.8082 73.3753 44.7575 73.3696 44.7406 73.3584L40.8982 71.1385C40.8531 71.116 40.8306 71.0653 40.8306 71.0202C40.8306 70.9751 40.8587 70.9244 40.8982 70.9019L61.8175 58.8224C61.8626 58.7999 61.9133 58.7999 61.9584 58.8224L65.8008 61.0423C65.8459 61.0648 65.8684 61.1155 65.8684 61.1606C65.8684 61.2057 65.8402 61.2564 65.8008 61.2789L44.8815 73.3584C44.8815 73.3584 44.8364 73.3753 44.8139 73.3753H44.8082ZM41.2419 71.0146L44.8082 73.0767L65.4459 61.1606L61.8795 59.0985L41.2362 71.0146H41.2419Z" fill="#D3D6DD"/>
<path d="M84.8038 125.136C84.8038 125.136 84.7587 125.13 84.7362 125.119L60.3181 111.022C60.273 111 60.2505 110.955 60.2505 110.904C60.2505 110.853 60.2787 110.808 60.3181 110.786L64.1605 108.566C64.2056 108.543 64.2563 108.543 64.3014 108.566L88.7195 122.662C88.7646 122.685 88.7871 122.73 88.7871 122.781C88.7871 122.831 88.7589 122.876 88.7195 122.899L84.877 125.119C84.877 125.119 84.832 125.136 84.8094 125.136H84.8038ZM60.6618 110.898L84.8038 124.837L88.3702 122.775L64.2281 108.836L60.6618 110.893V110.898Z" fill="#D3D6DD"/>
<path d="M121.133 158.923L115.437 162.214V163.802L115.747 163.983L121.443 160.692V159.104L121.133 158.923Z" fill="#2B212B"/>
<path d="M56.2507 114.262L56.2056 129.666C56.2056 129.993 56.0873 130.224 55.9014 130.331L62.9271 126.246C63.113 126.139 63.2313 125.908 63.2313 125.581L63.2764 110.178L56.2507 114.262Z" fill="#FFB345"/>
<path d="M62.7701 107.991C62.4941 107.366 62.1109 106.758 61.6546 106.239C61.5813 106.155 61.5025 106.07 61.4292 105.991C60.0038 104.538 57.9812 102.543 56.1275 101.016C55.4684 100.436 54.7754 99.9235 54.0655 99.484C53.9472 99.4108 53.8345 99.3432 53.7218 99.2755C51.0625 97.7431 48.6568 97.5966 46.9158 98.6107L39.8901 102.695L56.2459 114.257L63.2716 110.172C63.2716 109.479 63.0913 108.718 62.7645 107.986L62.7701 107.991Z" fill="#FFC255"/>
<path d="M54.4032 110.076C52.9777 108.622 50.9551 106.628 49.1015 105.101C48.4423 104.521 47.7493 104.008 47.0394 103.568C46.9211 103.495 46.8084 103.428 46.6957 103.36C41.4786 100.346 37.2192 102.701 37.1009 108.617C36.9826 114.718 41.4899 122.369 46.8479 125.462L55.1525 130.257C55.7272 130.589 56.2004 130.325 56.2004 129.665L56.2455 114.262C56.2455 112.882 55.5187 111.22 54.3975 110.076H54.4032Z" fill="#D88F39"/>
<path d="M46.0871 106.301C42.5264 104.245 39.6304 105.895 39.6192 109.986C39.6079 114.076 42.4869 119.057 46.042 121.113C49.6028 123.17 52.4987 121.519 52.5099 117.428C52.5212 113.338 49.6478 108.358 46.0871 106.301Z" fill="#B01E1E"/>
<path d="M46.0819 108.408C43.5353 106.937 41.462 108.121 41.4507 111.045C41.4451 113.974 43.5015 117.541 46.0481 119.011C48.6003 120.482 50.668 119.299 50.6793 116.374C50.6849 113.445 48.6285 109.884 46.0819 108.408Z" fill="#D88F39"/>
<g style="mix-blend-mode:screen" opacity="0.5">
<path d="M61.6541 106.239L54.6284 110.324C55.0848 110.842 55.4679 111.45 55.744 112.076L62.7697 107.991C62.4936 107.366 62.1105 106.757 61.6541 106.239Z" fill="#FFC255"/>
</g>
<path d="M61.8906 112.194L57.6763 114.628V125.739L61.8906 123.305V112.194Z" fill="url(#paint1_linear_1_4234)"/>
<path d="M62.6348 124.026L56.9219 127.322V129.074L62.6348 125.772V124.026Z" fill="#303030"/>
<path style="mix-blend-mode:multiply" opacity="0.5" d="M61.6258 112.346V123.152L57.6763 125.434V125.739L61.8906 123.305V112.194L61.6258 112.346Z" fill="url(#paint2_linear_1_4234)"/>
<path d="M64.1271 114.718C63.9863 114.397 63.7947 114.081 63.5637 113.794L62.2059 112.104C62.1608 112.053 62.127 112.025 62.0932 112.008C62.0312 111.969 61.9693 111.969 61.9242 111.991L57.6592 114.47L59.6649 119.614L63.9299 117.135C64.2454 116.949 64.4257 116.56 64.4257 116.031C64.4257 115.62 64.3187 115.169 64.1271 114.724V114.718Z" fill="#D34242"/>
<path d="M57.8341 114.481C57.8735 114.504 57.9073 114.538 57.9467 114.577L59.3046 116.267C59.8454 116.943 60.1666 117.783 60.1666 118.498C60.1666 119.214 59.8398 119.682 59.2933 119.715L57.9411 119.834C57.9073 119.834 57.8679 119.822 57.8284 119.8C57.7045 119.732 57.5918 119.552 57.5918 119.406V114.611C57.5918 114.453 57.7101 114.408 57.8284 114.481H57.8341Z" fill="#B01E1E"/>
<path d="M62.601 125.293L56.9219 128.572L114.147 161.616L119.826 158.337L62.601 125.293Z" fill="#E5E2DF"/>
<mask id="mask4_1_4234" style="mask-type:luminance" maskUnits="userSpaceOnUse" x="56" y="125" width="64" height="37">
<path d="M62.601 125.293L56.9219 128.572L114.147 161.616L119.826 158.337L62.601 125.293Z" fill="white"/>
</mask>
<g mask="url(#mask4_1_4234)">
<path d="M61.2715 127.631L61.125 127.546L63.9589 125.912L64.1054 125.997L61.2715 127.631Z" fill="#392A38"/>
<path d="M63.4116 128.871L63.2651 128.786L66.0991 127.147L66.2456 127.231L63.4116 128.871Z" fill="#392A38"/>
<path d="M65.5586 130.105L65.4121 130.02L68.2404 128.387L68.3869 128.471L65.5586 130.105Z" fill="#392A38"/>
<path d="M67.6997 131.344L67.5532 131.26L70.3872 129.626L70.5337 129.71L67.6997 131.344Z" fill="#392A38"/>
<path d="M69.0805 133.204L68.7256 133.001L72.4835 130.832L72.8328 131.035L69.0805 133.204Z" fill="#D34242"/>
<path d="M72.0322 133.845L71.8857 133.761L74.7197 132.127L74.8662 132.211L72.0322 133.845Z" fill="#392A38"/>
<path d="M74.1785 135.08L74.0264 134.995L76.8603 133.361L77.0068 133.446L74.1785 135.08Z" fill="#392A38"/>
<path d="M76.3203 136.319L76.1738 136.234L79.0078 134.6L79.1543 134.685L76.3203 136.319Z" fill="#392A38"/>
<path d="M78.46 137.558L78.3135 137.474L81.1474 135.834L81.2939 135.919L78.46 137.558Z" fill="#392A38"/>
<path d="M79.8413 139.418L79.4863 139.215L83.2443 137.046L83.5992 137.249L79.8413 139.418Z" fill="#D34242"/>
<path d="M82.7935 140.06L82.647 139.975L85.4809 138.336L85.6274 138.42L82.7935 140.06Z" fill="#392A38"/>
<path d="M84.9395 141.293L84.793 141.209L87.6213 139.575L87.7678 139.66L84.9395 141.293Z" fill="#392A38"/>
<path d="M87.0806 142.534L86.9341 142.449L89.768 140.815L89.9145 140.9L87.0806 142.534Z" fill="#392A38"/>
<path d="M89.2217 143.767L89.0752 143.683L91.9091 142.049L92.0556 142.133L89.2217 143.767Z" fill="#392A38"/>
<path d="M90.6025 145.632L90.2476 145.424L94.0055 143.26L94.3604 143.463L90.6025 145.632Z" fill="#D34242"/>
<path d="M93.5542 146.268L93.4077 146.184L96.2417 144.55L96.3881 144.634L93.5542 146.268Z" fill="#392A38"/>
<path d="M95.7007 147.508L95.5542 147.423L98.3825 145.789L98.529 145.874L95.7007 147.508Z" fill="#392A38"/>
<path d="M97.8423 148.748L97.6958 148.663L100.53 147.024L100.676 147.108L97.8423 148.748Z" fill="#392A38"/>
<path d="M99.9829 149.982L99.8364 149.897L102.67 148.264L102.817 148.348L99.9829 149.982Z" fill="#392A38"/>
<path d="M101.363 151.846L101.014 151.638L104.766 149.474L105.121 149.677L101.363 151.846Z" fill="#D34242"/>
<path d="M104.315 152.483L104.169 152.398L107.003 150.764L107.149 150.849L104.315 152.483Z" fill="#392A38"/>
<path d="M106.462 153.723L106.316 153.638L109.144 151.999L109.291 152.089L106.462 153.723Z" fill="#392A38"/>
<path d="M108.603 154.956L108.456 154.872L111.29 153.238L111.436 153.322L108.603 154.956Z" fill="#392A38"/>
<path d="M110.744 156.196L110.597 156.111L113.431 154.477L113.578 154.562L110.744 156.196Z" fill="#392A38"/>
<path d="M112.124 158.055L111.774 157.852L115.527 155.683L115.882 155.891L112.124 158.055Z" fill="#D34242"/>
</g>
<path d="M115.73 162.219L112.293 160.235V160.748L115.73 162.731L121.443 159.435V158.923L115.73 162.219Z" fill="#2B212B"/>
<path d="M115.73 162.219L112.293 160.236L118.001 156.94L121.443 158.923L115.73 162.219Z" fill="#392A38"/>
<path d="M105.177 162.456L105.865 163.076C105.865 163.076 105.848 163.121 105.814 163.104L104.738 162.709L105.183 162.45L105.177 162.456Z" fill="url(#paint3_linear_1_4234)"/>
<path d="M101.498 160.957L69.2598 142.291V142.798L101.504 161.464L101.498 160.957Z" fill="#EE9B1E"/>
<path d="M101.813 160.411L69.5696 141.745L69.2598 142.292L101.498 160.957L101.813 160.411Z" fill="#FFB821"/>
<path d="M102.258 160.151L70.0201 141.485L69.5693 141.744L101.813 160.41L102.258 160.151Z" fill="#FFC343"/>
<path d="M101.199 160.337L102.562 160.404C102.765 160.427 103.222 160.686 103.323 160.788L105.43 162.692C105.182 162.551 105.041 162.748 105.132 162.866L101.853 161.672C101.723 161.582 101.526 161.497 101.486 161.379L101.047 160.427L101.199 160.342V160.337Z" fill="url(#paint4_linear_1_4234)"/>
<path d="M103.03 160.59C102.945 160.787 102.635 160.669 102.517 160.754C102.348 160.872 103.142 161.311 102.652 161.385C102.416 161.418 102.111 161.266 101.886 161.204C101.813 161.187 101.706 161.176 101.683 161.216C101.615 161.328 101.92 161.452 101.875 161.661L99.9365 160.506L100.894 159.351L103.035 160.585L103.03 160.59Z" fill="#FFB821"/>
<path d="M100.889 159.362L101.47 159.694L103.03 160.596C102.946 160.787 102.642 160.675 102.523 160.759C102.506 160.77 102.501 160.787 102.506 160.81L100.405 159.593L100.901 159.362H100.889Z" fill="#FFC343"/>
<path d="M100.173 160.185L102.01 161.25C101.965 161.233 101.92 161.216 101.88 161.211C101.807 161.194 101.7 161.183 101.677 161.222C101.61 161.335 101.914 161.459 101.869 161.667L99.5928 160.36L100.173 160.185Z" fill="#EE9B1E"/>
<path d="M90.4376 162.399L52.8188 140.685V140.46L90.4376 162.174V162.399Z" fill="#D1A15A"/>
<path d="M95.2439 159.628L90.438 162.4V162.174L95.2439 159.402V159.628Z" fill="#EEBA65"/>
<path d="M90.4376 162.174L52.8188 140.46L57.6304 137.683L95.2435 159.402L90.4376 162.174Z" fill="#FFD079"/>
<path d="M78.8937 149.96L78.9444 149.988L77.4063 150.878L77.3556 150.85L78.8937 149.96ZM78.8092 151.177L78.8599 151.205L79.9529 150.574L79.9022 150.546L78.8092 151.177ZM79.8177 151.757L79.8684 151.785L80.9614 151.154L80.9107 151.126L79.8177 151.757ZM76.7866 150.011L76.8373 150.039L77.9303 149.408L77.8796 149.38L76.7866 150.011ZM73.7554 148.264L73.8062 148.292L74.8992 147.661L74.8485 147.633L73.7554 148.264ZM72.3019 147.937L72.3526 147.965L73.8907 147.075L73.84 147.047L72.3019 147.937ZM75.7781 149.43L75.8288 149.458L76.9218 148.827L76.8711 148.799L75.7781 149.43ZM80.8262 152.343L80.8769 152.371L81.9699 151.74L81.9192 151.712L80.8262 152.343ZM74.7696 148.844L74.8203 148.873L75.9133 148.242L75.8626 148.213L74.7696 148.844ZM84.8659 154.676L84.9166 154.704L86.0096 154.073L85.9589 154.045L84.8659 154.676ZM86.8829 155.842L86.9336 155.87L88.0266 155.239L87.9759 155.211L86.8829 155.842ZM85.8743 155.262L85.9251 155.29L87.0181 154.659L86.9674 154.631L85.8743 155.262ZM90.0492 156.405L89.9985 156.377L88.9055 157.008L88.9562 157.036L90.0492 156.405ZM87.4463 156.681L87.497 156.71L89.0351 155.819L88.9844 155.791L87.4463 156.681ZM71.7384 147.098L71.7892 147.126L72.8822 146.495L72.8315 146.467L71.7384 147.098ZM82.3981 153.769L82.4488 153.797L83.9869 152.907L83.9362 152.878L82.3981 153.769ZM83.8517 154.095L83.9024 154.124L84.9954 153.492L84.9447 153.464L83.8517 154.095ZM81.8347 152.929L81.8854 152.957L82.9784 152.326L82.9277 152.298L81.8347 152.929ZM58.6167 139.526L58.6674 139.554L59.7604 138.923L59.7097 138.895L58.6167 139.526ZM91.007 156.963L89.914 157.594L89.9647 157.622L91.0577 156.991L91.007 156.963ZM57.1631 139.199L57.2138 139.227L58.7519 138.337L58.7012 138.309L57.1631 139.199ZM59.6308 140.106L59.6815 140.134L60.7745 139.503L60.7238 139.475L59.6308 140.106ZM60.6393 140.686L60.69 140.714L61.783 140.083L61.7323 140.055L60.6393 140.686ZM91.9366 158.755L91.9873 158.783L93.0803 158.152L93.0296 158.124L91.9366 158.755ZM94.0945 158.732L94.0438 158.704L92.5057 159.594L92.5564 159.622L94.0945 158.732ZM61.6534 141.267L61.7042 141.295L62.7972 140.664L62.7465 140.636L61.6534 141.267ZM92.0775 157.566L92.0268 157.538L90.9338 158.169L90.9845 158.197L92.0775 157.566ZM69.7327 145.926L69.7834 145.954L70.8764 145.323L70.8257 145.295L69.7327 145.926ZM67.265 145.019L67.3157 145.047L68.8538 144.157L68.8031 144.129L67.265 145.019ZM68.7186 145.346L68.7693 145.374L69.8623 144.743L69.8116 144.715L68.7186 145.346ZM62.2169 142.106L62.2676 142.134L63.8057 141.244L63.755 141.216L62.2169 142.106ZM66.7016 144.179L66.7523 144.208L67.8453 143.577L67.7946 143.548L66.7016 144.179ZM70.7412 146.512L70.7919 146.54L71.8849 145.909L71.8342 145.881L70.7412 146.512ZM63.6761 142.433L63.7268 142.461L64.8198 141.83L64.7691 141.802L63.6761 142.433ZM64.6846 143.013L64.7353 143.041L65.8283 142.41L65.7776 142.382L64.6846 143.013ZM65.6931 143.593L65.7438 143.622L66.8368 142.991L66.7861 142.962L65.6931 143.593Z" fill="#CE9D4E"/>
<path d="M184.206 97.106L177.164 97.9849V104.566L182.167 106.228L185.102 102.109L184.206 97.106Z" fill="#211721"/>
<path d="M171.045 110.543L166.926 108.165L177.163 102.255L181.282 104.633L171.045 110.543Z" fill="#392A38"/>
<path d="M169.557 108.943C169.557 110.109 168.735 110.588 167.726 110.002C166.712 109.416 165.895 107.997 165.895 106.83C165.895 105.664 166.718 105.185 167.726 105.771C168.74 106.357 169.557 107.777 169.557 108.943Z" fill="#7FAD36"/>
<path d="M166.413 105.647L177.146 99.4497C177.478 99.2525 177.94 99.275 178.453 99.5736C179.467 100.16 180.284 101.579 180.284 102.746C180.284 103.32 180.081 103.732 179.76 103.923L169.027 110.121C169.354 109.929 169.551 109.518 169.551 108.943C169.551 107.777 168.729 106.351 167.72 105.771C167.207 105.478 166.745 105.45 166.413 105.647Z" fill="#92CC40"/>
<path d="M223.808 83.9562L219.689 81.5729V73.4317L223.808 75.8093V83.9562Z" fill="#CF9A46"/>
<path d="M230 80.3784L223.808 83.9561V75.8092L230 72.2372V80.3784Z" fill="#2B212B"/>
<path d="M223.808 75.8091L219.689 73.4315L225.881 69.8539L230 72.2371L223.808 75.8091Z" fill="#392A38"/>
<path d="M122.637 142.365L118.519 139.987V131.846L122.637 134.224V142.365Z" fill="#CF9A46"/>
<path d="M181.902 100.008V105.05L170.392 111.698V106.65L122.637 134.223V142.365L224.197 83.7308V75.5839L181.902 100.008Z" fill="#FFB345"/>
<path d="M181.283 100.362V104.632L171.068 110.531V106.26L169.338 107.258V113.134L183.04 105.224V99.3474L181.283 100.362Z" fill="#2B212B"/>
<path d="M181.592 100.182L224.197 75.5834L220.078 73.2058L177.473 97.8042L181.592 100.182Z" fill="#FFCB57"/>
<path d="M183.023 99.3593L178.899 96.9817L177.164 97.9846L181.282 100.362L183.023 99.3593Z" fill="#392A38"/>
<path d="M169.58 107.118L165.462 104.74L118.519 131.846L122.637 134.223L169.58 107.118Z" fill="#FFCB57"/>
<path d="M116.642 145.829L112.518 143.446V135.304L116.642 137.682V145.829Z" fill="#211721"/>
<path d="M122.834 142.251L116.642 145.829V137.682L122.834 134.11V142.251Z" fill="#2B212B"/>
<path d="M116.642 137.682L112.518 135.304L118.71 131.732L122.834 134.11L116.642 137.682Z" fill="#392A38"/>
<path d="M212.016 83.81C212.861 83.3198 213.689 83.3536 214.157 83.9846C214.827 84.9424 214.444 86.8918 213.25 88.3792C212.867 88.8525 212.45 89.213 212.033 89.4553C211.188 89.9455 210.359 89.9173 209.909 89.2525C209.21 88.3116 209.621 86.3453 210.788 84.903C211.171 84.4184 211.593 84.0466 212.01 83.81H212.016Z" fill="#2B212B"/>
<path d="M136.108 127.631C136.953 127.14 137.781 127.174 138.249 127.805C138.919 128.763 138.536 130.712 137.342 132.2C136.958 132.673 136.541 133.034 136.125 133.276C135.279 133.766 134.451 133.738 134 133.073C133.302 132.132 133.713 130.166 134.879 128.724C135.263 128.239 135.685 127.867 136.102 127.631H136.108Z" fill="#2B212B"/>
<path d="M171.073 106.256L166.954 103.878L165.213 104.881L169.332 107.265L171.073 106.256Z" fill="#392A38"/>
<g style="mix-blend-mode:multiply" opacity="0.5">
<path d="M146.39 75.7131C146.39 75.7131 143.895 75.5159 139.838 75.7244C125.758 76.4512 123.555 83.691 128.181 83.9783C128.181 83.9783 137.72 84.6319 138.21 85.2347C139.528 86.8573 140.272 86.4291 140.272 86.4291C140.379 85.939 140.373 80.7838 140.756 80.457C140.987 80.2598 143.742 79.426 144.03 79.3415C146.847 78.5133 146.959 79.6401 148.171 79.702C148.452 79.7189 148.751 79.7133 148.999 79.7189C149.247 79.7189 149.393 79.4429 149.253 79.24C148.554 78.2597 147.686 76.0061 146.396 75.7187L146.39 75.7131Z" fill="#384256"/>
<path d="M162.605 76.1469C162.605 76.1469 159.844 75.8314 154.486 76.1469C140.424 76.9695 138.553 82.412 144.396 82.8683C144.396 82.8683 153.934 83.3979 154.424 83.8881C155.743 85.2065 156.486 84.8572 156.486 84.8572C156.593 84.4571 156.588 80.2654 156.971 80.0006C157.202 79.8428 159.957 79.1611 160.244 79.0935C163.061 78.4174 163.174 79.3358 164.385 79.3865C164.667 79.3977 164.966 79.3977 165.214 79.3977C165.461 79.3977 165.608 79.1724 165.467 79.009C164.768 78.2146 163.901 76.3779 162.611 76.1469H162.605Z" fill="#384256"/>
<path d="M183.907 77.9383C183.783 77.8369 172.369 77.8932 172.031 77.8143C171.794 77.758 171.524 77.6509 171.456 77.4143C171.377 77.1382 171.619 76.8791 171.862 76.7213C172.611 76.2311 173.445 76.0959 174.296 76.0227V73.2733C174.262 73.2733 174.234 73.2733 174.2 73.2733C151.134 73.2733 159.793 79.1947 166.56 79.6172C166.56 79.6172 176.808 79.7581 183.242 79.6623C184.347 79.6454 184.268 79.1778 184.048 78.2143C184.026 78.1129 183.992 78.0002 183.913 77.9383H183.907Z" fill="#384256"/>
</g>
<path d="M149.387 53.8693C150.165 52.8777 153.585 49.1367 154.018 48.7874C154.086 48.731 154.418 48.8831 154.424 49.0071C154.475 49.8297 152.666 54.3989 150.722 55.7511C150.159 56.1455 149.37 55.875 149.173 55.2158C149.043 54.7933 149.055 54.2862 149.387 53.8693Z" fill="#FFC2A0"/>
<path d="M150.069 51.1764C149.263 51.5708 148.458 51.9595 147.646 52.3427C147.855 52.6582 148.7 54.2526 149.055 54.6414C149.686 55.3344 150.526 55.0076 150.734 54.2188C150.971 53.3286 150.34 52.0891 150.069 51.1708V51.1764Z" fill="#FFC2A0"/>
<path d="M150.903 51.6324C150.548 49.7056 149.905 47.4238 149.297 46.4942C148.869 45.8406 147.804 45.4406 146.683 45.4462C145.437 45.4462 146.192 47.4294 146.299 48.7985L148.277 52.7367C148.908 53.0522 151.043 52.2466 150.903 51.6381V51.6324Z" fill="#A5A5BB"/>
<path d="M150.356 78.4051C150.041 78.0896 149.444 77.667 148.824 77.2839C148.43 77.3008 147.939 77.2332 147.523 77.1881C146.677 77.0867 145.691 76.9121 144.993 76.3768C144.965 76.5346 144.953 76.7092 144.953 76.8783C144.953 77.2163 144.931 77.3966 145.303 77.6614C147.184 78.991 147.449 79.1657 147.793 79.3685C148.182 79.5939 148.694 79.9207 149.776 79.6897C150.413 79.4868 150.458 79.2333 150.447 79.0417C150.441 78.9347 150.486 78.5347 150.356 78.4107V78.4051Z" fill="#DD8C2A"/>
<path d="M150.261 78.1744C149.934 77.8701 148.959 77.1095 148.43 76.6588C148.148 76.4166 147.917 76.2025 147.765 75.8644C147.754 75.8419 147.742 75.8137 147.737 75.7968C147.545 75.2559 146.063 75.0475 145.37 75.3517C145.044 75.4926 144.948 76.0278 144.948 76.5349C144.948 76.8729 144.965 77.0138 145.337 77.2786C147.218 78.6082 147.725 78.9012 148.075 79.0815C148.413 79.2561 148.773 79.4251 149.551 79.3125C149.816 79.273 150.075 79.166 150.266 78.9801C150.435 78.8167 150.531 78.4448 150.255 78.1856L150.261 78.1744Z" fill="#FFFCF0"/>
<path d="M139.285 86.4849C140.023 87.0653 141.769 87.2399 142.192 86.2427C142.389 85.7807 141.617 82.7439 141.544 81.8706C141.521 81.6171 141.482 81.1776 141.482 81.1776C141.409 81.0931 141.15 81.0424 141.048 81.003C140.62 80.8227 139.865 81.0424 139.397 81.0424C139.161 81.0424 139.042 82.6312 139.037 82.7946C138.969 83.7581 138.71 86.0342 139.285 86.4849Z" fill="#DD8C2A"/>
<path d="M139.246 85.9608C139.984 86.5411 141.731 86.7158 142.153 85.7185C142.35 85.2565 141.646 82.2254 141.573 81.3465C141.55 81.093 141.511 80.6535 141.511 80.6535C141.438 80.569 141.111 80.5183 141.009 80.4732C140.581 80.2929 139.826 80.5126 139.359 80.5126C139.122 80.5126 139.004 82.1015 138.992 82.2648C138.925 83.2283 138.666 85.5044 139.24 85.9552L139.246 85.9608Z" fill="#FFFCF0"/>
<path d="M149.094 58.393C147.505 57.2775 142.502 58.1057 141.449 59.1198C140.784 59.7565 140.463 61.8918 140.435 62.427C140.266 65.3511 140.806 67.8639 140.559 70.1908C140.463 71.1091 140.192 71.9937 139.866 72.8501C139.24 74.484 138.88 79.2616 138.925 81.0082C138.998 82.0731 141.843 81.8421 141.826 81.2279C142.48 76.9122 143.043 76.1573 143.595 73.6726C143.691 73.2501 143.759 72.8219 143.888 72.405C144.215 71.3401 144.604 71.3176 145.224 65.2328L145.426 69.1372C144.773 71.8247 145.145 72.7036 145.066 74.1459C145.026 74.9572 144.919 75.622 144.931 75.746C144.976 76.4052 147.545 76.8559 147.967 75.9488C148.187 72.9458 148.846 70.7373 148.897 69.1147C148.92 68.3653 149.297 67.6893 149.438 66.9625C149.827 64.8948 150.238 59.1818 149.1 58.3874L149.094 58.393Z" fill="#2B478B"/>
<path d="M141.387 56.0501C144.176 55.436 146.931 54.7374 149.466 53.3626C149.5 51.7231 149.59 49.7287 149.692 48.523C149.731 48.0272 149.692 47.5201 149.506 47.0581C148.384 44.2749 144.108 45.982 141.781 47.1595C141.224 47.4412 140.711 47.8131 140.283 48.2638C140.266 48.2807 140.249 48.2976 140.232 48.3201C139.685 48.9117 140.074 52.0668 140.457 52.7204C141.128 53.8584 141.381 54.8388 141.393 56.0501H141.387Z" fill="#A5A5BB"/>
<path d="M149.455 54.2018C149.455 53.3003 149.488 52.1904 149.533 51.1312C149.342 49.1931 148.981 47.4127 148.069 45.7112C147.742 45.6042 147.387 45.5535 147.009 45.5479C147.815 46.1338 148.953 50.3425 148.818 51.2326C148.378 51.6327 145.252 52.489 144.592 52.3933C144.187 49.1424 143.578 47.8297 142.356 46.8719C142.063 46.9 141.601 47.1986 141.471 47.3282C142.936 47.6888 143.708 50.658 143.573 52.6412C143.477 54.0722 142.203 54.1455 141.06 53.999C141.381 56.016 141.24 57.4865 140.93 60.2472C140.682 62.4219 149.995 63.3403 149.629 59.757C149.629 59.757 149.449 56.0779 149.46 54.2018H149.455Z" fill="#2B478B"/>
<path d="M147.731 46.444C148.683 49.2272 144.536 50.2301 143.325 47.43C142.756 46.1116 147.269 45.0805 147.731 46.444Z" fill="#FFC2A0"/>
<path d="M147.624 47.0186C147.861 46.3538 148.148 45.7059 148.126 45.2044C146.914 45.0523 145.551 45.0805 144.492 44.6072L143.9 46.5059C143.855 46.6524 143.844 46.7989 143.872 46.951C143.996 47.6215 144.604 48.5849 145.748 48.5849C147.072 48.5849 147.404 47.644 147.624 47.0243V47.0186Z" fill="#FAAA82"/>
<path d="M149.292 43.4014C149.235 42.7479 149.061 42.0943 148.723 41.5253C148.216 40.6689 147.534 40.2745 146.542 40.2295C146.272 40.2182 145.832 40.4492 145.585 40.545C144.644 40.883 144.469 42.4437 144.435 43.3226C144.384 44.4325 144.435 45.6438 145.156 46.5115C146.092 47.627 147.286 48.4608 147.962 48.2806C148.39 48.1622 148.531 47.5031 148.649 47.0129L148.886 46.8213C148.897 45.8128 148.683 45.8635 149.055 45.2494C149.359 44.748 149.331 43.9705 149.286 43.4071L149.292 43.4014Z" fill="#FFC2A0"/>
<path d="M148.92 40.9959C147.895 39.9254 146.503 39.7958 145.534 40.3817C143.05 40.9677 143.078 43.8411 144.565 45.7003C144.407 45.2101 145.061 44.9397 145.157 45.0918C145.422 45.5031 145.5 46.0327 145.765 46.0891C145.957 46.1341 146.047 45.9144 146.154 45.6834C146.272 45.4299 146.419 45.2214 146.644 45.058C147.512 44.427 148.503 44.9397 149.343 44.2636C149.816 43.8805 149.996 42.117 148.92 40.9902V40.9959Z" fill="#2B478B"/>
<path d="M144.97 44.8159C144.553 44.337 143.804 44.9511 144.993 46.2864C145.111 46.4216 145.269 46.5568 145.426 46.461C145.765 46.2526 145.218 45.0976 144.97 44.8159Z" fill="#FFC2A0"/>
<path d="M148.643 44.6978C146.305 44.9795 141.235 43.0696 144.181 40.3821C144.784 39.8356 145.545 39.6441 146.193 39.5201C148.548 39.075 149.646 41.3005 149.877 42.2977C149.877 42.2977 151.658 43.2273 150.277 44.2189C149.911 44.4781 149.145 44.5964 148.649 44.6922L148.643 44.6978Z" fill="#FFD73B"/>
<path d="M149.758 41.7444C149.426 40.6344 147.088 37.8512 144.31 40.3246C143.482 41.0626 143.578 41.8852 144.198 42.5162C145.11 43.4458 148.429 44.4769 149.55 43.4289C150.164 42.8543 149.967 42.443 149.758 41.75V41.7444Z" fill="#F8B71D"/>
<path d="M145.257 39.666L144.604 40.1054C148.221 40.0378 148.976 43.5647 148.998 43.7112L149.652 43.3394C149.646 43.2999 149.533 39.5815 145.263 39.666H145.257Z" fill="#FFD73B"/>
<path d="M171.789 50.0273C171.265 49.971 170.741 49.9034 170.211 49.8358C170.335 50.5118 170.47 51.4922 170.459 51.7908C170.397 53.8021 170.115 55.8022 169.834 57.7967C169.8 58.0221 169.766 58.2531 169.693 58.4728C169.597 58.7658 169.428 59.0306 169.315 59.3179C169.163 59.7123 169.113 60.1349 169.067 60.5518C169.017 60.9969 168.949 61.4532 168.966 61.9039C168.966 61.949 168.966 61.9941 168.972 62.0392C168.977 62.1237 168.989 62.2082 169.028 62.2814C169.045 62.3209 169.079 62.3547 169.118 62.3716C169.327 62.4448 169.451 61.9603 169.479 61.8251C169.535 61.5828 169.575 61.3011 169.513 61.0588C169.659 61.6222 169.806 62.18 169.952 62.7434C169.986 62.8617 170.042 63.0533 170.183 63.0927C170.51 63.1829 170.369 62.6815 170.346 62.5237C170.363 62.5913 170.391 62.6533 170.431 62.7096C170.476 62.7716 170.544 62.8279 170.622 62.8167C170.701 62.811 170.758 62.7378 170.775 62.6646C170.893 62.1575 170.465 61.6504 170.482 61.1321C170.482 61.1941 170.696 61.3687 170.746 61.4138C170.853 61.5152 170.96 61.6053 171.079 61.6899C171.22 61.7969 171.355 61.9265 171.524 61.9941C171.597 62.0223 171.676 62.0504 171.744 61.9941C171.856 61.8983 171.761 61.7349 171.71 61.6335C171.648 61.5096 171.558 61.4025 171.456 61.3067C171.282 61.1377 171.011 60.9687 170.915 60.7377C170.82 60.5011 170.977 60.163 171.034 59.9151C171.175 59.3066 171.321 58.6982 171.462 58.084C172.487 53.712 172.673 53.1035 172.69 52.1288C172.69 51.9316 172.741 51.0696 172.808 50.1344C172.47 50.0837 172.127 50.0668 171.789 50.0329V50.0273Z" fill="#FCBE9F"/>
<path d="M169.568 60.354C169.585 60.4272 169.613 60.5061 169.681 60.5343C169.737 60.5624 169.81 60.5343 169.855 60.4892C169.901 60.4441 169.923 60.3822 169.94 60.3202C170.002 60.0892 169.996 59.8469 170.081 59.6216C170.16 59.4187 170.306 59.2553 170.464 59.1089C170.622 58.9624 170.779 58.8102 170.886 58.6243C170.994 58.4384 171.05 58.2074 170.965 58.0046C170.948 57.9595 170.926 57.9201 170.886 57.8919C170.847 57.8637 170.796 57.8525 170.746 57.8468C170.453 57.8187 170.16 57.9764 169.968 58.1961C169.478 58.7483 169.405 59.661 169.568 60.354Z" fill="#FCBE9F"/>
<path d="M170.989 45.3845C171.479 45.4296 171.502 44.8549 171.885 45.4577C172.888 47.0353 173.125 51.0636 173.125 51.0636C173.282 51.7566 169.699 52.1905 169.688 51.0918C169.637 47.6381 168.612 45.1648 170.989 45.3845Z" fill="#A5A5BB"/>
<path d="M169.715 77.3245C169.726 77.2174 169.704 76.9245 169.845 76.8005C170.194 76.4963 170.853 75.9723 171.524 75.6173L175.462 74.9863C175.479 75.1554 175.479 75.3356 175.462 75.5103C175.439 75.8596 175.411 76.0061 175.006 76.254C172.96 77.5048 172.684 77.6681 172.312 77.8541C171.896 78.0625 171.383 78.3217 170.279 78.0118C169.721 77.7639 169.687 77.5329 169.709 77.3301L169.715 77.3245Z" fill="#DD8C2A"/>
<path d="M169.958 76.6084C170.46 76.2027 171.688 75.3801 172.302 74.8336C172.471 74.6872 172.865 74.2759 172.961 74.0618C173.198 73.5153 174.448 73.5209 175.147 73.8815C175.474 74.0505 175.536 74.6139 175.502 75.1379C175.479 75.4872 175.451 75.6337 175.046 75.8816C173 77.1323 172.55 77.3577 172.172 77.5211C171.806 77.6789 171.423 77.8253 170.623 77.6563C170.352 77.6 170.093 77.4648 169.902 77.2619C169.738 77.0816 169.654 76.8563 169.958 76.6084Z" fill="#FFFCF0"/>
<path d="M185.772 78.9298C185.862 79.7862 185.885 80.6651 185.575 80.9468C184.916 81.544 183.282 81.8201 182.82 80.9074C182.713 80.6933 182.797 79.8313 182.905 78.9298H185.772Z" fill="#DD8C2A"/>
<path d="M185.581 80.4512C184.922 81.0484 183.288 81.3244 182.826 80.4117C182.612 79.9892 183.08 77.0876 183.091 76.2538C183.091 76.0172 183.102 75.5946 183.102 75.5946C183.164 75.5101 183.468 75.4368 183.564 75.3918C183.959 75.1946 184.68 75.3523 185.119 75.3242C185.344 75.3073 185.553 76.8003 185.575 76.9468C185.699 77.8539 186.094 79.9779 185.575 80.4399L185.581 80.4512Z" fill="#FFFCF0"/>
<path d="M172.555 68.3719C172.712 67.5381 172.752 67.1719 172.752 66.1634C172.752 60.8617 173.873 57.2728 174.431 54.2924L181.851 55.3797C182.978 58.1235 183.502 62.0167 183.8 65.0309C183.862 65.645 183.986 66.2535 184.2 66.8338C184.735 68.3043 185.203 68.3043 185.31 71.4087C185.361 72.9017 185.372 74.1356 185.445 75.6286C185.547 76.3103 183.085 76.6033 182.949 75.8033C182.854 75.2286 182.403 73.8651 182.217 73.3186C181.699 71.7805 181.608 71.2791 181.338 69.8255C181.169 68.9184 181.085 68.4339 180.544 67.4648C179.31 65.2619 178.667 63.8534 177.732 61.2561C177.191 63.0759 176.696 64.9182 176.177 66.5803C175.907 67.4592 175.969 67.5944 176.07 68.4226C176.312 70.3833 175.783 71.5833 175.546 73.9778C175.473 74.7553 172.825 74.9807 172.769 73.8257C172.678 71.8087 172.222 70.0959 172.549 68.3719H172.555Z" fill="#2B478B"/>
<path d="M177.598 46.6638C178.06 46.8385 178.561 46.9963 178.894 47.3681C180.009 48.6132 179.756 50.1908 180.252 51.4584C180.331 51.6613 180.443 51.943 180.578 52.2585C181.136 53.5881 174.42 54.7149 172.437 51.9824C172.099 51.5204 171.693 50.9795 171.198 50.3485C170.161 49.0245 168.307 45.9258 170.719 44.8666C171.564 44.4947 172.584 44.7764 173.406 45.0581C174.815 45.5427 176.201 46.1286 177.592 46.6638H177.598Z" fill="#A5A5BB"/>
<path d="M172.55 51.0471C174.894 52.0387 176.471 52.0782 177.119 52.2472C177.48 53.2162 178.573 53.3007 179.407 52.9345C179.88 52.7261 180.263 52.388 180.472 51.9824C181.013 53.2838 182.021 55.5938 182.021 55.9826C182.021 57.0699 179.903 58.4221 176.697 57.5207C176.038 57.3347 174.697 56.7263 174.438 56.0953C173.914 54.822 174.714 55.0586 172.511 52.0782C173.029 52.4669 172.578 51.4584 172.55 51.0528V51.0471Z" fill="#2B478B"/>
<path d="M176.859 46.3931C176.983 46.241 177.654 46.4607 177.778 46.7086C177.057 47.1143 176.471 49.4975 178.234 53.6949C178.262 53.7625 178.296 53.8357 178.29 53.9146C178.274 54.1343 177.964 54.2188 177.778 54.1118C177.592 53.9991 177.502 53.7794 177.423 53.5765C176.476 51.0694 175.642 48.7876 176.865 46.3987L176.859 46.3931Z" fill="#2B478B"/>
<path d="M170.91 45.3732C171.034 45.2211 171.806 45.1591 171.93 45.407C171.209 45.8127 171.609 48.5452 173.688 52.6863C173.722 52.7539 173.75 52.8271 173.744 52.906L173.063 52.6412C172.939 52.5961 172.848 52.5003 172.792 52.382C171.891 50.3143 170.493 47.8917 170.91 45.3789V45.3732Z" fill="#2B478B"/>
<path d="M172.381 45.9079C172.471 45.6431 172.669 44.5444 173.311 44.7867C174.466 45.2149 175.762 45.8854 175.818 46.4995C175.919 47.6432 174.77 48.7756 173.44 48.5841C172.584 48.4601 171.801 47.5756 172.381 45.9079Z" fill="#FABC9D"/>
<path d="M173.716 48.1283C173.062 48.2354 172.443 47.7621 172.369 47.1029C172.33 46.7592 172.353 46.4156 172.358 46.2071C172.381 45.6155 172.155 45.3451 172.178 45.3113C172.291 45.1366 172.691 44.269 173.248 44.0436C173.806 43.8182 174.578 43.9366 174.848 44.5338C174.972 44.8098 174.978 45.1254 175.113 45.4014C175.198 45.5761 175.265 45.7338 175.367 45.8691C175.93 46.6353 175.102 47.903 173.716 48.1283Z" fill="#F2A883"/>
<path d="M170.527 42.1C170.994 41.2323 171.659 40.8154 172.634 40.7309C172.899 40.7084 173.344 40.9225 173.597 41.007C174.538 41.3056 174.775 42.8437 174.848 43.7113C174.938 44.81 174.938 46.01 174.256 46.9002C173.265 48.1848 172.206 48.8327 171.608 48.5454C171.405 48.4496 171.101 47.6214 171.011 47.5819C170.977 47.565 170.713 47.4862 170.701 47.3228C170.696 47.1819 170.741 46.5115 170.718 46.4044C170.679 46.1622 170.476 45.9931 170.335 45.7903C170.008 45.3114 170.014 44.5339 170.036 43.9761C170.065 43.3226 170.217 42.6747 170.527 42.1Z" fill="#FABC9D"/>
<path d="M170.201 41.3565C171.142 40.2297 173.609 39.8241 174.533 41.1593C175.959 41.503 176.212 44.1679 174.809 46.0666C174.945 45.5708 174.511 45.0919 174.37 45.2046C173.829 45.6384 173.998 46.3258 173.694 46.4441C173.508 46.5174 173.418 46.2469 173.254 45.9032C173.108 45.5877 172.804 45.6046 172.454 45.5539C171.846 45.4694 171.046 45.6722 170.42 45.43C170.122 45.3117 169.885 45.0807 169.744 44.7933C169.367 44.0215 169.22 42.5172 170.195 41.3565H170.201Z" fill="#2B478B"/>
<path d="M174.369 45.2104C174.764 44.7202 175.53 45.3005 174.403 46.664C174.29 46.8048 174.138 46.9401 173.981 46.8556C173.637 46.664 174.138 45.4977 174.369 45.2104Z" fill="#FABC9D"/>
<path d="M183.057 48.7757C183.942 49.1475 183.226 53.097 182.054 52.7139C181.874 52.6576 179.474 51.8857 178.116 51.1082C176.68 50.2856 177.237 46.8319 178.443 47.0798C179.237 47.2432 181.671 48.201 183.057 48.7813V48.7757Z" fill="#A5A5BB"/>
<path d="M183.057 48.7765C182.195 48.4835 181.671 52.5739 182.11 52.7203C183.248 52.957 183.953 49.0807 183.057 48.7765Z" fill="#8E8EA1"/>
<path d="M174.566 40.5166C173.879 40.0941 173.102 40.049 172.448 40.049C170.07 40.049 169.417 42.421 169.377 43.4407C169.377 43.4407 167.811 44.6915 169.349 45.3901C172.29 46.7198 178.471 42.9168 174.572 40.5166H174.566Z" fill="#FFD73B"/>
<path d="M169.383 42.8828C169.501 41.7391 171.259 38.5953 174.426 40.4883C175.366 41.0517 175.558 41.987 175.073 42.7138C174.358 43.7899 171.93 45.4069 169.896 44.4829C169.141 44.1392 169.304 43.5983 169.383 42.8828Z" fill="#F8B71D"/>
<path d="M173.383 40.0156L174.104 40.3198C170.566 40.9227 170.555 44.6299 170.566 44.7764C170.172 45.0299 169.868 44.7764 169.76 44.4271C169.76 44.3876 169.208 40.7255 173.383 40.0099V40.0156Z" fill="#FFD73B"/>
<path d="M168.436 57.605C168.3 57.0585 168.486 56.4332 168.165 55.9374C167.957 55.6219 167.697 55.2669 167.32 55.2331C166.948 55.1937 166.559 55.5148 166.204 55.3514C166.052 55.2838 164.137 51.8639 164.114 51.6442C164.103 51.5202 163.506 46.3256 163.01 45.5594L161.776 45.8467C160.79 46.3989 160.514 47.5426 160.762 48.6412C161.083 50.061 161.523 51.7456 161.607 52.0611C161.607 52.0724 161.613 52.0836 161.613 52.0949C162.475 53.9429 163.573 54.8725 165.117 56.636C165.449 57.0191 165.551 57.374 165.782 57.7966C165.866 57.9431 166.019 58.1008 166.058 58.2699C166.092 58.4276 166.08 58.5628 166.255 58.6473C166.379 58.7093 166.531 58.6981 166.644 58.6135C166.672 58.591 166.7 58.5628 166.74 58.5516C166.79 58.5347 166.841 58.5516 166.886 58.5685C167.095 58.6248 167.354 58.5685 167.444 58.3713C167.455 58.3487 167.466 58.3206 167.495 58.3093C167.517 58.298 167.545 58.3093 167.568 58.3093C167.641 58.3262 167.714 58.3149 167.782 58.298C167.9 58.2699 168.013 58.2192 168.126 58.1685C168.227 58.1234 168.396 58.1177 168.458 58.0107C168.526 57.898 168.458 57.7121 168.436 57.5994V57.605Z" fill="#FCBE9F"/>
<path d="M164.149 49.8805C164.188 48.6184 163.991 44.0379 161.906 44.3253C161.354 44.3985 160.65 44.4605 159.9 45.0013C158.092 46.3028 160.334 48.3367 161.072 50.3537C161.315 51.334 164.211 51.058 164.149 49.8861V49.8805Z" fill="white"/>
<path d="M167.027 78.7329C164.818 79.009 162.075 77.6399 161.286 77.161C161.28 77.33 161.286 77.5103 161.303 77.685C161.342 78.0343 161.376 78.1808 161.799 78.4118C163.917 79.578 164.204 79.7302 164.587 79.8992C165.021 80.0907 165.545 80.333 166.644 79.9668C167.196 79.6907 167.218 79.4541 167.185 79.2512C167.168 79.1442 167.179 78.8456 167.033 78.7329H167.027Z" fill="#C4A58C"/>
<path d="M166.909 78.5475C166.385 78.1588 165.106 77.3869 164.469 76.8686C164.295 76.7277 163.872 76.3333 163.771 76.1192C163.506 75.5784 162.249 75.6403 161.562 76.0404C161.241 76.2263 161.207 76.7953 161.263 77.3193C161.303 77.6686 161.337 77.8151 161.759 78.0461C163.878 79.2123 164.34 79.4152 164.728 79.5673C165.106 79.7081 165.495 79.8434 166.295 79.6293C166.565 79.556 166.819 79.4152 166.999 79.2011C167.157 79.0095 167.23 78.7841 166.909 78.5475Z" fill="white"/>
<path d="M154.943 83.1499C154.999 83.8429 155.123 84.4626 155.405 84.6542C156.148 85.1556 157.822 85.195 158.143 84.2147C158.205 84.0288 158.086 83.4597 157.912 82.7949C157.168 83.3921 155.743 83.4935 154.937 83.1499H154.943Z" fill="#C4A58C"/>
<path d="M155.325 84.159C156.069 84.6605 157.742 84.6999 158.064 83.7196C158.216 83.2632 157.331 80.4405 157.196 79.6123C157.156 79.3757 157.089 78.9588 157.089 78.9588C157.016 78.8855 156.7 78.8574 156.599 78.8236C156.176 78.6827 155.477 78.9475 155.038 78.9813C154.813 78.9982 154.818 80.5194 154.818 80.6659C154.824 81.5899 154.739 83.7646 155.32 84.1534L155.325 84.159Z" fill="white"/>
<path d="M163.568 58.1742C163.461 57.5207 163.45 56.9066 162.864 56.7882C162.278 56.6699 157.827 57.1601 156.909 57.2277C156.616 57.2502 155.619 57.5432 155.32 57.9376C154.852 58.5573 154.599 60.1687 154.452 60.9406C154.244 62.0336 154.261 63.2055 154.734 67.9381C154.745 68.0789 154.751 68.2254 154.757 68.3663C154.79 69.3691 154.729 70.3607 154.514 71.3411C154.368 72.0115 154.199 73.0707 154.255 74.2539C154.3 75.2736 154.678 79.3527 154.678 79.3527C154.819 80.4401 157.427 80.1809 157.399 79.2231C157.399 79.2231 157.844 73.9778 158.07 72.5637C158.188 71.82 158.312 71.1495 158.368 70.896C158.532 70.1466 159.625 64.0337 159.625 64.0337L160.402 67.4197C160.515 67.9043 160.56 68.4057 160.532 68.9015C160.532 68.9578 160.526 69.0142 160.52 69.0762C160.458 70.2593 160.56 71.4425 160.791 72.6087C160.858 72.9468 160.915 73.3074 160.943 73.7693C160.982 74.3553 161.163 76.0342 161.196 76.3385C161.253 77.3245 164.087 77.1216 164.053 76.2652C163.98 73.9609 163.946 72.1524 163.929 70.8284C163.918 69.9269 163.918 67.8141 163.94 67.2845C164.126 63.0871 163.794 59.6109 163.557 58.1911L163.568 58.1742Z" fill="#2B478B"/>
<path d="M153.235 47.5652C152.458 49.1314 153.968 50.9343 154.503 52.4105C155.455 55.0191 155.348 56.8614 155.173 58.3826C155.156 58.546 155.207 58.7037 155.325 58.8221C155.849 59.3404 157.461 60.4165 160.627 59.701C162.492 59.2784 163.591 58.1122 163.382 57.2051C162.824 54.7712 162.469 54.2077 162.841 50.9907C163.14 48.4103 163.264 47.5483 162.627 45.2439C162.469 44.6693 162.419 44.4101 161.85 44.0946C161.174 43.7227 154.086 45.8693 153.235 47.5764V47.5652Z" fill="white"/>
<path d="M161.501 43.1141L161.557 43.3282L163.383 45.1085L163.501 44.9226L161.501 43.1141Z" fill="#302628"/>
<path d="M160.599 47.5317C160.453 47.7965 160.182 47.9768 159.889 48.0501C159.326 48.1853 158.74 48.1402 158.261 47.8472C157.596 47.4416 157.033 46.6697 157.134 45.6218C157.146 45.5091 157.196 45.402 157.275 45.3232C157.636 44.957 158.064 44.3372 158.318 43.0921C158.396 42.7033 158.847 42.5343 159.163 42.7822C160.216 43.6104 161.044 45.233 161.033 45.9317C161.033 46.219 160.898 47.0078 160.605 47.5317H160.599Z" fill="#F2A883"/>
<path d="M162.245 41.2602C161.732 40.3926 161.045 39.9925 160.042 39.9475C159.771 39.9362 159.326 40.1728 159.073 40.263C158.126 40.6067 157.946 42.1786 157.906 43.0687C157.856 44.1899 157.906 45.4182 158.633 46.2914C160.053 47.9873 161.664 48.1958 161.856 47.1197C161.873 47.0239 161.878 46.9056 161.969 46.8605C162.002 46.8436 162.036 46.8436 162.07 46.8323C162.228 46.7872 162.273 46.5844 162.273 46.421C162.273 46.2745 162.261 46.1281 162.245 45.9872C162.228 45.8745 162.205 45.7618 162.216 45.6548C162.245 45.4069 162.447 45.2266 162.583 45.0125C162.898 44.5111 162.864 43.7223 162.814 43.1533C162.757 42.4884 162.577 41.8349 162.239 41.2602H162.245Z" fill="#FBBD9E"/>
<path d="M160.712 46.991C160.222 46.9008 159.529 46.4276 159.433 46.1346C159.36 45.9036 159.393 45.1486 159.309 45.1543C159.134 45.1712 158.853 45.1543 158.898 45.3177C158.976 45.6219 158.976 45.8642 158.937 45.9318C158.819 46.1628 158.515 45.9994 158.34 45.8473C158.436 46.0726 158.706 46.4219 158.988 46.7374C159.343 47.1375 159.76 47.4811 160.239 47.7234C160.453 47.8305 160.644 47.8924 160.853 47.915C161.253 47.9544 161.653 47.7572 161.833 47.3966C161.906 47.2445 161.957 47.0642 161.974 46.867C161.799 46.9403 161.613 46.9459 161.472 46.9572C161.236 46.991 161.05 47.053 160.717 46.991H160.712Z" fill="#AC8979"/>
<path d="M162.441 40.7258C161.433 39.6159 160.002 39.5145 159.016 40.1061C156.508 40.6976 156.531 43.5992 158.035 45.481C157.878 44.9852 158.537 44.7091 158.633 44.8669C158.903 45.3232 158.959 45.6838 159.23 45.7007C159.449 45.7176 159.303 45.3007 159.934 45.0359C160.047 44.9908 161.889 44.9795 162.734 44.264C162.802 44.2077 162.847 44.1344 162.875 44.0556C163.021 43.6499 163.669 42.078 162.436 40.7202L162.441 40.7258Z" fill="#302628"/>
<path d="M158.385 44.7488L158.532 45.0193L160.96 46.456L161.09 46.2531L158.385 44.7488Z" fill="#302628"/>
<path d="M176.104 56.6868C171.281 56.1516 164.644 57.0587 164.644 57.0587L154.097 63.1491C154.097 63.1491 158.802 62.2646 165.557 62.7773L176.104 56.6868Z" fill="#FFFCF0"/>
<path d="M158.397 44.5678C157.935 44.1678 157.039 44.7481 158.346 45.8693C158.476 45.982 158.65 46.0947 158.836 45.9989C159.242 45.7961 158.667 44.8045 158.397 44.5678Z" fill="#FBBD9E"/>
<path d="M163.512 44.8724L162.627 45.3513C162.577 45.3795 162.515 45.4358 162.475 45.4809C162.441 45.4809 162.402 45.4809 162.334 45.5203C162.284 45.5485 162.222 45.5936 162.16 45.6386C162.16 45.6105 162.137 45.6105 162.103 45.6274L161.219 46.1063C161.168 46.1344 161.106 46.1908 161.067 46.2358L160.791 46.6021C160.746 46.664 160.723 46.7091 160.734 46.7373C160.734 46.7485 160.751 46.7542 160.768 46.7542C160.791 46.7542 160.824 46.7429 160.87 46.7204L161.472 46.3936C161.602 46.326 161.771 46.1739 161.861 46.0556L162.098 45.74C162.137 45.7062 162.171 45.6893 162.21 45.6612C162.244 45.6386 162.278 45.6105 162.301 45.5936C162.357 45.5654 162.385 45.5597 162.402 45.5654L162.21 45.8189C162.21 45.8189 162.216 45.8696 162.222 45.8922C162.222 45.8753 162.239 45.8584 162.25 45.8415L162.526 45.4752C162.526 45.4752 162.571 45.4302 162.594 45.4189L163.467 44.9456L163.202 45.295C163.134 45.3851 162.994 45.5034 162.898 45.5598L162.295 45.8865C162.256 45.9091 162.233 45.9147 162.222 45.9034C162.222 45.926 162.227 45.9485 162.233 45.971C162.244 45.971 162.256 45.971 162.267 45.9598L162.87 45.633C162.999 45.5654 163.168 45.4133 163.258 45.295L163.534 44.9287C163.557 44.9006 163.568 44.8724 163.563 44.8611C163.563 44.8499 163.534 44.8499 163.501 44.8668L163.512 44.8724ZM161.816 46.0612C161.748 46.1513 161.608 46.2696 161.512 46.326L160.909 46.6528C160.864 46.6753 160.836 46.6809 160.83 46.6697C160.83 46.6584 160.847 46.6246 160.858 46.6077L161.134 46.2415C161.134 46.2415 161.179 46.1964 161.202 46.1851L162.075 45.7119L161.81 46.0612H161.816Z" fill="#302628"/>
<path d="M159.173 62.6587C158.993 62.5742 158.39 61.7516 158.227 61.5657C157.878 61.177 157.539 60.7882 157.201 60.3938C157.117 60.298 157.049 60.1966 156.987 60.084C156.046 58.3825 155.415 55.8922 155.415 55.8922C155.415 55.8922 155.472 52.7935 155.252 51.954C154.965 52.0047 152.942 52.6075 152.3 52.2526C152.046 54.1344 152.57 56.6472 152.846 57.0641C153.894 58.6585 154.249 59.0698 155.776 61.1263C155.973 61.3911 156.142 61.6502 156.154 61.9883C156.165 62.2925 156.114 62.6531 156.244 62.9404C156.379 63.2447 157.28 63.6109 157.601 63.6165C157.911 63.6165 158.74 63.532 159.033 63.4926C159.54 63.425 160.097 63.0024 160.599 62.6249L159.179 62.6644L159.173 62.6587Z" fill="#FCBE9F"/>
<path d="M153.433 47.25C151.973 49.1261 151.911 52.8334 152.052 53.6278C152.148 54.3377 155.517 54.5856 155.579 53.8193C155.579 53.8193 156.402 50.7037 156.475 49.836C156.695 47.2387 154.103 46.5288 153.433 47.25Z" fill="white"/>
<path d="M164.239 59.6848L163.287 60.237H162.949L163.901 59.6848H164.239Z" fill="#909EA3"/>
<path d="M162.628 60.7154H160.126L162.538 59.3012L165.592 57.5265L171.502 57.4025L171.288 57.5265H171.192L171.333 57.4476L167.975 57.5152L164.994 59.2449H165.383L165.31 59.2843L162.605 59.3181L160.29 60.6703L166.994 60.6816L169.468 59.2392L167.316 59.2618L167.389 59.2167L168.296 59.2054L170.42 57.9772H170.516L168.392 59.2054L169.637 59.1885L167.011 60.721H166.69L164.803 61.8196L160.814 61.7689L162.628 60.7097V60.7154Z" fill="#909EA3"/>
<path opacity="0.2" d="M166.51 59.5895H166.589L166.87 60.2092L166.809 60.2487L166.51 59.5895ZM166.696 60.3163L166.735 60.2938L166.42 59.5951H166.341L166.668 60.3163H166.696ZM166.944 60.1698L167.006 60.1304L166.758 59.5895H166.679L166.944 60.1698ZM166.324 60.3163H166.403L166.07 59.5951H165.992L166.324 60.3163ZM166.155 60.3163H166.234L165.901 59.5951H165.823L166.155 60.3163ZM165.986 60.3163H166.065L165.727 59.5951H165.648L165.986 60.3163ZM167.079 60.0909L167.141 60.0515L166.932 59.5839H166.854L167.079 60.0853V60.0909ZM166.493 60.3163H166.572L166.239 59.5951H166.161L166.493 60.3163ZM167.625 59.7754L167.687 59.736L167.62 59.5839H167.541L167.625 59.7754ZM167.958 59.5839H167.885L167.902 59.6177L167.958 59.5839ZM167.22 60.0177L167.282 59.9782L167.107 59.5895H167.028L167.22 60.012V60.0177ZM167.766 59.7022L167.828 59.6627L167.794 59.5895H167.716L167.766 59.7022ZM167.496 59.8599L167.558 59.8205L167.451 59.5895H167.372L167.496 59.8599ZM167.361 59.9388L167.423 59.8994L167.282 59.5895H167.203L167.361 59.9388ZM163.958 60.3276H164.037L163.946 60.1416L163.884 60.1754L163.958 60.3276ZM164.127 60.3276H164.206L164.076 60.0628L164.014 60.0966L164.127 60.3276ZM164.634 60.3276H164.713L164.47 59.8318L164.408 59.8656L164.634 60.3219V60.3276ZM164.465 60.3276H164.544L164.341 59.9106L164.279 59.9444L164.465 60.3276ZM164.296 60.3276H164.375L164.211 59.9839L164.149 60.0177L164.296 60.3219V60.3276ZM165.823 60.3276H165.901L165.563 59.612H165.485L165.823 60.3276ZM163.62 60.3276H163.693L163.676 60.2938L163.62 60.3276ZM163.783 60.3276H163.862L163.806 60.2149L163.744 60.2487L163.777 60.3219L163.783 60.3276ZM165.31 60.3276H165.389L165.045 59.612H164.966L165.31 60.3276ZM165.479 60.3276H165.558L165.214 59.612H165.135L165.479 60.3276ZM165.648 60.3276H165.727L165.389 59.612H165.31L165.654 60.3276H165.648ZM165.141 60.3276H165.22L164.876 59.612H164.848L164.808 59.6346L165.146 60.3219L165.141 60.3276ZM164.972 60.3276H165.051L164.735 59.6796L164.673 59.7134L164.972 60.3276ZM164.803 60.3276H164.882L164.606 59.7529L164.544 59.7867L164.803 60.3219V60.3276Z" fill="#909EA3"/>
<path opacity="0.2" d="M162.492 59.4594L162.554 59.4256L162.791 59.8425L162.729 59.8763L162.492 59.4594ZM162.599 59.9552L162.661 59.9214L162.425 59.5045L162.363 59.5383L162.599 59.9552ZM162.47 60.0284L162.532 59.9946L162.295 59.5777L162.233 59.6115L162.47 60.0284ZM162.858 59.8031L162.92 59.7693L162.701 59.3861H162.627L162.858 59.8087V59.8031ZM162.34 60.1073L162.402 60.0735L162.171 59.6566L162.109 59.6904L162.34 60.1073ZM163.563 59.3749H163.478L163.506 59.4256L163.568 59.3918L163.557 59.3749H163.563ZM162.211 60.1862L162.272 60.1524L162.041 59.7355L161.98 59.7693L162.211 60.1918V60.1862ZM163.382 59.5045L163.444 59.4707L163.394 59.3805H163.315L163.388 59.5045H163.382ZM163.253 59.5777L163.315 59.5439L163.219 59.3805H163.14L163.253 59.5777ZM163.123 59.6509L163.185 59.6171L163.05 59.3805H162.971L163.129 59.6509H163.123ZM162.994 59.7242L163.056 59.6904L162.875 59.3805H162.796L162.994 59.7298V59.7242ZM161.061 60.5749H161.14L161.01 60.327L160.948 60.3608L161.061 60.5749ZM160.892 60.5749H160.971L160.881 60.4003L160.819 60.4341L160.892 60.5693V60.5749ZM161.27 60.1749L161.208 60.2087L161.399 60.5693H161.478L161.264 60.1693L161.27 60.1749ZM160.723 60.5749H160.802L160.751 60.4792L160.689 60.513L160.723 60.5749ZM161.692 60.4848L161.754 60.451L161.529 60.0284L161.467 60.0622L161.692 60.4848ZM161.822 60.4116L161.884 60.3777L161.653 59.9552L161.591 59.989L161.816 60.4116H161.822ZM161.23 60.5749H161.309L161.14 60.2538L161.078 60.2876L161.23 60.5749ZM161.951 60.3327L162.013 60.2989L161.782 59.8763L161.72 59.9101L161.951 60.3327ZM161.563 60.558L161.625 60.5242L161.399 60.1017L161.337 60.1355L161.563 60.558ZM162.081 60.2538L162.143 60.22L161.912 59.7974L161.85 59.8312L162.081 60.2538Z" fill="#909EA3"/>
<path d="M159.326 61.516L160.594 61.5329L161.546 60.9751L160.267 60.9695L159.326 61.516Z" fill="#909EA3"/>
<path d="M169.146 59.0528L169.664 59.0472L172.352 57.4866L171.828 57.4978L169.146 59.0528Z" fill="#909EA3"/>
<path d="M168.729 56.3713C168.673 56.2981 168.594 56.2417 168.521 56.191C168.256 55.9995 168.019 55.7685 167.816 55.515L166.487 56.1122C166.808 56.0896 167.152 56.0784 167.428 56.2418C167.659 56.377 167.816 56.6249 168.059 56.7432C168.222 56.8221 168.414 56.8333 168.588 56.777C168.662 56.7544 168.735 56.7094 168.769 56.6418C168.808 56.5573 168.78 56.4558 168.729 56.3826V56.3713Z" fill="#FCBE9F"/>
<path d="M159.422 61.6894C159.332 61.6669 159.236 61.6725 159.146 61.6725C158.819 61.6838 158.493 61.65 158.177 61.5711L157.501 62.8613C157.738 62.6472 158.002 62.4219 158.318 62.3824C158.583 62.3486 158.859 62.4444 159.124 62.3824C159.298 62.343 159.462 62.2359 159.557 62.0838C159.603 62.0162 159.631 61.9373 159.614 61.8641C159.597 61.7739 159.512 61.7063 159.422 61.6838V61.6894Z" fill="#FCBE9F"/>
<path d="M192.843 52.0898C192.882 52.0672 192.899 52.0278 192.893 51.9714C192.871 51.8362 192.645 51.7517 192.544 51.7066C192.307 51.5996 190.121 51.2221 189.975 51.0531C189.885 50.946 189.992 50.8277 190.065 50.7489C190.324 50.4728 190.792 50.1911 190.662 49.7347C190.499 49.16 190.2 49.915 189.727 50.2812C188.904 50.9235 188.358 50.9404 187.501 50.6249C187.18 50.501 183.822 49.1375 183.011 48.8502C182.453 48.653 181.879 51.2165 182.16 51.3404C183.377 51.6672 186.628 52.1855 188.009 52.5011C188.104 52.5236 188.217 52.5799 188.358 52.6588C188.961 53.0081 189.626 53.2335 190.313 53.3405C190.792 53.4194 191.265 53.4757 191.727 53.5715C192.167 53.6617 192.155 53.3856 191.828 53.2222C191.507 53.0588 190.747 52.8335 190.764 52.8109C190.854 52.687 192.6 53.318 192.809 53.1546C192.938 53.0532 192.91 52.8166 192.51 52.732C192.105 52.6419 190.921 52.1405 190.921 52.1405C190.921 52.1405 193.344 52.8504 193.395 52.4898C193.417 52.3546 193.175 52.2137 192.843 52.0898Z" fill="#FCBE9F"/>
<path d="M139.098 51.2447C139.098 51.2447 137.983 54.5857 137.763 55.752C137.498 57.138 137.228 58.5352 137.29 59.9437C137.324 60.6931 137.47 62.7101 137.279 63.6228C137.2 64.0059 137.132 64.4623 137.07 64.851C136.912 65.8482 137.318 66.8342 137.718 67.7582C137.797 67.9498 137.926 68.2371 138.163 68.1019C138.372 67.9836 138.31 67.6117 138.31 67.6117C138.4 67.4652 138.501 67.2399 138.405 67.0708C138.321 66.9244 138.248 66.7722 138.202 66.6088C138.101 66.2652 138.039 65.8201 138.383 65.6003C138.574 65.5102 138.794 65.7018 138.856 65.9102C138.918 66.1187 138.89 66.3384 138.957 66.5412C139.025 66.7441 139.267 66.9244 139.448 66.806C139.588 66.7215 139.6 66.5243 139.594 66.3609C139.583 65.6567 139.572 64.9355 139.341 64.2707C139.211 63.8989 138.941 63.5608 138.907 63.1664C138.772 61.5663 139.532 58.507 139.774 57.0253C139.808 56.7999 139.842 56.5745 139.921 56.3605C139.977 56.2196 141.183 54.1237 141.713 53.211L139.098 51.2391V51.2447Z" fill="#FCBE9F"/>
<path d="M140.028 48.5967C138.975 50.208 138.642 50.901 137.544 52.9631C137.014 53.9547 140.152 56.0337 140.716 55.2787C142.879 52.0278 143.184 50.963 142.671 49.0192C142.395 47.9769 141.381 46.5177 140.023 48.5967H140.028Z" fill="#A5A5BB"/>
<defs>
<linearGradient id="paint0_linear_1_4234" x1="144.154" y1="17.7277" x2="81.9535" y2="125.463" gradientUnits="userSpaceOnUse">
<stop stop-color="#FF970E"/>
<stop offset="1" stop-color="#92590F"/>
</linearGradient>
<linearGradient id="paint1_linear_1_4234" x1="59.8172" y1="119.023" x2="62.1835" y2="123.13" gradientUnits="userSpaceOnUse">
<stop stop-color="#BC2E2E"/>
<stop offset="1" stop-color="#C63434"/>
</linearGradient>
<linearGradient id="paint2_linear_1_4234" x1="59.8172" y1="119.023" x2="62.1835" y2="123.13" gradientUnits="userSpaceOnUse">
<stop stop-color="#BC2E2E"/>
<stop offset="1" stop-color="#C63434"/>
</linearGradient>
<linearGradient id="paint3_linear_1_4234" x1="105.421" y1="162.789" x2="105.234" y2="162.977" gradientUnits="userSpaceOnUse">
<stop offset="0.25" stop-color="#3B3B3B"/>
<stop offset="0.43" stop-color="#636363"/>
<stop offset="0.58" stop-color="#545454"/>
<stop offset="0.73" stop-color="#3B3B3B"/>
</linearGradient>
<linearGradient id="paint4_linear_1_4234" x1="103.605" y1="161.035" x2="103.036" y2="161.858" gradientUnits="userSpaceOnUse">
<stop stop-color="#F5DFC1"/>
<stop offset="0.72" stop-color="#EDD4B0"/>
<stop offset="1" stop-color="#EACFA9"/>
</linearGradient>
</defs>
</svg>
