<svg width="250" height="250" viewBox="0 0 250 250" fill="none" xmlns="http://www.w3.org/2000/svg">
<circle opacity="0.03" cx="125" cy="125" r="125" fill="black"/>
<path fill-rule="evenodd" clip-rule="evenodd" d="M124.699 46L118.044 46.2197L111.497 46.8787L105.061 47.9331L98.8006 49.4268L92.6938 51.272L170.698 57.269L164.679 54.3693L158.462 51.8871L152.048 49.8222L145.436 48.1747L138.67 46.9885L131.751 46.2416L124.699 46Z" fill="#F1F8FB"/>
<path fill-rule="evenodd" clip-rule="evenodd" d="M72.5289 49.8442L60.0518 211.783L184.01 221.295L196.466 59.3558L72.5289 49.8442Z" fill="#D9C0AA"/>
<path fill-rule="evenodd" clip-rule="evenodd" d="M196.114 62.4096L195.828 67.5718L195.916 66.9128L195.96 66.2538L196.004 65.5728L196.114 62.4096Z" fill="#D8E8EC"/>
<path fill-rule="evenodd" clip-rule="evenodd" d="M73.6929 50.9211L73.8686 61.7727L76.285 66.9569L80.239 70.9549L85.4451 73.3492L123.799 84.3326L130.301 85.7165L136.913 86.1778L138.407 86.1559L182.494 80.774L191.303 76.6223L195.674 67.5061L196.224 59.2685L73.6929 50.9211Z" fill="#CBB29E"/>
<path fill-rule="evenodd" clip-rule="evenodd" d="M72.397 49.8442L72.5727 60.6958L75.011 65.8799L78.965 69.8999L84.1712 72.2723L122.481 83.2557L131.971 84.9691L136.782 85.1009L141.592 84.7274L181.155 79.719L186.668 78.1594L191.193 74.7985L194.357 70.0317L195.806 64.2764L196.202 59.3558L72.397 49.8442Z" fill="#DFC6B7"/>
<path d="M169.27 46.6371H53V206.973H169.27V46.6371Z" fill="#FFFDF8"/>
<path fill-rule="evenodd" clip-rule="evenodd" d="M155.146 142.302L154.794 141.358L153.806 140.919H68.0255L67.015 141.358L66.6855 142.302L67.015 143.247L68.0255 143.664H153.806L154.794 143.247L155.146 142.302Z" fill="#C7C5C7"/>
<path fill-rule="evenodd" clip-rule="evenodd" d="M155.146 125.981L154.794 125.037L153.806 124.619H68.0255L67.015 125.037L66.6855 125.981L67.015 126.926L68.0255 127.365H153.806L154.794 126.926L155.146 125.981Z" fill="#C7C5C7"/>
<path fill-rule="evenodd" clip-rule="evenodd" d="M155.146 109.704L154.794 108.737L153.806 108.32H68.0255L67.015 108.737L66.6855 109.704L67.015 110.648L68.0255 111.066H153.806L154.794 110.648L155.146 109.704Z" fill="#C7C5C7"/>
<path fill-rule="evenodd" clip-rule="evenodd" d="M155.146 93.4048L154.794 92.4602L153.806 92.0209H68.0255L67.015 92.4602L66.6855 93.4048L67.015 94.3494L68.0255 94.7667H153.806L154.794 94.3494L155.146 93.4048Z" fill="#C7C5C7"/>
<path fill-rule="evenodd" clip-rule="evenodd" d="M155.146 77.1044L154.794 76.1598L153.806 75.7205H88.6085L87.62 76.1598L87.2686 77.1044L87.62 78.049L88.6085 78.4663H153.806L154.794 78.049L155.146 77.1044Z" fill="#C7C5C7"/>
<path fill-rule="evenodd" clip-rule="evenodd" d="M107.653 183.072H69.0352V184.5H70.0237H107.653V183.072Z" fill="#11907B"/>
<path fill-rule="evenodd" clip-rule="evenodd" d="M140.318 166.597L133.991 167.234L128.544 169.87L125.908 174.681L126.347 177.339L128.192 178.503L131.729 179.865L135.353 181.161L137.462 182.194L142.427 188.279L149.258 199.987L154.201 206.094L158.528 202.293L161.12 197.307L163.163 190.453L164.459 184.456L164.811 180.7L164.372 177.054L159.165 170.354L149.061 167.147L143.591 166.663L140.318 166.597Z" fill="#F0D1BA"/>
<path fill-rule="evenodd" clip-rule="evenodd" d="M152.312 161.479L124.37 170.42L123.931 171.035L123.338 172.528L123.58 174.264L125.622 175.714L131.532 176.087L140.208 175.516L148.051 174.681L151.477 174.22L158.814 191.815L159.781 220.636L166.612 239.681L190.051 228.939L179.309 207.917L176.849 196.692L174.938 178.24L152.312 161.479Z" fill="#F7D7BC"/>
<path fill-rule="evenodd" clip-rule="evenodd" d="M116.968 179.427L112.201 181.096L110.509 182.151L110.531 182.239L112.267 182.327L117.517 181.338L116.968 179.427Z" fill="#D9D8DA"/>
<path fill-rule="evenodd" clip-rule="evenodd" d="M181.11 161.677L119.823 177.23L114.265 179.998L113.606 180.635L113.518 181.382L113.979 181.997L114.902 182.216L120.943 181.909L182.582 167.674L181.11 161.677Z" fill="#404C52"/>
<path fill-rule="evenodd" clip-rule="evenodd" d="M150.05 169.167L147.941 169.695L149.369 175.56L151.5 175.055L150.05 169.167Z" fill="#BC684F"/>
<path fill-rule="evenodd" clip-rule="evenodd" d="M136.715 171.298L134.606 173.078L133.706 175.977L133.618 179.206L133.859 181.952L135.309 193.727L135.507 194.781L136.034 196.89L136.188 197.966L137.044 198.999L139.087 200.954L141.745 203.282L144.294 205.369L147.017 207.653L149.412 209.96L154.266 214.903L155.167 215.649L159.451 220.504L160.241 220.768L162.877 216.418L162.834 215.188L161.625 205.545L159.978 200.163L157.803 197.395L154.969 195.704L151.323 193.463L145.282 188.696L143.063 182.589L142.954 178.416L142.448 175.846L141.24 173.253L139.329 171.452L136.715 171.298Z" fill="#F7D7BC"/>
<path fill-rule="evenodd" clip-rule="evenodd" d="M185.394 210.86L157.342 230.631L163.339 245.941L163.625 246.754L194.708 231.839L185.394 210.86Z" fill="#FEFEFE"/>
<path fill-rule="evenodd" clip-rule="evenodd" d="M164.965 233.311H162.878L162.043 234.145V236.232L162.878 237.067H164.965L165.8 236.232V235.2V234.145L164.965 233.311Z" fill="#635F5F"/>
<path fill-rule="evenodd" clip-rule="evenodd" d="M100.316 178.262L100.294 178.087L100.075 177.318L99.4816 177.515L98.4931 177.823L97.4826 177.999L96.4722 178.087L95.4617 178.043L95.1102 177.054L94.4293 176.966L94.2755 177.713L93.9899 179.031L93.1332 177.977V177.911L93.309 177.318L93.4188 176.439L93.3968 175.692L93.3749 175.648L92.6719 174.836L91.5955 174.352L91.0903 174.967L90.8267 175.692V175.868L90.8706 176.615L90.8926 176.856L90.9146 177.515L90.5631 178.306L90.0139 178.943L89.5966 178.768L89.0474 178.548L88.8058 178.306L88.5422 178.043V177.999L88.8717 177.186L88.8936 177.054L88.9595 176.439V176.11L88.8277 175.385L88.4763 174.528L88.3225 174.22L87.7733 174.198L87.6196 174.528L87.312 175.341L87.1143 176.197L87.0924 177.12L87.2901 177.911L86.8507 178.24L86.2357 178.306L85.7963 178.043V177.977L86.2357 177.12L86.3235 176.966L86.6091 175.868L86.6311 175.692L86.697 174.967V174.836V174.528L86.4992 173.364L86.3674 172.902L85.7963 172.88L85.6645 173.078V174.967L85.6425 175.758L85.4448 176.483L85.1153 177.12L84.9396 176.439L85.2471 175.648L85.6645 174.967V173.078L84.1268 177.054L84.1488 177.318L84.2586 177.713L84.4563 178.043L83.7095 178.899L82.6331 179.492L81.403 179.602L81.2492 179.097L81.0515 178.548L81.0735 176.966L81.0954 176.505L81.2053 176.351L81.3371 176.197L81.9961 175.187L84.7199 167.806L85.0275 164.863L84.9616 163.083L84.9176 161.897L84.8737 161.458L84.4124 161.26L84.0609 161.546L83.995 161.59V163.083L83.9291 166.049L83.4239 168.926L82.5452 171.716L81.2272 174.352L81.3371 173.364L82.4574 167.323L83.0505 165.148L83.358 164.006L83.995 163.083V161.59L81.403 167.411L80.3925 173.034L80.1069 176.11L79.4479 177.054V177.12L80.063 178.79L80.0849 179.383L80.1069 180.393L80.3046 180.591L80.6121 180.613L80.8318 181.513L80.9856 182.458L81.0954 183.381L81.1833 185.05L81.2053 185.533L81.1394 187.422L80.8538 189.421L80.3925 191.398L79.7994 190.322L79.4479 188.323L79.2941 186.28L79.2502 185.05V184.303V183.051L79.6017 179.536L79.6895 179.383L79.4479 177.955H78.6791L78.5912 178.394L78.3715 180.064L78.2397 181.711L78.2178 182.326V184.303L78.2397 185.05L78.2617 186.214L78.3715 187.335L78.6132 189.421L78.6791 190.432L79.0525 191.289L79.5358 191.97L80.1948 192.431L80.8758 192.387L82.1718 187.115L82.2377 185.533L82.1938 184.303L82.0839 183.051L81.8862 181.799L81.6446 180.569L82.6551 180.349L83.5996 179.976L84.2147 179.602L84.4344 179.471L85.1593 178.812L85.3789 178.943L85.5766 179.053L86.4553 179.383L87.2461 179.185L87.7733 178.812L87.8392 178.768L88.0589 178.965L88.1907 179.053L89.2012 179.492L90.2775 179.514L91.2001 179.075L91.288 178.943L91.7932 178.152L92.0349 177.34L91.969 176.615L91.947 176.505L91.8152 175.736L91.969 175.648L92.1228 175.692L92.2545 175.846L92.5621 176.088L92.3863 176.856L92.2765 177.669V178.196L92.8037 179.207L93.265 179.602L94.3634 179.558L94.6489 179.251L94.7588 179.031L94.8466 178.877L94.9345 178.943H95.0224L95.1102 178.965L96.2745 179.031L97.4607 178.987L98.0538 178.877L98.603 178.79L99.7452 178.46L100.316 178.262Z" fill="#404C52"/>
<path fill-rule="evenodd" clip-rule="evenodd" d="M102.512 179.58H101.985H101.436V180.437H102.512V179.58Z" fill="#404C52"/>
</svg>
