<svg width="40" height="40" viewBox="0 0 40 40" fill="none" xmlns="http://www.w3.org/2000/svg">
<mask id="mask0_22_15" style="mask-type:luminance" maskUnits="userSpaceOnUse" x="12" y="4" width="16" height="32">
<path d="M28 4H12V36H28V4Z" fill="white"/>
</mask>
<g mask="url(#mask0_22_15)">
<path d="M13.2008 22.2403H15.1481C15.3266 22.2403 15.4888 22.4188 15.4888 22.5811V34.8488C15.4888 35.4817 16.0081 36.001 16.641 36.001H21.1197C21.7525 36.001 22.2718 35.4817 22.2718 34.8488V22.5811C22.2718 22.4026 22.4503 22.2403 22.6126 22.2403H25.8256C26.3935 22.2403 26.9128 21.8346 26.9777 21.2667L27.7241 16.788C27.8377 16.1065 27.2698 15.4087 26.572 15.4087H22.7911C22.499 15.4087 22.2718 15.1815 22.2718 14.8894V12.0172C22.2718 11.2708 22.6775 10.8651 23.4239 10.8651H26.7992C27.432 10.8651 27.9513 10.3458 27.9513 9.71294V5.15311C27.9513 4.52025 27.432 4.00098 26.7992 4.00098H22.7262C15.2617 4.00098 15.4402 10.0213 15.4402 10.8813V15.0679C15.4402 15.2464 15.2617 15.4087 15.0994 15.4087H13.1521C12.5193 15.4087 12 15.928 12 16.5608V21.0395C12.0649 21.7211 12.568 22.2403 13.2008 22.2403Z" fill="black"/>
</g>
</svg>
